G75*
%MOIN*%
%OFA0B0*%
%FSLAX25Y25*%
%IPPOS*%
%LPD*%
%AMOC8*
5,1,8,0,0,1.08239X$1,22.5*
%
%ADD10C,0.00000*%
%ADD11C,0.05200*%
%ADD12OC8,0.05200*%
%ADD13C,0.05150*%
%ADD14C,0.11220*%
%ADD15C,0.07400*%
%ADD16C,0.05200*%
%ADD17C,0.05937*%
%ADD18C,0.01600*%
%ADD19R,0.03962X0.03962*%
%ADD20C,0.03962*%
D10*
X0001800Y0027394D02*
X0001800Y0342355D01*
X0395501Y0342355D01*
X0395501Y0027394D01*
X0001800Y0027394D01*
D11*
X0071800Y0087394D03*
X0096800Y0107394D03*
X0156800Y0097394D03*
X0121800Y0047394D03*
X0176800Y0207394D03*
X0226800Y0327394D03*
D12*
X0206800Y0327394D03*
X0276800Y0292394D03*
X0276800Y0282394D03*
X0306800Y0312394D03*
X0346800Y0312394D03*
X0161800Y0152394D03*
X0156800Y0117394D03*
X0121800Y0152394D03*
X0096800Y0127394D03*
X0071800Y0107394D03*
X0061800Y0072394D03*
X0061800Y0062394D03*
X0029300Y0047394D03*
X0021800Y0042394D03*
X0021800Y0052394D03*
X0116800Y0067394D03*
X0141800Y0047394D03*
X0156800Y0067394D03*
X0156800Y0207394D03*
X0336800Y0132394D03*
X0376800Y0132394D03*
D13*
X0049674Y0252394D03*
X0041800Y0252394D03*
X0033926Y0252394D03*
X0041879Y0316095D03*
X0037154Y0319245D03*
X0041879Y0322394D03*
X0037154Y0325544D03*
X0041879Y0328693D03*
D14*
X0021800Y0336764D03*
X0021800Y0308024D03*
D15*
X0011800Y0247394D03*
X0011800Y0237394D03*
X0011800Y0227394D03*
X0011800Y0217394D03*
X0011800Y0207394D03*
X0011800Y0197394D03*
X0011800Y0187394D03*
X0011800Y0177394D03*
X0011800Y0167394D03*
X0011800Y0157394D03*
X0011800Y0147394D03*
X0011800Y0137394D03*
X0011800Y0127394D03*
X0056800Y0132394D03*
X0056800Y0152394D03*
X0241800Y0207394D03*
X0251800Y0207394D03*
X0261800Y0207394D03*
X0356800Y0152394D03*
X0376800Y0152394D03*
X0386800Y0217394D03*
X0386800Y0227394D03*
X0386800Y0237394D03*
X0386800Y0247394D03*
X0386800Y0257394D03*
X0386800Y0267394D03*
X0386800Y0277394D03*
X0386800Y0287394D03*
D16*
X0229400Y0257394D02*
X0224200Y0257394D01*
X0224200Y0247394D02*
X0229400Y0247394D01*
X0229400Y0237394D02*
X0224200Y0237394D01*
X0224200Y0227394D02*
X0229400Y0227394D01*
X0229400Y0217394D02*
X0224200Y0217394D01*
X0224200Y0207394D02*
X0229400Y0207394D01*
X0229400Y0197394D02*
X0224200Y0197394D01*
X0224200Y0187394D02*
X0229400Y0187394D01*
X0229400Y0177394D02*
X0224200Y0177394D01*
X0224200Y0167394D02*
X0229400Y0167394D01*
X0229400Y0157394D02*
X0224200Y0157394D01*
X0224200Y0147394D02*
X0229400Y0147394D01*
X0229400Y0137394D02*
X0224200Y0137394D01*
X0224200Y0127394D02*
X0229400Y0127394D01*
X0199400Y0127394D02*
X0194200Y0127394D01*
X0194200Y0137394D02*
X0199400Y0137394D01*
X0199400Y0147394D02*
X0194200Y0147394D01*
X0194200Y0157394D02*
X0199400Y0157394D01*
X0199400Y0167394D02*
X0194200Y0167394D01*
X0194200Y0177394D02*
X0199400Y0177394D01*
X0199400Y0187394D02*
X0194200Y0187394D01*
X0194200Y0197394D02*
X0199400Y0197394D01*
X0199400Y0207394D02*
X0194200Y0207394D01*
X0194200Y0217394D02*
X0199400Y0217394D01*
X0199400Y0227394D02*
X0194200Y0227394D01*
X0194200Y0237394D02*
X0199400Y0237394D01*
X0199400Y0247394D02*
X0194200Y0247394D01*
X0194200Y0257394D02*
X0199400Y0257394D01*
D17*
X0057548Y0252394D03*
X0026052Y0252394D03*
D18*
X0021498Y0254383D02*
X0006600Y0254383D01*
X0006600Y0255981D02*
X0022613Y0255981D01*
X0023238Y0256606D02*
X0021840Y0255209D01*
X0021083Y0253382D01*
X0021083Y0251406D01*
X0021840Y0249580D01*
X0023238Y0248182D01*
X0025064Y0247426D01*
X0027040Y0247426D01*
X0028866Y0248182D01*
X0030264Y0249580D01*
X0030266Y0249584D01*
X0031126Y0248724D01*
X0031126Y0240194D01*
X0021243Y0240194D01*
X0020214Y0239768D01*
X0019426Y0238980D01*
X0019000Y0237951D01*
X0019000Y0066837D01*
X0019426Y0065808D01*
X0020214Y0065020D01*
X0021243Y0064594D01*
X0029000Y0064594D01*
X0029000Y0051994D01*
X0027395Y0051994D01*
X0026200Y0050800D01*
X0026200Y0052394D01*
X0021800Y0052394D01*
X0021800Y0047994D01*
X0023623Y0047994D01*
X0024700Y0049072D01*
X0024700Y0046000D01*
X0023705Y0046994D01*
X0019895Y0046994D01*
X0017200Y0044300D01*
X0017200Y0040489D01*
X0019895Y0037794D01*
X0023705Y0037794D01*
X0026400Y0040489D01*
X0026400Y0043789D01*
X0027395Y0042794D01*
X0031205Y0042794D01*
X0033900Y0045489D01*
X0033900Y0045534D01*
X0034174Y0045808D01*
X0034600Y0046837D01*
X0034600Y0067951D01*
X0034174Y0068980D01*
X0033386Y0069768D01*
X0032357Y0070194D01*
X0024600Y0070194D01*
X0024600Y0234594D01*
X0037357Y0234594D01*
X0038386Y0235020D01*
X0039174Y0235808D01*
X0039600Y0236837D01*
X0039600Y0237951D01*
X0039174Y0238980D01*
X0038386Y0239768D01*
X0037357Y0240194D01*
X0036726Y0240194D01*
X0036726Y0248724D01*
X0037804Y0249803D01*
X0037863Y0249944D01*
X0037922Y0249803D01*
X0039209Y0248516D01*
X0040890Y0247819D01*
X0042710Y0247819D01*
X0044391Y0248516D01*
X0045678Y0249803D01*
X0045737Y0249944D01*
X0045796Y0249803D01*
X0047083Y0248516D01*
X0048764Y0247819D01*
X0050584Y0247819D01*
X0052265Y0248516D01*
X0053334Y0249584D01*
X0053336Y0249580D01*
X0054734Y0248182D01*
X0056560Y0247426D01*
X0058536Y0247426D01*
X0060362Y0248182D01*
X0061760Y0249580D01*
X0062517Y0251406D01*
X0062517Y0253382D01*
X0061760Y0255209D01*
X0060362Y0256606D01*
X0058536Y0257363D01*
X0056560Y0257363D01*
X0054734Y0256606D01*
X0053336Y0255209D01*
X0053334Y0255204D01*
X0052265Y0256273D01*
X0050584Y0256969D01*
X0048764Y0256969D01*
X0047083Y0256273D01*
X0045796Y0254986D01*
X0045737Y0254844D01*
X0045678Y0254986D01*
X0044600Y0256064D01*
X0044600Y0273413D01*
X0044610Y0273413D01*
X0045781Y0274585D01*
X0045781Y0280204D01*
X0044610Y0281375D01*
X0038990Y0281375D01*
X0037819Y0280204D01*
X0037819Y0274585D01*
X0038990Y0273413D01*
X0039000Y0273413D01*
X0039000Y0256064D01*
X0037922Y0254986D01*
X0037863Y0254844D01*
X0037804Y0254986D01*
X0036517Y0256273D01*
X0034836Y0256969D01*
X0033016Y0256969D01*
X0031335Y0256273D01*
X0030266Y0255204D01*
X0030264Y0255209D01*
X0028866Y0256606D01*
X0027040Y0257363D01*
X0025064Y0257363D01*
X0023238Y0256606D01*
X0021083Y0252784D02*
X0013682Y0252784D01*
X0012934Y0253094D02*
X0010666Y0253094D01*
X0008571Y0252226D01*
X0006968Y0250623D01*
X0006600Y0249735D01*
X0006600Y0337555D01*
X0014190Y0337555D01*
X0014190Y0335250D01*
X0015348Y0332453D01*
X0017489Y0330313D01*
X0020286Y0329154D01*
X0023314Y0329154D01*
X0026111Y0330313D01*
X0028252Y0332453D01*
X0029410Y0335250D01*
X0029410Y0337555D01*
X0390701Y0337555D01*
X0390701Y0291554D01*
X0390029Y0292226D01*
X0387934Y0293094D01*
X0385666Y0293094D01*
X0383571Y0292226D01*
X0381968Y0290623D01*
X0381100Y0288528D01*
X0381100Y0286260D01*
X0381968Y0284165D01*
X0383571Y0282562D01*
X0383976Y0282394D01*
X0383571Y0282226D01*
X0381968Y0280623D01*
X0381100Y0278528D01*
X0381100Y0276260D01*
X0381968Y0274165D01*
X0383571Y0272562D01*
X0383976Y0272394D01*
X0383571Y0272226D01*
X0381968Y0270623D01*
X0381100Y0268528D01*
X0381100Y0266260D01*
X0381968Y0264165D01*
X0383571Y0262562D01*
X0383976Y0262394D01*
X0383571Y0262226D01*
X0381968Y0260623D01*
X0381100Y0258528D01*
X0381100Y0256260D01*
X0381968Y0254165D01*
X0383571Y0252562D01*
X0383976Y0252394D01*
X0383571Y0252226D01*
X0381968Y0250623D01*
X0381100Y0248528D01*
X0381100Y0246260D01*
X0381968Y0244165D01*
X0383571Y0242562D01*
X0383976Y0242394D01*
X0383571Y0242226D01*
X0381968Y0240623D01*
X0381100Y0238528D01*
X0381100Y0236260D01*
X0381968Y0234165D01*
X0383571Y0232562D01*
X0383976Y0232394D01*
X0383571Y0232226D01*
X0381968Y0230623D01*
X0381100Y0228528D01*
X0381100Y0226260D01*
X0381968Y0224165D01*
X0383571Y0222562D01*
X0383976Y0222394D01*
X0383571Y0222226D01*
X0381968Y0220623D01*
X0381100Y0218528D01*
X0381100Y0216959D01*
X0357724Y0201375D01*
X0353990Y0201375D01*
X0352819Y0200204D01*
X0352819Y0194585D01*
X0353990Y0193413D01*
X0359610Y0193413D01*
X0360781Y0194585D01*
X0360781Y0196683D01*
X0384205Y0212299D01*
X0385666Y0211694D01*
X0387934Y0211694D01*
X0390029Y0212562D01*
X0390701Y0213234D01*
X0390701Y0032194D01*
X0006600Y0032194D01*
X0006600Y0125053D01*
X0006968Y0124165D01*
X0008571Y0122562D01*
X0010666Y0121694D01*
X0012934Y0121694D01*
X0015029Y0122562D01*
X0016632Y0124165D01*
X0017500Y0126260D01*
X0017500Y0128528D01*
X0016632Y0130623D01*
X0015029Y0132226D01*
X0014624Y0132394D01*
X0015029Y0132562D01*
X0016632Y0134165D01*
X0017500Y0136260D01*
X0017500Y0138528D01*
X0016632Y0140623D01*
X0015029Y0142226D01*
X0014336Y0142513D01*
X0014683Y0142690D01*
X0015383Y0143199D01*
X0015995Y0143811D01*
X0016504Y0144512D01*
X0016897Y0145283D01*
X0017165Y0146106D01*
X0017300Y0146961D01*
X0017300Y0147194D01*
X0012000Y0147194D01*
X0012000Y0147594D01*
X0017300Y0147594D01*
X0017300Y0147827D01*
X0017165Y0148682D01*
X0016897Y0149505D01*
X0016504Y0150277D01*
X0015995Y0150977D01*
X0015383Y0151589D01*
X0014683Y0152098D01*
X0014336Y0152275D01*
X0015029Y0152562D01*
X0016632Y0154165D01*
X0017500Y0156260D01*
X0017500Y0158528D01*
X0016632Y0160623D01*
X0015029Y0162226D01*
X0014624Y0162394D01*
X0015029Y0162562D01*
X0016632Y0164165D01*
X0017500Y0166260D01*
X0017500Y0168528D01*
X0016632Y0170623D01*
X0015029Y0172226D01*
X0014624Y0172394D01*
X0015029Y0172562D01*
X0016632Y0174165D01*
X0017500Y0176260D01*
X0017500Y0178528D01*
X0016632Y0180623D01*
X0015029Y0182226D01*
X0014624Y0182394D01*
X0015029Y0182562D01*
X0016632Y0184165D01*
X0017500Y0186260D01*
X0017500Y0188528D01*
X0016632Y0190623D01*
X0015029Y0192226D01*
X0014624Y0192394D01*
X0015029Y0192562D01*
X0016632Y0194165D01*
X0017500Y0196260D01*
X0017500Y0198528D01*
X0016632Y0200623D01*
X0015029Y0202226D01*
X0014624Y0202394D01*
X0015029Y0202562D01*
X0016632Y0204165D01*
X0017500Y0206260D01*
X0017500Y0208528D01*
X0016632Y0210623D01*
X0015029Y0212226D01*
X0014624Y0212394D01*
X0015029Y0212562D01*
X0016632Y0214165D01*
X0017500Y0216260D01*
X0017500Y0218528D01*
X0016632Y0220623D01*
X0015029Y0222226D01*
X0014624Y0222394D01*
X0015029Y0222562D01*
X0016632Y0224165D01*
X0017500Y0226260D01*
X0017500Y0228528D01*
X0016632Y0230623D01*
X0015029Y0232226D01*
X0014624Y0232394D01*
X0015029Y0232562D01*
X0016632Y0234165D01*
X0017500Y0236260D01*
X0017500Y0238528D01*
X0016632Y0240623D01*
X0015029Y0242226D01*
X0014624Y0242394D01*
X0015029Y0242562D01*
X0016632Y0244165D01*
X0017500Y0246260D01*
X0017500Y0248528D01*
X0016632Y0250623D01*
X0015029Y0252226D01*
X0012934Y0253094D01*
X0009918Y0252784D02*
X0006600Y0252784D01*
X0006600Y0251186D02*
X0007531Y0251186D01*
X0006600Y0257580D02*
X0039000Y0257580D01*
X0039000Y0259178D02*
X0006600Y0259178D01*
X0006600Y0260777D02*
X0039000Y0260777D01*
X0039000Y0262375D02*
X0006600Y0262375D01*
X0006600Y0263974D02*
X0039000Y0263974D01*
X0039000Y0265572D02*
X0006600Y0265572D01*
X0006600Y0267171D02*
X0039000Y0267171D01*
X0039000Y0268769D02*
X0006600Y0268769D01*
X0006600Y0270368D02*
X0039000Y0270368D01*
X0039000Y0271966D02*
X0006600Y0271966D01*
X0006600Y0273565D02*
X0038839Y0273565D01*
X0037819Y0275163D02*
X0006600Y0275163D01*
X0006600Y0276762D02*
X0037819Y0276762D01*
X0037819Y0278360D02*
X0006600Y0278360D01*
X0006600Y0279959D02*
X0037819Y0279959D01*
X0041800Y0277394D02*
X0041800Y0252394D01*
X0040481Y0247989D02*
X0036726Y0247989D01*
X0036726Y0246390D02*
X0099907Y0246390D01*
X0100041Y0244792D02*
X0036726Y0244792D01*
X0036726Y0243193D02*
X0100174Y0243193D01*
X0100307Y0241595D02*
X0036726Y0241595D01*
X0037835Y0239996D02*
X0100440Y0239996D01*
X0100573Y0238398D02*
X0039415Y0238398D01*
X0039584Y0236799D02*
X0100707Y0236799D01*
X0100840Y0235201D02*
X0038566Y0235201D01*
X0036800Y0237394D02*
X0033926Y0237394D01*
X0033926Y0252394D01*
X0036809Y0255981D02*
X0038917Y0255981D01*
X0044683Y0255981D02*
X0046791Y0255981D01*
X0044600Y0257580D02*
X0098975Y0257580D01*
X0098842Y0259178D02*
X0044600Y0259178D01*
X0044600Y0260777D02*
X0098708Y0260777D01*
X0098575Y0262375D02*
X0044600Y0262375D01*
X0044600Y0263974D02*
X0098442Y0263974D01*
X0098309Y0265572D02*
X0044600Y0265572D01*
X0044600Y0267171D02*
X0098176Y0267171D01*
X0098042Y0268769D02*
X0044600Y0268769D01*
X0044600Y0270368D02*
X0097909Y0270368D01*
X0097776Y0271966D02*
X0044600Y0271966D01*
X0044761Y0273565D02*
X0058839Y0273565D01*
X0058990Y0273413D02*
X0064610Y0273413D01*
X0065781Y0274585D01*
X0065781Y0280204D01*
X0064610Y0281375D01*
X0064600Y0281375D01*
X0064600Y0323413D01*
X0064610Y0323413D01*
X0065781Y0324585D01*
X0065781Y0330204D01*
X0064610Y0331375D01*
X0058990Y0331375D01*
X0057819Y0330204D01*
X0057819Y0324585D01*
X0058990Y0323413D01*
X0059000Y0323413D01*
X0059000Y0281375D01*
X0058990Y0281375D01*
X0057819Y0280204D01*
X0057819Y0274585D01*
X0058990Y0273413D01*
X0057819Y0275163D02*
X0045781Y0275163D01*
X0045781Y0276762D02*
X0057819Y0276762D01*
X0057819Y0278360D02*
X0045781Y0278360D01*
X0045781Y0279959D02*
X0057819Y0279959D01*
X0059000Y0281557D02*
X0006600Y0281557D01*
X0006600Y0283156D02*
X0059000Y0283156D01*
X0059000Y0284755D02*
X0006600Y0284755D01*
X0006600Y0286353D02*
X0059000Y0286353D01*
X0059000Y0287952D02*
X0006600Y0287952D01*
X0006600Y0289550D02*
X0032854Y0289550D01*
X0032819Y0289585D02*
X0033990Y0288413D01*
X0039610Y0288413D01*
X0040781Y0289585D01*
X0040781Y0295204D01*
X0039610Y0296375D01*
X0039600Y0296375D01*
X0039600Y0312346D01*
X0040199Y0312041D01*
X0040854Y0311828D01*
X0041534Y0311720D01*
X0041879Y0311720D01*
X0042223Y0311720D01*
X0042903Y0311828D01*
X0043558Y0312041D01*
X0044172Y0312353D01*
X0044729Y0312758D01*
X0045216Y0313245D01*
X0045620Y0313802D01*
X0045933Y0314416D01*
X0046146Y0315071D01*
X0046254Y0315751D01*
X0046254Y0316095D01*
X0046254Y0316439D01*
X0046146Y0317119D01*
X0045933Y0317774D01*
X0045620Y0318388D01*
X0045216Y0318945D01*
X0045057Y0319103D01*
X0045757Y0319803D01*
X0046454Y0321484D01*
X0046454Y0323304D01*
X0045757Y0324986D01*
X0045199Y0325544D01*
X0045757Y0326102D01*
X0046454Y0327783D01*
X0046454Y0329603D01*
X0045757Y0331285D01*
X0044470Y0332572D01*
X0042789Y0333268D01*
X0040969Y0333268D01*
X0039287Y0332572D01*
X0038000Y0331285D01*
X0037517Y0330119D01*
X0036244Y0330119D01*
X0034563Y0329422D01*
X0033276Y0328135D01*
X0032580Y0326454D01*
X0032580Y0324634D01*
X0033276Y0322952D01*
X0033834Y0322394D01*
X0033276Y0321836D01*
X0032580Y0320155D01*
X0032580Y0318335D01*
X0033276Y0316653D01*
X0034000Y0315929D01*
X0034000Y0296375D01*
X0033990Y0296375D01*
X0032819Y0295204D01*
X0032819Y0289585D01*
X0032819Y0291149D02*
X0006600Y0291149D01*
X0006600Y0292747D02*
X0032819Y0292747D01*
X0032819Y0294346D02*
X0006600Y0294346D01*
X0006600Y0295944D02*
X0033559Y0295944D01*
X0034000Y0297543D02*
X0006600Y0297543D01*
X0006600Y0299141D02*
X0034000Y0299141D01*
X0034000Y0300740D02*
X0024100Y0300740D01*
X0023314Y0300414D02*
X0026111Y0301572D01*
X0028252Y0303713D01*
X0029410Y0306510D01*
X0029410Y0309538D01*
X0028252Y0312335D01*
X0026111Y0314476D01*
X0023314Y0315634D01*
X0020286Y0315634D01*
X0017489Y0314476D01*
X0015348Y0312335D01*
X0014190Y0309538D01*
X0014190Y0306510D01*
X0015348Y0303713D01*
X0017489Y0301572D01*
X0020286Y0300414D01*
X0023314Y0300414D01*
X0019500Y0300740D02*
X0006600Y0300740D01*
X0006600Y0302338D02*
X0016723Y0302338D01*
X0015256Y0303937D02*
X0006600Y0303937D01*
X0006600Y0305535D02*
X0014594Y0305535D01*
X0014190Y0307134D02*
X0006600Y0307134D01*
X0006600Y0308732D02*
X0014190Y0308732D01*
X0014518Y0310331D02*
X0006600Y0310331D01*
X0006600Y0311929D02*
X0015180Y0311929D01*
X0016541Y0313528D02*
X0006600Y0313528D01*
X0006600Y0315126D02*
X0019060Y0315126D01*
X0024540Y0315126D02*
X0034000Y0315126D01*
X0034000Y0313528D02*
X0027059Y0313528D01*
X0028420Y0311929D02*
X0034000Y0311929D01*
X0034000Y0310331D02*
X0029082Y0310331D01*
X0029410Y0308732D02*
X0034000Y0308732D01*
X0034000Y0307134D02*
X0029410Y0307134D01*
X0029006Y0305535D02*
X0034000Y0305535D01*
X0034000Y0303937D02*
X0028344Y0303937D01*
X0026877Y0302338D02*
X0034000Y0302338D01*
X0039600Y0302338D02*
X0059000Y0302338D01*
X0059000Y0300740D02*
X0039600Y0300740D01*
X0039600Y0299141D02*
X0059000Y0299141D01*
X0059000Y0297543D02*
X0039600Y0297543D01*
X0040041Y0295944D02*
X0059000Y0295944D01*
X0059000Y0294346D02*
X0040781Y0294346D01*
X0040781Y0292747D02*
X0059000Y0292747D01*
X0059000Y0291149D02*
X0040781Y0291149D01*
X0040746Y0289550D02*
X0059000Y0289550D01*
X0064600Y0289550D02*
X0096311Y0289550D01*
X0096444Y0287952D02*
X0064600Y0287952D01*
X0064600Y0286353D02*
X0096577Y0286353D01*
X0096710Y0284755D02*
X0064600Y0284755D01*
X0064600Y0283156D02*
X0096843Y0283156D01*
X0096977Y0281557D02*
X0064600Y0281557D01*
X0065781Y0279959D02*
X0097110Y0279959D01*
X0097243Y0278360D02*
X0065781Y0278360D01*
X0065781Y0276762D02*
X0097376Y0276762D01*
X0097510Y0275163D02*
X0065781Y0275163D01*
X0064761Y0273565D02*
X0097643Y0273565D01*
X0103262Y0273565D02*
X0184000Y0273565D01*
X0184000Y0275163D02*
X0103129Y0275163D01*
X0102996Y0276762D02*
X0184000Y0276762D01*
X0184000Y0278360D02*
X0102862Y0278360D01*
X0102729Y0279959D02*
X0184000Y0279959D01*
X0184000Y0281557D02*
X0102596Y0281557D01*
X0102463Y0283156D02*
X0184000Y0283156D01*
X0184000Y0284755D02*
X0102330Y0284755D01*
X0102196Y0286353D02*
X0184000Y0286353D01*
X0184000Y0287952D02*
X0102063Y0287952D01*
X0101930Y0289550D02*
X0184000Y0289550D01*
X0184000Y0291149D02*
X0101797Y0291149D01*
X0101664Y0292747D02*
X0184000Y0292747D01*
X0184000Y0294346D02*
X0101530Y0294346D01*
X0101397Y0295944D02*
X0184000Y0295944D01*
X0184000Y0297543D02*
X0101264Y0297543D01*
X0101131Y0299141D02*
X0184000Y0299141D01*
X0184000Y0300740D02*
X0100998Y0300740D01*
X0100864Y0302338D02*
X0184000Y0302338D01*
X0184000Y0303937D02*
X0100731Y0303937D01*
X0100598Y0305535D02*
X0184000Y0305535D01*
X0184000Y0307134D02*
X0100465Y0307134D01*
X0100332Y0308732D02*
X0184000Y0308732D01*
X0184000Y0310331D02*
X0100198Y0310331D01*
X0100065Y0311929D02*
X0184000Y0311929D01*
X0184000Y0313528D02*
X0099932Y0313528D01*
X0099916Y0313719D02*
X0100781Y0314585D01*
X0100781Y0320204D01*
X0099610Y0321375D01*
X0093990Y0321375D01*
X0092819Y0320204D01*
X0092819Y0314585D01*
X0093990Y0313413D01*
X0094322Y0313413D01*
X0104000Y0197278D01*
X0104000Y0196375D01*
X0103990Y0196375D01*
X0102819Y0195204D01*
X0102819Y0189585D01*
X0103990Y0188413D01*
X0109610Y0188413D01*
X0110781Y0189585D01*
X0110781Y0195204D01*
X0109610Y0196375D01*
X0109600Y0196375D01*
X0109600Y0196957D01*
X0109637Y0197072D01*
X0109600Y0197511D01*
X0109600Y0197951D01*
X0109554Y0198062D01*
X0099916Y0313719D01*
X0100781Y0315126D02*
X0184000Y0315126D01*
X0184000Y0316725D02*
X0100781Y0316725D01*
X0100781Y0318323D02*
X0184000Y0318323D01*
X0184000Y0318413D02*
X0184000Y0201375D01*
X0183990Y0201375D01*
X0182819Y0200204D01*
X0182819Y0194585D01*
X0183990Y0193413D01*
X0189610Y0193413D01*
X0190643Y0194446D01*
X0191594Y0193495D01*
X0193285Y0192794D01*
X0200315Y0192794D01*
X0202006Y0193495D01*
X0203300Y0194788D01*
X0204000Y0196479D01*
X0204000Y0198309D01*
X0203300Y0200000D01*
X0202006Y0201294D01*
X0200315Y0201994D01*
X0193285Y0201994D01*
X0191594Y0201294D01*
X0190643Y0200342D01*
X0189610Y0201375D01*
X0189600Y0201375D01*
X0189600Y0322951D01*
X0189174Y0323980D01*
X0188386Y0324768D01*
X0187357Y0325194D01*
X0186243Y0325194D01*
X0185781Y0325194D01*
X0185781Y0325204D01*
X0184610Y0326375D01*
X0178990Y0326375D01*
X0177819Y0325204D01*
X0177819Y0319585D01*
X0178990Y0318413D01*
X0184000Y0318413D01*
X0181800Y0322394D02*
X0186800Y0322394D01*
X0186800Y0197394D01*
X0182819Y0196836D02*
X0109600Y0196836D01*
X0109523Y0198435D02*
X0138969Y0198435D01*
X0138990Y0198413D02*
X0144610Y0198413D01*
X0145781Y0199585D01*
X0145781Y0205204D01*
X0144610Y0206375D01*
X0144600Y0206375D01*
X0144600Y0223413D01*
X0144610Y0223413D01*
X0145781Y0224585D01*
X0145781Y0230204D01*
X0144610Y0231375D01*
X0138990Y0231375D01*
X0137819Y0230204D01*
X0137819Y0224585D01*
X0138990Y0223413D01*
X0139000Y0223413D01*
X0139000Y0206375D01*
X0138990Y0206375D01*
X0137819Y0205204D01*
X0137819Y0199585D01*
X0138990Y0198413D01*
X0137819Y0200033D02*
X0109390Y0200033D01*
X0109257Y0201632D02*
X0137819Y0201632D01*
X0137819Y0203230D02*
X0109123Y0203230D01*
X0108990Y0204829D02*
X0137819Y0204829D01*
X0139000Y0206427D02*
X0108857Y0206427D01*
X0108724Y0208026D02*
X0139000Y0208026D01*
X0139000Y0209624D02*
X0108591Y0209624D01*
X0108457Y0211223D02*
X0139000Y0211223D01*
X0139000Y0212822D02*
X0108324Y0212822D01*
X0108191Y0214420D02*
X0127984Y0214420D01*
X0127819Y0214585D02*
X0128990Y0213413D01*
X0134610Y0213413D01*
X0135781Y0214585D01*
X0135781Y0220204D01*
X0134610Y0221375D01*
X0134600Y0221375D01*
X0134600Y0233413D01*
X0134610Y0233413D01*
X0135781Y0234585D01*
X0135781Y0240204D01*
X0134610Y0241375D01*
X0128990Y0241375D01*
X0127819Y0240204D01*
X0127819Y0234585D01*
X0128990Y0233413D01*
X0129000Y0233413D01*
X0129000Y0221375D01*
X0128990Y0221375D01*
X0127819Y0220204D01*
X0127819Y0214585D01*
X0127819Y0216019D02*
X0108058Y0216019D01*
X0107924Y0217617D02*
X0127819Y0217617D01*
X0127819Y0219216D02*
X0107791Y0219216D01*
X0107658Y0220814D02*
X0128429Y0220814D01*
X0129000Y0222413D02*
X0107525Y0222413D01*
X0107392Y0224011D02*
X0118392Y0224011D01*
X0117819Y0224585D02*
X0118990Y0223413D01*
X0124610Y0223413D01*
X0125781Y0224585D01*
X0125781Y0230204D01*
X0124610Y0231375D01*
X0124600Y0231375D01*
X0124600Y0243413D01*
X0124610Y0243413D01*
X0125781Y0244585D01*
X0125781Y0250204D01*
X0124610Y0251375D01*
X0118990Y0251375D01*
X0117819Y0250204D01*
X0117819Y0244585D01*
X0118990Y0243413D01*
X0119000Y0243413D01*
X0119000Y0231375D01*
X0118990Y0231375D01*
X0117819Y0230204D01*
X0117819Y0224585D01*
X0117819Y0225610D02*
X0107258Y0225610D01*
X0107125Y0227208D02*
X0117819Y0227208D01*
X0117819Y0228807D02*
X0106992Y0228807D01*
X0106859Y0230405D02*
X0118020Y0230405D01*
X0119000Y0232004D02*
X0106726Y0232004D01*
X0106592Y0233602D02*
X0119000Y0233602D01*
X0119000Y0235201D02*
X0106459Y0235201D01*
X0106326Y0236799D02*
X0119000Y0236799D01*
X0119000Y0238398D02*
X0106193Y0238398D01*
X0106060Y0239996D02*
X0119000Y0239996D01*
X0119000Y0241595D02*
X0105926Y0241595D01*
X0105793Y0243193D02*
X0119000Y0243193D01*
X0117819Y0244792D02*
X0105660Y0244792D01*
X0105527Y0246390D02*
X0117819Y0246390D01*
X0117819Y0247989D02*
X0105393Y0247989D01*
X0105260Y0249587D02*
X0117819Y0249587D01*
X0118801Y0251186D02*
X0105127Y0251186D01*
X0104994Y0252784D02*
X0184000Y0252784D01*
X0184000Y0251186D02*
X0124799Y0251186D01*
X0125781Y0249587D02*
X0184000Y0249587D01*
X0184000Y0247989D02*
X0125781Y0247989D01*
X0125781Y0246390D02*
X0184000Y0246390D01*
X0184000Y0244792D02*
X0125781Y0244792D01*
X0124600Y0243193D02*
X0184000Y0243193D01*
X0184000Y0241595D02*
X0124600Y0241595D01*
X0124600Y0239996D02*
X0127819Y0239996D01*
X0127819Y0238398D02*
X0124600Y0238398D01*
X0124600Y0236799D02*
X0127819Y0236799D01*
X0127819Y0235201D02*
X0124600Y0235201D01*
X0124600Y0233602D02*
X0128801Y0233602D01*
X0129000Y0232004D02*
X0124600Y0232004D01*
X0125580Y0230405D02*
X0129000Y0230405D01*
X0129000Y0228807D02*
X0125781Y0228807D01*
X0125781Y0227208D02*
X0129000Y0227208D01*
X0129000Y0225610D02*
X0125781Y0225610D01*
X0125208Y0224011D02*
X0129000Y0224011D01*
X0134600Y0224011D02*
X0138392Y0224011D01*
X0137819Y0225610D02*
X0134600Y0225610D01*
X0134600Y0227208D02*
X0137819Y0227208D01*
X0137819Y0228807D02*
X0134600Y0228807D01*
X0134600Y0230405D02*
X0138020Y0230405D01*
X0134600Y0232004D02*
X0184000Y0232004D01*
X0184000Y0233602D02*
X0134799Y0233602D01*
X0135781Y0235201D02*
X0184000Y0235201D01*
X0184000Y0236799D02*
X0135781Y0236799D01*
X0135781Y0238398D02*
X0184000Y0238398D01*
X0184000Y0239996D02*
X0135781Y0239996D01*
X0131800Y0237394D02*
X0131800Y0217394D01*
X0135781Y0217617D02*
X0139000Y0217617D01*
X0139000Y0216019D02*
X0135781Y0216019D01*
X0135616Y0214420D02*
X0139000Y0214420D01*
X0139000Y0219216D02*
X0135781Y0219216D01*
X0135171Y0220814D02*
X0139000Y0220814D01*
X0139000Y0222413D02*
X0134600Y0222413D01*
X0141800Y0227394D02*
X0141800Y0202394D01*
X0145781Y0201632D02*
X0184000Y0201632D01*
X0184000Y0203230D02*
X0178768Y0203230D01*
X0179406Y0203495D02*
X0177715Y0202794D01*
X0175885Y0202794D01*
X0174194Y0203495D01*
X0172900Y0204788D01*
X0172200Y0206479D01*
X0172200Y0208309D01*
X0172900Y0210000D01*
X0174194Y0211294D01*
X0175885Y0211994D01*
X0177715Y0211994D01*
X0179406Y0211294D01*
X0180700Y0210000D01*
X0181400Y0208309D01*
X0181400Y0206479D01*
X0180700Y0204788D01*
X0179406Y0203495D01*
X0180716Y0204829D02*
X0184000Y0204829D01*
X0184000Y0206427D02*
X0181379Y0206427D01*
X0181400Y0208026D02*
X0184000Y0208026D01*
X0184000Y0209624D02*
X0180855Y0209624D01*
X0179477Y0211223D02*
X0184000Y0211223D01*
X0184000Y0212822D02*
X0144600Y0212822D01*
X0144600Y0214420D02*
X0184000Y0214420D01*
X0184000Y0216019D02*
X0144600Y0216019D01*
X0144600Y0217617D02*
X0184000Y0217617D01*
X0184000Y0219216D02*
X0144600Y0219216D01*
X0144600Y0220814D02*
X0184000Y0220814D01*
X0184000Y0222413D02*
X0144600Y0222413D01*
X0145208Y0224011D02*
X0184000Y0224011D01*
X0184000Y0225610D02*
X0145781Y0225610D01*
X0145781Y0227208D02*
X0184000Y0227208D01*
X0184000Y0228807D02*
X0145781Y0228807D01*
X0145580Y0230405D02*
X0184000Y0230405D01*
X0189600Y0230405D02*
X0190706Y0230405D01*
X0190300Y0230000D02*
X0189600Y0228309D01*
X0189600Y0226479D01*
X0190300Y0224788D01*
X0191594Y0223495D01*
X0193285Y0222794D01*
X0200315Y0222794D01*
X0202006Y0223495D01*
X0203300Y0224788D01*
X0204000Y0226479D01*
X0204000Y0228309D01*
X0203300Y0230000D01*
X0202006Y0231294D01*
X0200315Y0231994D01*
X0193285Y0231994D01*
X0191594Y0231294D01*
X0190300Y0230000D01*
X0189806Y0228807D02*
X0189600Y0228807D01*
X0189600Y0227208D02*
X0189600Y0227208D01*
X0189600Y0225610D02*
X0189960Y0225610D01*
X0189600Y0224011D02*
X0191078Y0224011D01*
X0189600Y0222413D02*
X0319000Y0222413D01*
X0319000Y0221375D02*
X0318990Y0221375D01*
X0317819Y0220204D01*
X0317819Y0214585D01*
X0318990Y0213413D01*
X0324610Y0213413D01*
X0325781Y0214585D01*
X0325781Y0220204D01*
X0324610Y0221375D01*
X0324600Y0221375D01*
X0324600Y0243413D01*
X0324610Y0243413D01*
X0325781Y0244585D01*
X0325781Y0250204D01*
X0324610Y0251375D01*
X0318990Y0251375D01*
X0317819Y0250204D01*
X0317819Y0244585D01*
X0318990Y0243413D01*
X0319000Y0243413D01*
X0319000Y0221375D01*
X0318429Y0220814D02*
X0280171Y0220814D01*
X0279610Y0221375D02*
X0273990Y0221375D01*
X0272819Y0220204D01*
X0272819Y0214585D01*
X0273990Y0213413D01*
X0274000Y0213413D01*
X0274000Y0191375D01*
X0273990Y0191375D01*
X0272819Y0190204D01*
X0272819Y0184585D01*
X0273990Y0183413D01*
X0279610Y0183413D01*
X0280781Y0184585D01*
X0280781Y0190204D01*
X0279610Y0191375D01*
X0279600Y0191375D01*
X0279600Y0213413D01*
X0279610Y0213413D01*
X0280781Y0214585D01*
X0280781Y0220204D01*
X0279610Y0221375D01*
X0280781Y0219216D02*
X0317819Y0219216D01*
X0317819Y0217617D02*
X0280781Y0217617D01*
X0280781Y0216019D02*
X0317819Y0216019D01*
X0317984Y0214420D02*
X0280616Y0214420D01*
X0279600Y0212822D02*
X0326943Y0212822D01*
X0327076Y0214420D02*
X0325616Y0214420D01*
X0325781Y0216019D02*
X0327209Y0216019D01*
X0327342Y0217617D02*
X0325781Y0217617D01*
X0325781Y0219216D02*
X0327475Y0219216D01*
X0327609Y0220814D02*
X0325171Y0220814D01*
X0324600Y0222413D02*
X0327742Y0222413D01*
X0327875Y0224011D02*
X0324600Y0224011D01*
X0324600Y0225610D02*
X0328008Y0225610D01*
X0328141Y0227208D02*
X0324600Y0227208D01*
X0324600Y0228807D02*
X0328275Y0228807D01*
X0328408Y0230405D02*
X0324600Y0230405D01*
X0324600Y0232004D02*
X0328541Y0232004D01*
X0328674Y0233602D02*
X0324600Y0233602D01*
X0324600Y0235201D02*
X0327819Y0235201D01*
X0327819Y0234585D02*
X0328684Y0233719D01*
X0324322Y0181375D01*
X0323990Y0181375D01*
X0322819Y0180204D01*
X0322819Y0174585D01*
X0323990Y0173413D01*
X0329610Y0173413D01*
X0330781Y0174585D01*
X0330781Y0180204D01*
X0329916Y0181069D01*
X0334278Y0233413D01*
X0334610Y0233413D01*
X0335781Y0234585D01*
X0335781Y0240204D01*
X0334610Y0241375D01*
X0328990Y0241375D01*
X0327819Y0240204D01*
X0327819Y0234585D01*
X0327819Y0236799D02*
X0324600Y0236799D01*
X0324600Y0238398D02*
X0327819Y0238398D01*
X0327819Y0239996D02*
X0324600Y0239996D01*
X0324600Y0241595D02*
X0364000Y0241595D01*
X0364000Y0243193D02*
X0324600Y0243193D01*
X0325781Y0244792D02*
X0364000Y0244792D01*
X0364000Y0246390D02*
X0325781Y0246390D01*
X0325781Y0247989D02*
X0364000Y0247989D01*
X0364000Y0249587D02*
X0325781Y0249587D01*
X0324799Y0251186D02*
X0364000Y0251186D01*
X0364000Y0252784D02*
X0314600Y0252784D01*
X0314600Y0253413D02*
X0314610Y0253413D01*
X0315781Y0254585D01*
X0315781Y0260204D01*
X0314610Y0261375D01*
X0308990Y0261375D01*
X0307819Y0260204D01*
X0307819Y0254585D01*
X0308990Y0253413D01*
X0309000Y0253413D01*
X0309000Y0231375D01*
X0308990Y0231375D01*
X0307819Y0230204D01*
X0307819Y0224585D01*
X0308990Y0223413D01*
X0314610Y0223413D01*
X0315781Y0224585D01*
X0315781Y0230204D01*
X0314610Y0231375D01*
X0314600Y0231375D01*
X0314600Y0253413D01*
X0315579Y0254383D02*
X0364000Y0254383D01*
X0364000Y0254564D02*
X0364000Y0220224D01*
X0363425Y0219649D01*
X0362819Y0218186D01*
X0362819Y0216602D01*
X0363425Y0215139D01*
X0364545Y0214019D01*
X0366008Y0213413D01*
X0367592Y0213413D01*
X0369055Y0214019D01*
X0370175Y0215139D01*
X0370781Y0216602D01*
X0370781Y0218186D01*
X0370175Y0219649D01*
X0369600Y0220224D01*
X0369600Y0254564D01*
X0370175Y0255139D01*
X0370781Y0256602D01*
X0370781Y0258186D01*
X0370175Y0259649D01*
X0369055Y0260769D01*
X0367592Y0261375D01*
X0366008Y0261375D01*
X0364545Y0260769D01*
X0363425Y0259649D01*
X0362819Y0258186D01*
X0362819Y0256602D01*
X0363425Y0255139D01*
X0364000Y0254564D01*
X0363076Y0255981D02*
X0315781Y0255981D01*
X0315781Y0257580D02*
X0362819Y0257580D01*
X0363230Y0259178D02*
X0315781Y0259178D01*
X0315208Y0260777D02*
X0364563Y0260777D01*
X0366800Y0257394D02*
X0366800Y0217394D01*
X0370539Y0216019D02*
X0379689Y0216019D01*
X0381100Y0217617D02*
X0370781Y0217617D01*
X0370355Y0219216D02*
X0381385Y0219216D01*
X0382159Y0220814D02*
X0369600Y0220814D01*
X0369600Y0222413D02*
X0383932Y0222413D01*
X0382122Y0224011D02*
X0369600Y0224011D01*
X0369600Y0225610D02*
X0381370Y0225610D01*
X0381100Y0227208D02*
X0369600Y0227208D01*
X0369600Y0228807D02*
X0381215Y0228807D01*
X0381878Y0230405D02*
X0369600Y0230405D01*
X0369600Y0232004D02*
X0383348Y0232004D01*
X0382531Y0233602D02*
X0369600Y0233602D01*
X0369600Y0235201D02*
X0381539Y0235201D01*
X0381100Y0236799D02*
X0369600Y0236799D01*
X0369600Y0238398D02*
X0381100Y0238398D01*
X0381708Y0239996D02*
X0369600Y0239996D01*
X0369600Y0241595D02*
X0382939Y0241595D01*
X0382940Y0243193D02*
X0369600Y0243193D01*
X0369600Y0244792D02*
X0381708Y0244792D01*
X0381100Y0246390D02*
X0369600Y0246390D01*
X0369600Y0247989D02*
X0381100Y0247989D01*
X0381539Y0249587D02*
X0369600Y0249587D01*
X0369600Y0251186D02*
X0382531Y0251186D01*
X0383349Y0252784D02*
X0369600Y0252784D01*
X0369600Y0254383D02*
X0381878Y0254383D01*
X0381216Y0255981D02*
X0370524Y0255981D01*
X0370781Y0257580D02*
X0381100Y0257580D01*
X0381369Y0259178D02*
X0370370Y0259178D01*
X0369037Y0260777D02*
X0382122Y0260777D01*
X0383931Y0262375D02*
X0279600Y0262375D01*
X0279600Y0263413D02*
X0279610Y0263413D01*
X0280781Y0264585D01*
X0280781Y0270204D01*
X0279610Y0271375D01*
X0279600Y0271375D01*
X0279600Y0278689D01*
X0281400Y0280489D01*
X0281400Y0284300D01*
X0278705Y0286994D01*
X0274895Y0286994D01*
X0272200Y0284300D01*
X0272200Y0280489D01*
X0274000Y0278689D01*
X0274000Y0271375D01*
X0273990Y0271375D01*
X0272819Y0270204D01*
X0272819Y0264585D01*
X0273990Y0263413D01*
X0274000Y0263413D01*
X0274000Y0241375D01*
X0273990Y0241375D01*
X0272819Y0240204D01*
X0272819Y0234585D01*
X0273990Y0233413D01*
X0279610Y0233413D01*
X0280781Y0234585D01*
X0280781Y0240204D01*
X0279610Y0241375D01*
X0279600Y0241375D01*
X0279600Y0263413D01*
X0280170Y0263974D02*
X0382159Y0263974D01*
X0381385Y0265572D02*
X0280781Y0265572D01*
X0280781Y0267171D02*
X0381100Y0267171D01*
X0381200Y0268769D02*
X0280781Y0268769D01*
X0280617Y0270368D02*
X0381862Y0270368D01*
X0383311Y0271966D02*
X0279600Y0271966D01*
X0279600Y0273565D02*
X0382568Y0273565D01*
X0381554Y0275163D02*
X0279600Y0275163D01*
X0279600Y0276762D02*
X0381100Y0276762D01*
X0381100Y0278360D02*
X0279600Y0278360D01*
X0280870Y0279959D02*
X0381693Y0279959D01*
X0382902Y0281557D02*
X0281400Y0281557D01*
X0281400Y0283156D02*
X0382977Y0283156D01*
X0381724Y0284755D02*
X0280945Y0284755D01*
X0279347Y0286353D02*
X0381100Y0286353D01*
X0381100Y0287952D02*
X0278863Y0287952D01*
X0278705Y0287794D02*
X0281400Y0290489D01*
X0281400Y0294300D01*
X0278705Y0296994D01*
X0274895Y0296994D01*
X0272200Y0294300D01*
X0272200Y0290489D01*
X0274895Y0287794D01*
X0278705Y0287794D01*
X0280461Y0289550D02*
X0381523Y0289550D01*
X0382493Y0291149D02*
X0281400Y0291149D01*
X0281400Y0292747D02*
X0384828Y0292747D01*
X0388772Y0292747D02*
X0390701Y0292747D01*
X0390701Y0294346D02*
X0281354Y0294346D01*
X0279755Y0295944D02*
X0390701Y0295944D01*
X0390701Y0297543D02*
X0249600Y0297543D01*
X0249600Y0299141D02*
X0390701Y0299141D01*
X0390701Y0300740D02*
X0249600Y0300740D01*
X0249600Y0302338D02*
X0390701Y0302338D01*
X0390701Y0303937D02*
X0249600Y0303937D01*
X0249600Y0305535D02*
X0390701Y0305535D01*
X0390701Y0307134D02*
X0249600Y0307134D01*
X0249600Y0308732D02*
X0303957Y0308732D01*
X0304895Y0307794D02*
X0308705Y0307794D01*
X0311400Y0310489D01*
X0311400Y0314300D01*
X0308705Y0316994D01*
X0304895Y0316994D01*
X0302200Y0314300D01*
X0302200Y0310489D01*
X0304895Y0307794D01*
X0302358Y0310331D02*
X0249600Y0310331D01*
X0249600Y0311929D02*
X0302200Y0311929D01*
X0302200Y0313528D02*
X0249600Y0313528D01*
X0249600Y0315126D02*
X0303027Y0315126D01*
X0304625Y0316725D02*
X0249600Y0316725D01*
X0249600Y0318323D02*
X0390701Y0318323D01*
X0390701Y0316725D02*
X0348692Y0316725D01*
X0348623Y0316794D02*
X0346800Y0316794D01*
X0346800Y0312394D01*
X0346800Y0307994D01*
X0348623Y0307994D01*
X0351200Y0310572D01*
X0351200Y0312394D01*
X0346800Y0312394D01*
X0346800Y0312394D01*
X0346800Y0307994D01*
X0344977Y0307994D01*
X0342400Y0310572D01*
X0342400Y0312394D01*
X0346800Y0312394D01*
X0346800Y0312394D01*
X0346800Y0312394D01*
X0351200Y0312394D01*
X0351200Y0314217D01*
X0348623Y0316794D01*
X0346800Y0316794D02*
X0344977Y0316794D01*
X0342400Y0314217D01*
X0342400Y0312394D01*
X0346800Y0312394D01*
X0346800Y0316794D01*
X0346800Y0316725D02*
X0346800Y0316725D01*
X0346800Y0315126D02*
X0346800Y0315126D01*
X0346800Y0313528D02*
X0346800Y0313528D01*
X0346800Y0312394D02*
X0346800Y0312394D01*
X0346800Y0311929D02*
X0346800Y0311929D01*
X0346800Y0310331D02*
X0346800Y0310331D01*
X0346800Y0308732D02*
X0346800Y0308732D01*
X0349361Y0308732D02*
X0390701Y0308732D01*
X0390701Y0310331D02*
X0350959Y0310331D01*
X0351200Y0311929D02*
X0390701Y0311929D01*
X0390701Y0313528D02*
X0351200Y0313528D01*
X0350290Y0315126D02*
X0390701Y0315126D01*
X0390701Y0319922D02*
X0249600Y0319922D01*
X0249600Y0321520D02*
X0390701Y0321520D01*
X0390701Y0323119D02*
X0249600Y0323119D01*
X0249600Y0323413D02*
X0249610Y0323413D01*
X0250781Y0324585D01*
X0250781Y0330204D01*
X0249610Y0331375D01*
X0243990Y0331375D01*
X0242819Y0330204D01*
X0242819Y0324585D01*
X0243990Y0323413D01*
X0244000Y0323413D01*
X0244000Y0251375D01*
X0243990Y0251375D01*
X0242819Y0250204D01*
X0242819Y0244585D01*
X0243990Y0243413D01*
X0249610Y0243413D01*
X0250781Y0244585D01*
X0250781Y0250204D01*
X0249610Y0251375D01*
X0249600Y0251375D01*
X0249600Y0323413D01*
X0250781Y0324717D02*
X0390701Y0324717D01*
X0390701Y0326316D02*
X0250781Y0326316D01*
X0250781Y0327914D02*
X0390701Y0327914D01*
X0390701Y0329513D02*
X0250781Y0329513D01*
X0249873Y0331111D02*
X0390701Y0331111D01*
X0390701Y0332710D02*
X0044137Y0332710D01*
X0045829Y0331111D02*
X0058727Y0331111D01*
X0057819Y0329513D02*
X0046454Y0329513D01*
X0046454Y0327914D02*
X0057819Y0327914D01*
X0057819Y0326316D02*
X0045846Y0326316D01*
X0045868Y0324717D02*
X0057819Y0324717D01*
X0059000Y0323119D02*
X0046454Y0323119D01*
X0046454Y0321520D02*
X0059000Y0321520D01*
X0059000Y0319922D02*
X0045806Y0319922D01*
X0045653Y0318323D02*
X0059000Y0318323D01*
X0059000Y0316725D02*
X0046208Y0316725D01*
X0046254Y0316095D02*
X0041879Y0316095D01*
X0041879Y0316095D01*
X0046254Y0316095D01*
X0046155Y0315126D02*
X0059000Y0315126D01*
X0059000Y0313528D02*
X0045421Y0313528D01*
X0043215Y0311929D02*
X0059000Y0311929D01*
X0059000Y0310331D02*
X0039600Y0310331D01*
X0039600Y0311929D02*
X0040542Y0311929D01*
X0041879Y0311929D02*
X0041879Y0311929D01*
X0041879Y0311720D02*
X0041879Y0316095D01*
X0041879Y0316095D01*
X0041879Y0311720D01*
X0041879Y0313528D02*
X0041879Y0313528D01*
X0041879Y0315126D02*
X0041879Y0315126D01*
X0037154Y0319245D02*
X0036800Y0319245D01*
X0036800Y0292394D01*
X0039600Y0303937D02*
X0059000Y0303937D01*
X0059000Y0305535D02*
X0039600Y0305535D01*
X0039600Y0307134D02*
X0059000Y0307134D01*
X0059000Y0308732D02*
X0039600Y0308732D01*
X0033246Y0316725D02*
X0006600Y0316725D01*
X0006600Y0318323D02*
X0032584Y0318323D01*
X0032580Y0319922D02*
X0006600Y0319922D01*
X0006600Y0321520D02*
X0033145Y0321520D01*
X0033207Y0323119D02*
X0006600Y0323119D01*
X0006600Y0324717D02*
X0032580Y0324717D01*
X0032580Y0326316D02*
X0006600Y0326316D01*
X0006600Y0327914D02*
X0033185Y0327914D01*
X0034782Y0329513D02*
X0024180Y0329513D01*
X0026910Y0331111D02*
X0037929Y0331111D01*
X0039621Y0332710D02*
X0028358Y0332710D01*
X0029020Y0334308D02*
X0390701Y0334308D01*
X0390701Y0335907D02*
X0029410Y0335907D01*
X0029410Y0337505D02*
X0390701Y0337505D01*
X0344908Y0316725D02*
X0308975Y0316725D01*
X0310573Y0315126D02*
X0343310Y0315126D01*
X0342400Y0313528D02*
X0311400Y0313528D01*
X0311400Y0311929D02*
X0342400Y0311929D01*
X0342641Y0310331D02*
X0311242Y0310331D01*
X0309643Y0308732D02*
X0344239Y0308732D01*
X0308392Y0260777D02*
X0279600Y0260777D01*
X0279600Y0259178D02*
X0307819Y0259178D01*
X0307819Y0257580D02*
X0279600Y0257580D01*
X0279600Y0255981D02*
X0307819Y0255981D01*
X0308021Y0254383D02*
X0279600Y0254383D01*
X0279600Y0252784D02*
X0309000Y0252784D01*
X0309000Y0251186D02*
X0279600Y0251186D01*
X0279600Y0249587D02*
X0309000Y0249587D01*
X0309000Y0247989D02*
X0279600Y0247989D01*
X0279600Y0246390D02*
X0309000Y0246390D01*
X0309000Y0244792D02*
X0279600Y0244792D01*
X0279600Y0243193D02*
X0309000Y0243193D01*
X0309000Y0241595D02*
X0279600Y0241595D01*
X0280781Y0239996D02*
X0309000Y0239996D01*
X0309000Y0238398D02*
X0280781Y0238398D01*
X0280781Y0236799D02*
X0309000Y0236799D01*
X0309000Y0235201D02*
X0280781Y0235201D01*
X0279799Y0233602D02*
X0309000Y0233602D01*
X0309000Y0232004D02*
X0189600Y0232004D01*
X0189600Y0233602D02*
X0191487Y0233602D01*
X0191594Y0233495D02*
X0193285Y0232794D01*
X0200315Y0232794D01*
X0202006Y0233495D01*
X0203300Y0234788D01*
X0204000Y0236479D01*
X0204000Y0238309D01*
X0203300Y0240000D01*
X0202006Y0241294D01*
X0200315Y0241994D01*
X0193285Y0241994D01*
X0191594Y0241294D01*
X0190300Y0240000D01*
X0189600Y0238309D01*
X0189600Y0236479D01*
X0190300Y0234788D01*
X0191594Y0233495D01*
X0190130Y0235201D02*
X0189600Y0235201D01*
X0189600Y0236799D02*
X0189600Y0236799D01*
X0189600Y0238398D02*
X0189637Y0238398D01*
X0189600Y0239996D02*
X0190299Y0239996D01*
X0189600Y0241595D02*
X0192321Y0241595D01*
X0193285Y0242794D02*
X0191594Y0243495D01*
X0190300Y0244788D01*
X0189600Y0246479D01*
X0189600Y0248309D01*
X0190300Y0250000D01*
X0191594Y0251294D01*
X0193285Y0251994D01*
X0200315Y0251994D01*
X0202006Y0251294D01*
X0203300Y0250000D01*
X0204000Y0248309D01*
X0204000Y0246479D01*
X0203300Y0244788D01*
X0202006Y0243495D01*
X0200315Y0242794D01*
X0193285Y0242794D01*
X0192322Y0243193D02*
X0189600Y0243193D01*
X0189600Y0244792D02*
X0190299Y0244792D01*
X0189637Y0246390D02*
X0189600Y0246390D01*
X0189600Y0247989D02*
X0189600Y0247989D01*
X0189600Y0249587D02*
X0190129Y0249587D01*
X0189600Y0251186D02*
X0191486Y0251186D01*
X0191594Y0253495D02*
X0193285Y0252794D01*
X0200315Y0252794D01*
X0202006Y0253495D01*
X0203300Y0254788D01*
X0204000Y0256479D01*
X0204000Y0258309D01*
X0203300Y0260000D01*
X0202006Y0261294D01*
X0200315Y0261994D01*
X0193285Y0261994D01*
X0191594Y0261294D01*
X0190300Y0260000D01*
X0189600Y0258309D01*
X0189600Y0256479D01*
X0190300Y0254788D01*
X0191594Y0253495D01*
X0190706Y0254383D02*
X0189600Y0254383D01*
X0189600Y0255981D02*
X0189806Y0255981D01*
X0189600Y0257580D02*
X0189600Y0257580D01*
X0189600Y0259178D02*
X0189960Y0259178D01*
X0189600Y0260777D02*
X0191077Y0260777D01*
X0189600Y0262375D02*
X0224000Y0262375D01*
X0224000Y0261994D02*
X0223285Y0261994D01*
X0221594Y0261294D01*
X0220300Y0260000D01*
X0219600Y0258309D01*
X0219600Y0256479D01*
X0220300Y0254788D01*
X0221594Y0253495D01*
X0223285Y0252794D01*
X0230315Y0252794D01*
X0232006Y0253495D01*
X0233300Y0254788D01*
X0234000Y0256479D01*
X0234000Y0258309D01*
X0233300Y0260000D01*
X0232006Y0261294D01*
X0230315Y0261994D01*
X0229600Y0261994D01*
X0229600Y0288413D01*
X0229610Y0288413D01*
X0230781Y0289585D01*
X0230781Y0295204D01*
X0229610Y0296375D01*
X0223990Y0296375D01*
X0222819Y0295204D01*
X0222819Y0289585D01*
X0223990Y0288413D01*
X0224000Y0288413D01*
X0224000Y0261994D01*
X0224000Y0263974D02*
X0189600Y0263974D01*
X0189600Y0265572D02*
X0224000Y0265572D01*
X0224000Y0267171D02*
X0189600Y0267171D01*
X0189600Y0268769D02*
X0224000Y0268769D01*
X0224000Y0270368D02*
X0189600Y0270368D01*
X0189600Y0271966D02*
X0224000Y0271966D01*
X0224000Y0273565D02*
X0189600Y0273565D01*
X0189600Y0275163D02*
X0224000Y0275163D01*
X0224000Y0276762D02*
X0189600Y0276762D01*
X0189600Y0278360D02*
X0224000Y0278360D01*
X0224000Y0279959D02*
X0189600Y0279959D01*
X0189600Y0281557D02*
X0224000Y0281557D01*
X0224000Y0283156D02*
X0189600Y0283156D01*
X0189600Y0284755D02*
X0224000Y0284755D01*
X0224000Y0286353D02*
X0189600Y0286353D01*
X0189600Y0287952D02*
X0224000Y0287952D01*
X0222854Y0289550D02*
X0189600Y0289550D01*
X0189600Y0291149D02*
X0222819Y0291149D01*
X0222819Y0292747D02*
X0189600Y0292747D01*
X0189600Y0294346D02*
X0222819Y0294346D01*
X0223559Y0295944D02*
X0189600Y0295944D01*
X0189600Y0297543D02*
X0244000Y0297543D01*
X0244000Y0299141D02*
X0189600Y0299141D01*
X0189600Y0300740D02*
X0244000Y0300740D01*
X0244000Y0302338D02*
X0189600Y0302338D01*
X0189600Y0303937D02*
X0244000Y0303937D01*
X0244000Y0305535D02*
X0189600Y0305535D01*
X0189600Y0307134D02*
X0244000Y0307134D01*
X0244000Y0308732D02*
X0189600Y0308732D01*
X0189600Y0310331D02*
X0244000Y0310331D01*
X0244000Y0311929D02*
X0189600Y0311929D01*
X0189600Y0313528D02*
X0244000Y0313528D01*
X0244000Y0315126D02*
X0189600Y0315126D01*
X0189600Y0316725D02*
X0244000Y0316725D01*
X0244000Y0318323D02*
X0189600Y0318323D01*
X0189600Y0319922D02*
X0244000Y0319922D01*
X0244000Y0321520D02*
X0189600Y0321520D01*
X0189531Y0323119D02*
X0204853Y0323119D01*
X0204977Y0322994D02*
X0206800Y0322994D01*
X0208623Y0322994D01*
X0211200Y0325572D01*
X0211200Y0327394D01*
X0206800Y0327394D01*
X0206800Y0322994D01*
X0206800Y0327394D01*
X0206800Y0327394D01*
X0206800Y0327394D01*
X0202400Y0327394D01*
X0202400Y0325572D01*
X0204977Y0322994D01*
X0206800Y0323119D02*
X0206800Y0323119D01*
X0206800Y0324717D02*
X0206800Y0324717D01*
X0206800Y0326316D02*
X0206800Y0326316D01*
X0206800Y0327394D02*
X0206800Y0327394D01*
X0211200Y0327394D01*
X0211200Y0329217D01*
X0208623Y0331794D01*
X0206800Y0331794D01*
X0206800Y0327394D01*
X0202400Y0327394D01*
X0202400Y0329217D01*
X0204977Y0331794D01*
X0206800Y0331794D01*
X0206800Y0327394D01*
X0206800Y0327394D01*
X0206800Y0327914D02*
X0206800Y0327914D01*
X0206800Y0329513D02*
X0206800Y0329513D01*
X0206800Y0331111D02*
X0206800Y0331111D01*
X0209305Y0331111D02*
X0224012Y0331111D01*
X0224194Y0331294D02*
X0222900Y0330000D01*
X0222200Y0328309D01*
X0222200Y0326479D01*
X0222900Y0324788D01*
X0224194Y0323495D01*
X0225885Y0322794D01*
X0227715Y0322794D01*
X0229406Y0323495D01*
X0230700Y0324788D01*
X0231400Y0326479D01*
X0231400Y0328309D01*
X0230700Y0330000D01*
X0229406Y0331294D01*
X0227715Y0331994D01*
X0225885Y0331994D01*
X0224194Y0331294D01*
X0222699Y0329513D02*
X0210904Y0329513D01*
X0211200Y0327914D02*
X0222200Y0327914D01*
X0222268Y0326316D02*
X0211200Y0326316D01*
X0210346Y0324717D02*
X0222972Y0324717D01*
X0225101Y0323119D02*
X0208747Y0323119D01*
X0203254Y0324717D02*
X0188437Y0324717D01*
X0184669Y0326316D02*
X0202400Y0326316D01*
X0202400Y0327914D02*
X0065781Y0327914D01*
X0065781Y0326316D02*
X0178931Y0326316D01*
X0177819Y0324717D02*
X0065781Y0324717D01*
X0064600Y0323119D02*
X0177819Y0323119D01*
X0177819Y0321520D02*
X0064600Y0321520D01*
X0064600Y0319922D02*
X0092819Y0319922D01*
X0092819Y0318323D02*
X0064600Y0318323D01*
X0064600Y0316725D02*
X0092819Y0316725D01*
X0092819Y0315126D02*
X0064600Y0315126D01*
X0064600Y0313528D02*
X0093876Y0313528D01*
X0094446Y0311929D02*
X0064600Y0311929D01*
X0064600Y0310331D02*
X0094579Y0310331D01*
X0094712Y0308732D02*
X0064600Y0308732D01*
X0064600Y0307134D02*
X0094845Y0307134D01*
X0094979Y0305535D02*
X0064600Y0305535D01*
X0064600Y0303937D02*
X0095112Y0303937D01*
X0095245Y0302338D02*
X0064600Y0302338D01*
X0064600Y0300740D02*
X0095378Y0300740D01*
X0095511Y0299141D02*
X0064600Y0299141D01*
X0064600Y0297543D02*
X0095645Y0297543D01*
X0095778Y0295944D02*
X0064600Y0295944D01*
X0064600Y0294346D02*
X0095911Y0294346D01*
X0096044Y0292747D02*
X0064600Y0292747D01*
X0064600Y0291149D02*
X0096177Y0291149D01*
X0103395Y0271966D02*
X0184000Y0271966D01*
X0184000Y0270368D02*
X0103529Y0270368D01*
X0103662Y0268769D02*
X0184000Y0268769D01*
X0184000Y0267171D02*
X0103795Y0267171D01*
X0103928Y0265572D02*
X0184000Y0265572D01*
X0184000Y0263974D02*
X0104061Y0263974D01*
X0104195Y0262375D02*
X0184000Y0262375D01*
X0184000Y0260777D02*
X0104328Y0260777D01*
X0104461Y0259178D02*
X0184000Y0259178D01*
X0184000Y0257580D02*
X0104594Y0257580D01*
X0104727Y0255981D02*
X0184000Y0255981D01*
X0184000Y0254383D02*
X0104861Y0254383D01*
X0099774Y0247989D02*
X0059896Y0247989D01*
X0061763Y0249587D02*
X0099641Y0249587D01*
X0099508Y0251186D02*
X0062425Y0251186D01*
X0062517Y0252784D02*
X0099374Y0252784D01*
X0099241Y0254383D02*
X0062102Y0254383D01*
X0060987Y0255981D02*
X0099108Y0255981D01*
X0121800Y0247394D02*
X0121800Y0227394D01*
X0101639Y0225610D02*
X0024600Y0225610D01*
X0024600Y0227208D02*
X0101506Y0227208D01*
X0101373Y0228807D02*
X0024600Y0228807D01*
X0024600Y0230405D02*
X0101239Y0230405D01*
X0101106Y0232004D02*
X0024600Y0232004D01*
X0024600Y0233602D02*
X0100973Y0233602D01*
X0101772Y0224011D02*
X0024600Y0224011D01*
X0024600Y0222413D02*
X0101905Y0222413D01*
X0102039Y0220814D02*
X0024600Y0220814D01*
X0024600Y0219216D02*
X0102172Y0219216D01*
X0102305Y0217617D02*
X0024600Y0217617D01*
X0024600Y0216019D02*
X0102438Y0216019D01*
X0102571Y0214420D02*
X0024600Y0214420D01*
X0024600Y0212822D02*
X0102705Y0212822D01*
X0102838Y0211223D02*
X0024600Y0211223D01*
X0024600Y0209624D02*
X0102971Y0209624D01*
X0103104Y0208026D02*
X0024600Y0208026D01*
X0024600Y0206427D02*
X0103238Y0206427D01*
X0103371Y0204829D02*
X0024600Y0204829D01*
X0024600Y0203230D02*
X0103504Y0203230D01*
X0103637Y0201632D02*
X0024600Y0201632D01*
X0024600Y0200033D02*
X0028809Y0200033D01*
X0028425Y0199649D02*
X0027819Y0198186D01*
X0027819Y0196602D01*
X0028425Y0195139D01*
X0029545Y0194019D01*
X0031008Y0193413D01*
X0032592Y0193413D01*
X0034055Y0194019D01*
X0034630Y0194594D01*
X0089000Y0194594D01*
X0089000Y0181837D01*
X0089426Y0180808D01*
X0090214Y0180020D01*
X0091243Y0179594D01*
X0169000Y0179594D01*
X0169000Y0170224D01*
X0168425Y0169649D01*
X0167819Y0168186D01*
X0167819Y0167805D01*
X0165781Y0171201D01*
X0165781Y0175204D01*
X0164610Y0176375D01*
X0158990Y0176375D01*
X0157819Y0175204D01*
X0157819Y0169585D01*
X0158990Y0168413D01*
X0160923Y0168413D01*
X0172819Y0148587D01*
X0172819Y0144585D01*
X0173990Y0143413D01*
X0179610Y0143413D01*
X0180781Y0144585D01*
X0180781Y0150204D01*
X0179610Y0151375D01*
X0177677Y0151375D01*
X0170271Y0163719D01*
X0171008Y0163413D01*
X0172592Y0163413D01*
X0174055Y0164019D01*
X0175175Y0165139D01*
X0175781Y0166602D01*
X0175781Y0168186D01*
X0175175Y0169649D01*
X0174600Y0170224D01*
X0174600Y0182951D01*
X0174174Y0183980D01*
X0173386Y0184768D01*
X0172357Y0185194D01*
X0094600Y0185194D01*
X0094600Y0197951D01*
X0094174Y0198980D01*
X0093386Y0199768D01*
X0092357Y0200194D01*
X0034630Y0200194D01*
X0034055Y0200769D01*
X0032592Y0201375D01*
X0031008Y0201375D01*
X0029545Y0200769D01*
X0028425Y0199649D01*
X0027922Y0198435D02*
X0024600Y0198435D01*
X0024600Y0196836D02*
X0027819Y0196836D01*
X0028384Y0195238D02*
X0024600Y0195238D01*
X0024600Y0193639D02*
X0030462Y0193639D01*
X0033138Y0193639D02*
X0089000Y0193639D01*
X0089000Y0192041D02*
X0024600Y0192041D01*
X0024600Y0190442D02*
X0073058Y0190442D01*
X0072819Y0190204D02*
X0072819Y0184585D01*
X0073990Y0183413D01*
X0074000Y0183413D01*
X0074000Y0176837D01*
X0074426Y0175808D01*
X0075214Y0175020D01*
X0076243Y0174594D01*
X0084000Y0174594D01*
X0084000Y0161375D01*
X0083990Y0161375D01*
X0082819Y0160204D01*
X0082819Y0154585D01*
X0083990Y0153413D01*
X0089610Y0153413D01*
X0090781Y0154585D01*
X0090781Y0160204D01*
X0089610Y0161375D01*
X0089600Y0161375D01*
X0089600Y0177951D01*
X0089174Y0178980D01*
X0088386Y0179768D01*
X0087357Y0180194D01*
X0079600Y0180194D01*
X0079600Y0183413D01*
X0079610Y0183413D01*
X0080781Y0184585D01*
X0080781Y0190204D01*
X0079610Y0191375D01*
X0073990Y0191375D01*
X0072819Y0190204D01*
X0072819Y0188844D02*
X0024600Y0188844D01*
X0024600Y0187245D02*
X0072819Y0187245D01*
X0072819Y0185647D02*
X0024600Y0185647D01*
X0024600Y0184048D02*
X0073355Y0184048D01*
X0074000Y0182450D02*
X0024600Y0182450D01*
X0024600Y0180851D02*
X0074000Y0180851D01*
X0074000Y0179253D02*
X0024600Y0179253D01*
X0024600Y0177654D02*
X0074000Y0177654D01*
X0074324Y0176056D02*
X0024600Y0176056D01*
X0024600Y0174457D02*
X0084000Y0174457D01*
X0084000Y0172859D02*
X0024600Y0172859D01*
X0024600Y0171260D02*
X0073875Y0171260D01*
X0073990Y0171375D02*
X0072819Y0170204D01*
X0072819Y0164585D01*
X0073990Y0163413D01*
X0074000Y0163413D01*
X0074000Y0141837D01*
X0074426Y0140808D01*
X0075214Y0140020D01*
X0076243Y0139594D01*
X0099904Y0139594D01*
X0107819Y0119808D01*
X0107819Y0114585D01*
X0108990Y0113413D01*
X0114610Y0113413D01*
X0115781Y0114585D01*
X0115781Y0120204D01*
X0114610Y0121375D01*
X0113223Y0121375D01*
X0104600Y0142933D01*
X0104600Y0142951D01*
X0104393Y0143450D01*
X0104193Y0143951D01*
X0104180Y0143964D01*
X0104174Y0143980D01*
X0103792Y0144362D01*
X0103415Y0144748D01*
X0103399Y0144755D01*
X0103386Y0144768D01*
X0102887Y0144975D01*
X0102391Y0145187D01*
X0102373Y0145187D01*
X0102357Y0145194D01*
X0101817Y0145194D01*
X0101277Y0145201D01*
X0101261Y0145194D01*
X0079600Y0145194D01*
X0079600Y0163413D01*
X0079610Y0163413D01*
X0080781Y0164585D01*
X0080781Y0170204D01*
X0079610Y0171375D01*
X0073990Y0171375D01*
X0072819Y0169662D02*
X0024600Y0169662D01*
X0024600Y0168063D02*
X0072819Y0168063D01*
X0072819Y0166465D02*
X0024600Y0166465D01*
X0024600Y0164866D02*
X0032819Y0164866D01*
X0032819Y0165204D02*
X0032819Y0159585D01*
X0033990Y0158413D01*
X0034000Y0158413D01*
X0034000Y0096837D01*
X0034426Y0095808D01*
X0035214Y0095020D01*
X0036243Y0094594D01*
X0107819Y0094594D01*
X0107819Y0094585D01*
X0108990Y0093413D01*
X0114610Y0093413D01*
X0115781Y0094585D01*
X0115781Y0100204D01*
X0114610Y0101375D01*
X0108990Y0101375D01*
X0107819Y0100204D01*
X0107819Y0100194D01*
X0039600Y0100194D01*
X0039600Y0158413D01*
X0039610Y0158413D01*
X0040781Y0159585D01*
X0040781Y0165204D01*
X0039610Y0166375D01*
X0033990Y0166375D01*
X0032819Y0165204D01*
X0032819Y0163268D02*
X0024600Y0163268D01*
X0024600Y0161669D02*
X0032819Y0161669D01*
X0032819Y0160071D02*
X0024600Y0160071D01*
X0024600Y0158472D02*
X0033931Y0158472D01*
X0034000Y0156874D02*
X0024600Y0156874D01*
X0024600Y0155275D02*
X0034000Y0155275D01*
X0034000Y0153677D02*
X0024600Y0153677D01*
X0024600Y0152078D02*
X0034000Y0152078D01*
X0034000Y0150480D02*
X0024600Y0150480D01*
X0024600Y0148881D02*
X0034000Y0148881D01*
X0034000Y0147283D02*
X0024600Y0147283D01*
X0024600Y0145684D02*
X0034000Y0145684D01*
X0034000Y0144086D02*
X0024600Y0144086D01*
X0024600Y0142487D02*
X0034000Y0142487D01*
X0034000Y0140888D02*
X0024600Y0140888D01*
X0024600Y0139290D02*
X0034000Y0139290D01*
X0034000Y0137691D02*
X0024600Y0137691D01*
X0024600Y0136093D02*
X0034000Y0136093D01*
X0034000Y0134494D02*
X0024600Y0134494D01*
X0024600Y0132896D02*
X0034000Y0132896D01*
X0034000Y0131297D02*
X0024600Y0131297D01*
X0024600Y0129699D02*
X0034000Y0129699D01*
X0034000Y0128100D02*
X0024600Y0128100D01*
X0024600Y0126502D02*
X0034000Y0126502D01*
X0034000Y0124903D02*
X0024600Y0124903D01*
X0024600Y0123305D02*
X0034000Y0123305D01*
X0034000Y0121706D02*
X0024600Y0121706D01*
X0024600Y0120108D02*
X0034000Y0120108D01*
X0034000Y0118509D02*
X0024600Y0118509D01*
X0024600Y0116911D02*
X0034000Y0116911D01*
X0034000Y0115312D02*
X0024600Y0115312D01*
X0024600Y0113714D02*
X0034000Y0113714D01*
X0034000Y0112115D02*
X0024600Y0112115D01*
X0024600Y0110517D02*
X0034000Y0110517D01*
X0034000Y0108918D02*
X0024600Y0108918D01*
X0024600Y0107320D02*
X0034000Y0107320D01*
X0034000Y0105721D02*
X0024600Y0105721D01*
X0024600Y0104123D02*
X0034000Y0104123D01*
X0034000Y0102524D02*
X0024600Y0102524D01*
X0024600Y0100926D02*
X0034000Y0100926D01*
X0034000Y0099327D02*
X0024600Y0099327D01*
X0024600Y0097729D02*
X0034000Y0097729D01*
X0034293Y0096130D02*
X0024600Y0096130D01*
X0024600Y0094532D02*
X0107872Y0094532D01*
X0111800Y0097394D02*
X0036800Y0097394D01*
X0036800Y0162394D01*
X0040781Y0161669D02*
X0074000Y0161669D01*
X0074000Y0160071D02*
X0040781Y0160071D01*
X0039669Y0158472D02*
X0074000Y0158472D01*
X0074000Y0156874D02*
X0060382Y0156874D01*
X0060029Y0157226D02*
X0057934Y0158094D01*
X0055666Y0158094D01*
X0053571Y0157226D01*
X0051968Y0155623D01*
X0051790Y0155194D01*
X0049630Y0155194D01*
X0049055Y0155769D01*
X0047592Y0156375D01*
X0046008Y0156375D01*
X0044545Y0155769D01*
X0043425Y0154649D01*
X0042819Y0153186D01*
X0042819Y0151602D01*
X0043425Y0150139D01*
X0044545Y0149019D01*
X0046008Y0148413D01*
X0047592Y0148413D01*
X0049055Y0149019D01*
X0049630Y0149594D01*
X0051790Y0149594D01*
X0051968Y0149165D01*
X0053571Y0147562D01*
X0055666Y0146694D01*
X0057934Y0146694D01*
X0060029Y0147562D01*
X0061632Y0149165D01*
X0062500Y0151260D01*
X0062500Y0153528D01*
X0061632Y0155623D01*
X0060029Y0157226D01*
X0061776Y0155275D02*
X0074000Y0155275D01*
X0074000Y0153677D02*
X0062438Y0153677D01*
X0062500Y0152078D02*
X0074000Y0152078D01*
X0074000Y0150480D02*
X0062177Y0150480D01*
X0061348Y0148881D02*
X0074000Y0148881D01*
X0074000Y0147283D02*
X0059354Y0147283D01*
X0054246Y0147283D02*
X0039600Y0147283D01*
X0039600Y0148881D02*
X0044878Y0148881D01*
X0043284Y0150480D02*
X0039600Y0150480D01*
X0039600Y0152078D02*
X0042819Y0152078D01*
X0043022Y0153677D02*
X0039600Y0153677D01*
X0039600Y0155275D02*
X0044051Y0155275D01*
X0046800Y0152394D02*
X0056800Y0152394D01*
X0053218Y0156874D02*
X0039600Y0156874D01*
X0040781Y0163268D02*
X0074000Y0163268D01*
X0072819Y0164866D02*
X0040781Y0164866D01*
X0049549Y0155275D02*
X0051824Y0155275D01*
X0052252Y0148881D02*
X0048722Y0148881D01*
X0039600Y0145684D02*
X0074000Y0145684D01*
X0074000Y0144086D02*
X0039600Y0144086D01*
X0039600Y0142487D02*
X0074000Y0142487D01*
X0074393Y0140888D02*
X0039600Y0140888D01*
X0039600Y0139290D02*
X0100026Y0139290D01*
X0100665Y0137691D02*
X0058295Y0137691D01*
X0058088Y0137759D02*
X0057233Y0137894D01*
X0057000Y0137894D01*
X0057000Y0132594D01*
X0062300Y0132594D01*
X0062300Y0132827D01*
X0062165Y0133682D01*
X0061897Y0134505D01*
X0061504Y0135277D01*
X0060995Y0135977D01*
X0060383Y0136589D01*
X0059683Y0137098D01*
X0058911Y0137491D01*
X0058088Y0137759D01*
X0057000Y0137691D02*
X0056600Y0137691D01*
X0056600Y0137894D02*
X0056367Y0137894D01*
X0055512Y0137759D01*
X0054689Y0137491D01*
X0053917Y0137098D01*
X0053217Y0136589D01*
X0052605Y0135977D01*
X0052096Y0135277D01*
X0051703Y0134505D01*
X0051435Y0133682D01*
X0051300Y0132827D01*
X0051300Y0132594D01*
X0056600Y0132594D01*
X0056600Y0132194D01*
X0057000Y0132194D01*
X0057000Y0126894D01*
X0057233Y0126894D01*
X0058088Y0127030D01*
X0058911Y0127297D01*
X0059683Y0127690D01*
X0060383Y0128199D01*
X0060995Y0128811D01*
X0061504Y0129512D01*
X0061897Y0130283D01*
X0062165Y0131106D01*
X0062300Y0131961D01*
X0062300Y0132194D01*
X0057000Y0132194D01*
X0057000Y0132594D01*
X0056600Y0132594D01*
X0056600Y0137894D01*
X0055305Y0137691D02*
X0039600Y0137691D01*
X0039600Y0136093D02*
X0052721Y0136093D01*
X0051699Y0134494D02*
X0039600Y0134494D01*
X0039600Y0132896D02*
X0051311Y0132896D01*
X0051300Y0132194D02*
X0051300Y0131961D01*
X0051435Y0131106D01*
X0051703Y0130283D01*
X0052096Y0129512D01*
X0052605Y0128811D01*
X0053217Y0128199D01*
X0053917Y0127690D01*
X0054689Y0127297D01*
X0055512Y0127030D01*
X0056367Y0126894D01*
X0056600Y0126894D01*
X0056600Y0132194D01*
X0051300Y0132194D01*
X0051405Y0131297D02*
X0039600Y0131297D01*
X0039600Y0129699D02*
X0052001Y0129699D01*
X0053353Y0128100D02*
X0039600Y0128100D01*
X0039600Y0126502D02*
X0092400Y0126502D01*
X0092400Y0127394D02*
X0092400Y0125572D01*
X0094977Y0122994D01*
X0096800Y0122994D01*
X0098623Y0122994D01*
X0101200Y0125572D01*
X0101200Y0127394D01*
X0096800Y0127394D01*
X0096800Y0122994D01*
X0096800Y0127394D01*
X0096800Y0127394D01*
X0092400Y0127394D01*
X0096800Y0127394D01*
X0096800Y0127394D01*
X0096800Y0127394D01*
X0101200Y0127394D01*
X0101200Y0129217D01*
X0098623Y0131794D01*
X0096800Y0131794D01*
X0096800Y0127394D01*
X0096800Y0131794D01*
X0094977Y0131794D01*
X0092400Y0129217D01*
X0092400Y0127394D01*
X0092400Y0128100D02*
X0060247Y0128100D01*
X0061599Y0129699D02*
X0092882Y0129699D01*
X0094481Y0131297D02*
X0062195Y0131297D01*
X0062289Y0132896D02*
X0102584Y0132896D01*
X0103223Y0131297D02*
X0099119Y0131297D01*
X0100718Y0129699D02*
X0103862Y0129699D01*
X0104502Y0128100D02*
X0101200Y0128100D01*
X0101200Y0126502D02*
X0105141Y0126502D01*
X0105781Y0124903D02*
X0100532Y0124903D01*
X0098933Y0123305D02*
X0106420Y0123305D01*
X0107059Y0121706D02*
X0039600Y0121706D01*
X0039600Y0120108D02*
X0107699Y0120108D01*
X0107819Y0118509D02*
X0039600Y0118509D01*
X0039600Y0116911D02*
X0107819Y0116911D01*
X0107819Y0115312D02*
X0039600Y0115312D01*
X0039600Y0113714D02*
X0108690Y0113714D01*
X0111800Y0117394D02*
X0101800Y0142394D01*
X0076800Y0142394D01*
X0076800Y0167394D01*
X0080781Y0168063D02*
X0084000Y0168063D01*
X0084000Y0166465D02*
X0080781Y0166465D01*
X0080781Y0164866D02*
X0084000Y0164866D01*
X0084000Y0163268D02*
X0079600Y0163268D01*
X0079600Y0161669D02*
X0084000Y0161669D01*
X0082819Y0160071D02*
X0079600Y0160071D01*
X0079600Y0158472D02*
X0082819Y0158472D01*
X0082819Y0156874D02*
X0079600Y0156874D01*
X0079600Y0155275D02*
X0082819Y0155275D01*
X0083727Y0153677D02*
X0079600Y0153677D01*
X0079600Y0152078D02*
X0117200Y0152078D01*
X0117200Y0150489D02*
X0117200Y0154300D01*
X0119895Y0156994D01*
X0123705Y0156994D01*
X0126400Y0154300D01*
X0126400Y0150489D01*
X0124600Y0148689D01*
X0124600Y0086375D01*
X0124610Y0086375D01*
X0125781Y0085204D01*
X0125781Y0079585D01*
X0124610Y0078413D01*
X0118990Y0078413D01*
X0117819Y0079585D01*
X0117819Y0085204D01*
X0118990Y0086375D01*
X0119000Y0086375D01*
X0119000Y0148689D01*
X0117200Y0150489D01*
X0117209Y0150480D02*
X0079600Y0150480D01*
X0079600Y0148881D02*
X0118808Y0148881D01*
X0119000Y0147283D02*
X0079600Y0147283D01*
X0079600Y0145684D02*
X0119000Y0145684D01*
X0119000Y0144086D02*
X0104068Y0144086D01*
X0104779Y0142487D02*
X0119000Y0142487D01*
X0119000Y0140888D02*
X0105418Y0140888D01*
X0106057Y0139290D02*
X0119000Y0139290D01*
X0119000Y0137691D02*
X0106697Y0137691D01*
X0107336Y0136093D02*
X0119000Y0136093D01*
X0119000Y0134494D02*
X0107976Y0134494D01*
X0108615Y0132896D02*
X0119000Y0132896D01*
X0119000Y0131297D02*
X0109254Y0131297D01*
X0109894Y0129699D02*
X0119000Y0129699D01*
X0119000Y0128100D02*
X0110533Y0128100D01*
X0111173Y0126502D02*
X0119000Y0126502D01*
X0119000Y0124903D02*
X0111812Y0124903D01*
X0112451Y0123305D02*
X0119000Y0123305D01*
X0119000Y0121706D02*
X0113091Y0121706D01*
X0115781Y0120108D02*
X0119000Y0120108D01*
X0119000Y0118509D02*
X0115781Y0118509D01*
X0115781Y0116911D02*
X0119000Y0116911D01*
X0119000Y0115312D02*
X0115781Y0115312D01*
X0114910Y0113714D02*
X0119000Y0113714D01*
X0119000Y0112115D02*
X0039600Y0112115D01*
X0039600Y0110517D02*
X0068700Y0110517D01*
X0069977Y0111794D02*
X0067400Y0109217D01*
X0067400Y0107394D01*
X0067400Y0105572D01*
X0069977Y0102994D01*
X0071800Y0102994D01*
X0073623Y0102994D01*
X0076200Y0105572D01*
X0076200Y0107394D01*
X0071800Y0107394D01*
X0071800Y0102994D01*
X0071800Y0107394D01*
X0071800Y0107394D01*
X0067400Y0107394D01*
X0071800Y0107394D01*
X0071800Y0107394D01*
X0071800Y0107394D01*
X0076200Y0107394D01*
X0076200Y0109217D01*
X0073623Y0111794D01*
X0071800Y0111794D01*
X0071800Y0107394D01*
X0071800Y0111794D01*
X0069977Y0111794D01*
X0071800Y0110517D02*
X0071800Y0110517D01*
X0071800Y0108918D02*
X0071800Y0108918D01*
X0071800Y0107394D02*
X0071800Y0107394D01*
X0071800Y0107320D02*
X0071800Y0107320D01*
X0071800Y0105721D02*
X0071800Y0105721D01*
X0071800Y0104123D02*
X0071800Y0104123D01*
X0074751Y0104123D02*
X0093566Y0104123D01*
X0094194Y0103495D02*
X0095885Y0102794D01*
X0097715Y0102794D01*
X0099406Y0103495D01*
X0100700Y0104788D01*
X0101400Y0106479D01*
X0101400Y0108309D01*
X0100700Y0110000D01*
X0099406Y0111294D01*
X0097715Y0111994D01*
X0095885Y0111994D01*
X0094194Y0111294D01*
X0092900Y0110000D01*
X0092200Y0108309D01*
X0092200Y0106479D01*
X0092900Y0104788D01*
X0094194Y0103495D01*
X0092514Y0105721D02*
X0076200Y0105721D01*
X0076200Y0107320D02*
X0092200Y0107320D01*
X0092452Y0108918D02*
X0076200Y0108918D01*
X0074900Y0110517D02*
X0093417Y0110517D01*
X0100183Y0110517D02*
X0119000Y0110517D01*
X0119000Y0108918D02*
X0101148Y0108918D01*
X0101400Y0107320D02*
X0119000Y0107320D01*
X0119000Y0105721D02*
X0101086Y0105721D01*
X0100034Y0104123D02*
X0119000Y0104123D01*
X0119000Y0102524D02*
X0039600Y0102524D01*
X0039600Y0100926D02*
X0108541Y0100926D01*
X0115059Y0100926D02*
X0119000Y0100926D01*
X0119000Y0099327D02*
X0115781Y0099327D01*
X0115781Y0097729D02*
X0119000Y0097729D01*
X0119000Y0096130D02*
X0115781Y0096130D01*
X0115728Y0094532D02*
X0119000Y0094532D01*
X0119000Y0092933D02*
X0024600Y0092933D01*
X0024600Y0091335D02*
X0069293Y0091335D01*
X0069194Y0091294D02*
X0067900Y0090000D01*
X0067200Y0088309D01*
X0067200Y0088225D01*
X0043501Y0076375D01*
X0038990Y0076375D01*
X0037819Y0075204D01*
X0037819Y0069585D01*
X0038990Y0068413D01*
X0044610Y0068413D01*
X0045781Y0069585D01*
X0045781Y0071254D01*
X0069778Y0083253D01*
X0070885Y0082794D01*
X0072715Y0082794D01*
X0074406Y0083495D01*
X0075700Y0084788D01*
X0076400Y0086479D01*
X0076400Y0088309D01*
X0075700Y0090000D01*
X0074406Y0091294D01*
X0072715Y0091994D01*
X0070885Y0091994D01*
X0069194Y0091294D01*
X0067791Y0089736D02*
X0024600Y0089736D01*
X0024600Y0088138D02*
X0067026Y0088138D01*
X0063829Y0086539D02*
X0024600Y0086539D01*
X0024600Y0084941D02*
X0060632Y0084941D01*
X0057435Y0083342D02*
X0024600Y0083342D01*
X0024600Y0081744D02*
X0054238Y0081744D01*
X0051041Y0080145D02*
X0024600Y0080145D01*
X0024600Y0078547D02*
X0047844Y0078547D01*
X0044647Y0076948D02*
X0024600Y0076948D01*
X0024600Y0075350D02*
X0037965Y0075350D01*
X0037819Y0073751D02*
X0024600Y0073751D01*
X0024600Y0072153D02*
X0037819Y0072153D01*
X0037819Y0070554D02*
X0024600Y0070554D01*
X0021800Y0067394D02*
X0021800Y0237394D01*
X0036800Y0237394D01*
X0031126Y0241595D02*
X0015660Y0241595D01*
X0015660Y0243193D02*
X0031126Y0243193D01*
X0031126Y0244792D02*
X0016892Y0244792D01*
X0017500Y0246390D02*
X0031126Y0246390D01*
X0031126Y0247989D02*
X0028400Y0247989D01*
X0023704Y0247989D02*
X0017500Y0247989D01*
X0017061Y0249587D02*
X0021837Y0249587D01*
X0021175Y0251186D02*
X0016069Y0251186D01*
X0016892Y0239996D02*
X0020765Y0239996D01*
X0019185Y0238398D02*
X0017500Y0238398D01*
X0017500Y0236799D02*
X0019000Y0236799D01*
X0019000Y0235201D02*
X0017061Y0235201D01*
X0016069Y0233602D02*
X0019000Y0233602D01*
X0019000Y0232004D02*
X0015252Y0232004D01*
X0016722Y0230405D02*
X0019000Y0230405D01*
X0019000Y0228807D02*
X0017385Y0228807D01*
X0017500Y0227208D02*
X0019000Y0227208D01*
X0019000Y0225610D02*
X0017230Y0225610D01*
X0016478Y0224011D02*
X0019000Y0224011D01*
X0019000Y0222413D02*
X0014668Y0222413D01*
X0016441Y0220814D02*
X0019000Y0220814D01*
X0019000Y0219216D02*
X0017215Y0219216D01*
X0017500Y0217617D02*
X0019000Y0217617D01*
X0019000Y0216019D02*
X0017400Y0216019D01*
X0016738Y0214420D02*
X0019000Y0214420D01*
X0019000Y0212822D02*
X0015288Y0212822D01*
X0016032Y0211223D02*
X0019000Y0211223D01*
X0019000Y0209624D02*
X0017046Y0209624D01*
X0017500Y0208026D02*
X0019000Y0208026D01*
X0019000Y0206427D02*
X0017500Y0206427D01*
X0016907Y0204829D02*
X0019000Y0204829D01*
X0019000Y0203230D02*
X0015697Y0203230D01*
X0015623Y0201632D02*
X0019000Y0201632D01*
X0019000Y0200033D02*
X0016876Y0200033D01*
X0017500Y0198435D02*
X0019000Y0198435D01*
X0019000Y0196836D02*
X0017500Y0196836D01*
X0017076Y0195238D02*
X0019000Y0195238D01*
X0019000Y0193639D02*
X0016106Y0193639D01*
X0015214Y0192041D02*
X0019000Y0192041D01*
X0019000Y0190442D02*
X0016707Y0190442D01*
X0017369Y0188844D02*
X0019000Y0188844D01*
X0019000Y0187245D02*
X0017500Y0187245D01*
X0017246Y0185647D02*
X0019000Y0185647D01*
X0019000Y0184048D02*
X0016515Y0184048D01*
X0014758Y0182450D02*
X0019000Y0182450D01*
X0019000Y0180851D02*
X0016404Y0180851D01*
X0017200Y0179253D02*
X0019000Y0179253D01*
X0019000Y0177654D02*
X0017500Y0177654D01*
X0017415Y0176056D02*
X0019000Y0176056D01*
X0019000Y0174457D02*
X0016753Y0174457D01*
X0015326Y0172859D02*
X0019000Y0172859D01*
X0019000Y0171260D02*
X0015995Y0171260D01*
X0017030Y0169662D02*
X0019000Y0169662D01*
X0019000Y0168063D02*
X0017500Y0168063D01*
X0017500Y0166465D02*
X0019000Y0166465D01*
X0019000Y0164866D02*
X0016922Y0164866D01*
X0015734Y0163268D02*
X0019000Y0163268D01*
X0019000Y0161669D02*
X0015586Y0161669D01*
X0016861Y0160071D02*
X0019000Y0160071D01*
X0019000Y0158472D02*
X0017500Y0158472D01*
X0017500Y0156874D02*
X0019000Y0156874D01*
X0019000Y0155275D02*
X0017092Y0155275D01*
X0016143Y0153677D02*
X0019000Y0153677D01*
X0019000Y0152078D02*
X0014710Y0152078D01*
X0016357Y0150480D02*
X0019000Y0150480D01*
X0019000Y0148881D02*
X0017100Y0148881D01*
X0019000Y0147283D02*
X0012000Y0147283D01*
X0016194Y0144086D02*
X0019000Y0144086D01*
X0019000Y0145684D02*
X0017027Y0145684D01*
X0019000Y0142487D02*
X0014400Y0142487D01*
X0016367Y0140888D02*
X0019000Y0140888D01*
X0019000Y0139290D02*
X0017184Y0139290D01*
X0017500Y0137691D02*
X0019000Y0137691D01*
X0019000Y0136093D02*
X0017431Y0136093D01*
X0016769Y0134494D02*
X0019000Y0134494D01*
X0019000Y0132896D02*
X0015363Y0132896D01*
X0015958Y0131297D02*
X0019000Y0131297D01*
X0019000Y0129699D02*
X0017015Y0129699D01*
X0017500Y0128100D02*
X0019000Y0128100D01*
X0019000Y0126502D02*
X0017500Y0126502D01*
X0016938Y0124903D02*
X0019000Y0124903D01*
X0019000Y0123305D02*
X0015772Y0123305D01*
X0012963Y0121706D02*
X0019000Y0121706D01*
X0019000Y0120108D02*
X0006600Y0120108D01*
X0006600Y0121706D02*
X0010637Y0121706D01*
X0007828Y0123305D02*
X0006600Y0123305D01*
X0006600Y0124903D02*
X0006662Y0124903D01*
X0006600Y0118509D02*
X0019000Y0118509D01*
X0019000Y0116911D02*
X0006600Y0116911D01*
X0006600Y0115312D02*
X0019000Y0115312D01*
X0019000Y0113714D02*
X0006600Y0113714D01*
X0006600Y0112115D02*
X0019000Y0112115D01*
X0019000Y0110517D02*
X0006600Y0110517D01*
X0006600Y0108918D02*
X0019000Y0108918D01*
X0019000Y0107320D02*
X0006600Y0107320D01*
X0006600Y0105721D02*
X0019000Y0105721D01*
X0019000Y0104123D02*
X0006600Y0104123D01*
X0006600Y0102524D02*
X0019000Y0102524D01*
X0019000Y0100926D02*
X0006600Y0100926D01*
X0006600Y0099327D02*
X0019000Y0099327D01*
X0019000Y0097729D02*
X0006600Y0097729D01*
X0006600Y0096130D02*
X0019000Y0096130D01*
X0019000Y0094532D02*
X0006600Y0094532D01*
X0006600Y0092933D02*
X0019000Y0092933D01*
X0019000Y0091335D02*
X0006600Y0091335D01*
X0006600Y0089736D02*
X0019000Y0089736D01*
X0019000Y0088138D02*
X0006600Y0088138D01*
X0006600Y0086539D02*
X0019000Y0086539D01*
X0019000Y0084941D02*
X0006600Y0084941D01*
X0006600Y0083342D02*
X0019000Y0083342D01*
X0019000Y0081744D02*
X0006600Y0081744D01*
X0006600Y0080145D02*
X0019000Y0080145D01*
X0019000Y0078547D02*
X0006600Y0078547D01*
X0006600Y0076948D02*
X0019000Y0076948D01*
X0019000Y0075350D02*
X0015635Y0075350D01*
X0015781Y0075204D02*
X0014610Y0076375D01*
X0008990Y0076375D01*
X0007819Y0075204D01*
X0007819Y0069585D01*
X0008990Y0068413D01*
X0009000Y0068413D01*
X0009000Y0046375D01*
X0008990Y0046375D01*
X0007819Y0045204D01*
X0007819Y0039585D01*
X0008990Y0038413D01*
X0014610Y0038413D01*
X0015781Y0039585D01*
X0015781Y0045204D01*
X0014610Y0046375D01*
X0014600Y0046375D01*
X0014600Y0068413D01*
X0014610Y0068413D01*
X0015781Y0069585D01*
X0015781Y0075204D01*
X0015781Y0073751D02*
X0019000Y0073751D01*
X0019000Y0072153D02*
X0015781Y0072153D01*
X0015781Y0070554D02*
X0019000Y0070554D01*
X0019000Y0068955D02*
X0015152Y0068955D01*
X0014600Y0067357D02*
X0019000Y0067357D01*
X0019476Y0065758D02*
X0014600Y0065758D01*
X0014600Y0064160D02*
X0029000Y0064160D01*
X0029000Y0062561D02*
X0014600Y0062561D01*
X0014600Y0060963D02*
X0029000Y0060963D01*
X0029000Y0059364D02*
X0014600Y0059364D01*
X0014600Y0057766D02*
X0029000Y0057766D01*
X0029000Y0056167D02*
X0024249Y0056167D01*
X0023623Y0056794D02*
X0026200Y0054217D01*
X0026200Y0052394D01*
X0021800Y0052394D01*
X0021800Y0052394D01*
X0021800Y0047994D01*
X0019977Y0047994D01*
X0017400Y0050572D01*
X0017400Y0052394D01*
X0021800Y0052394D01*
X0021800Y0052394D01*
X0021800Y0052394D01*
X0017400Y0052394D01*
X0017400Y0054217D01*
X0019977Y0056794D01*
X0021800Y0056794D01*
X0021800Y0052394D01*
X0021800Y0056794D01*
X0023623Y0056794D01*
X0021800Y0056167D02*
X0021800Y0056167D01*
X0021800Y0054569D02*
X0021800Y0054569D01*
X0021800Y0052970D02*
X0021800Y0052970D01*
X0021800Y0052394D02*
X0021800Y0052394D01*
X0021800Y0051372D02*
X0021800Y0051372D01*
X0021800Y0049773D02*
X0021800Y0049773D01*
X0021800Y0048175D02*
X0021800Y0048175D01*
X0023803Y0048175D02*
X0024700Y0048175D01*
X0024700Y0046576D02*
X0024123Y0046576D01*
X0026400Y0043379D02*
X0026809Y0043379D01*
X0026400Y0041781D02*
X0297819Y0041781D01*
X0297819Y0041602D02*
X0298425Y0040139D01*
X0299545Y0039019D01*
X0301008Y0038413D01*
X0302592Y0038413D01*
X0304055Y0039019D01*
X0305175Y0040139D01*
X0305781Y0041602D01*
X0305781Y0043186D01*
X0305175Y0044649D01*
X0304055Y0045769D01*
X0302592Y0046375D01*
X0301008Y0046375D01*
X0299545Y0045769D01*
X0298425Y0044649D01*
X0297819Y0043186D01*
X0297819Y0041602D01*
X0298407Y0040182D02*
X0026093Y0040182D01*
X0024495Y0038584D02*
X0300596Y0038584D01*
X0303004Y0038584D02*
X0360596Y0038584D01*
X0361008Y0038413D02*
X0362592Y0038413D01*
X0364055Y0039019D01*
X0365175Y0040139D01*
X0365781Y0041602D01*
X0365781Y0043186D01*
X0365175Y0044649D01*
X0364055Y0045769D01*
X0362592Y0046375D01*
X0361008Y0046375D01*
X0359545Y0045769D01*
X0358425Y0044649D01*
X0357819Y0043186D01*
X0357819Y0041602D01*
X0358425Y0040139D01*
X0359545Y0039019D01*
X0361008Y0038413D01*
X0363004Y0038584D02*
X0390701Y0038584D01*
X0390701Y0040182D02*
X0365193Y0040182D01*
X0365781Y0041781D02*
X0390701Y0041781D01*
X0390701Y0043379D02*
X0365701Y0043379D01*
X0364846Y0044978D02*
X0390701Y0044978D01*
X0390701Y0046576D02*
X0146200Y0046576D01*
X0146200Y0047394D02*
X0141800Y0047394D01*
X0141800Y0042994D01*
X0143623Y0042994D01*
X0146200Y0045572D01*
X0146200Y0047394D01*
X0146200Y0049217D01*
X0143623Y0051794D01*
X0141800Y0051794D01*
X0141800Y0047394D01*
X0141800Y0047394D01*
X0141800Y0042994D01*
X0139977Y0042994D01*
X0137400Y0045572D01*
X0137400Y0047394D01*
X0141800Y0047394D01*
X0141800Y0047394D01*
X0141800Y0047394D01*
X0146200Y0047394D01*
X0146200Y0048175D02*
X0390701Y0048175D01*
X0390701Y0049773D02*
X0374809Y0049773D01*
X0375175Y0050139D02*
X0375781Y0051602D01*
X0375781Y0053186D01*
X0375175Y0054649D01*
X0374055Y0055769D01*
X0372592Y0056375D01*
X0371008Y0056375D01*
X0369545Y0055769D01*
X0368425Y0054649D01*
X0367819Y0053186D01*
X0367819Y0051602D01*
X0368425Y0050139D01*
X0369545Y0049019D01*
X0371008Y0048413D01*
X0372592Y0048413D01*
X0374055Y0049019D01*
X0375175Y0050139D01*
X0375686Y0051372D02*
X0390701Y0051372D01*
X0390701Y0052970D02*
X0375781Y0052970D01*
X0375208Y0054569D02*
X0390701Y0054569D01*
X0390701Y0056167D02*
X0373094Y0056167D01*
X0370506Y0056167D02*
X0340601Y0056167D01*
X0340781Y0056602D02*
X0340175Y0055139D01*
X0339055Y0054019D01*
X0337592Y0053413D01*
X0336008Y0053413D01*
X0334545Y0054019D01*
X0333425Y0055139D01*
X0332819Y0056602D01*
X0332819Y0058186D01*
X0333425Y0059649D01*
X0334545Y0060769D01*
X0336008Y0061375D01*
X0337592Y0061375D01*
X0339055Y0060769D01*
X0340175Y0059649D01*
X0340781Y0058186D01*
X0340781Y0056602D01*
X0340781Y0057766D02*
X0390701Y0057766D01*
X0390701Y0059364D02*
X0340293Y0059364D01*
X0338587Y0060963D02*
X0390701Y0060963D01*
X0390701Y0062561D02*
X0310781Y0062561D01*
X0310781Y0063186D02*
X0310175Y0064649D01*
X0309055Y0065769D01*
X0307592Y0066375D01*
X0306008Y0066375D01*
X0304545Y0065769D01*
X0303425Y0064649D01*
X0302819Y0063186D01*
X0302819Y0061602D01*
X0303425Y0060139D01*
X0304545Y0059019D01*
X0306008Y0058413D01*
X0307592Y0058413D01*
X0309055Y0059019D01*
X0310175Y0060139D01*
X0310781Y0061602D01*
X0310781Y0063186D01*
X0310378Y0064160D02*
X0390701Y0064160D01*
X0390701Y0065758D02*
X0309066Y0065758D01*
X0309699Y0068955D02*
X0288901Y0068955D01*
X0289055Y0069019D02*
X0290175Y0070139D01*
X0290781Y0071602D01*
X0290781Y0073186D01*
X0290175Y0074649D01*
X0289055Y0075769D01*
X0287592Y0076375D01*
X0286008Y0076375D01*
X0284545Y0075769D01*
X0283425Y0074649D01*
X0282819Y0073186D01*
X0282819Y0071602D01*
X0283425Y0070139D01*
X0284545Y0069019D01*
X0286008Y0068413D01*
X0287592Y0068413D01*
X0289055Y0069019D01*
X0290347Y0070554D02*
X0308253Y0070554D01*
X0308425Y0070139D02*
X0309545Y0069019D01*
X0311008Y0068413D01*
X0312592Y0068413D01*
X0314055Y0069019D01*
X0315175Y0070139D01*
X0315781Y0071602D01*
X0315781Y0073186D01*
X0315175Y0074649D01*
X0314055Y0075769D01*
X0312592Y0076375D01*
X0311008Y0076375D01*
X0309545Y0075769D01*
X0308425Y0074649D01*
X0307819Y0073186D01*
X0307819Y0071602D01*
X0308425Y0070139D01*
X0307819Y0072153D02*
X0290781Y0072153D01*
X0290547Y0073751D02*
X0308053Y0073751D01*
X0309125Y0075350D02*
X0289475Y0075350D01*
X0290686Y0078547D02*
X0249600Y0078547D01*
X0249600Y0080145D02*
X0288423Y0080145D01*
X0288425Y0080139D02*
X0289545Y0079019D01*
X0291008Y0078413D01*
X0292592Y0078413D01*
X0294055Y0079019D01*
X0295175Y0080139D01*
X0295781Y0081602D01*
X0295781Y0083186D01*
X0295175Y0084649D01*
X0294055Y0085769D01*
X0292592Y0086375D01*
X0291008Y0086375D01*
X0289545Y0085769D01*
X0288425Y0084649D01*
X0287819Y0083186D01*
X0287819Y0081602D01*
X0288425Y0080139D01*
X0287819Y0081744D02*
X0249600Y0081744D01*
X0249600Y0083342D02*
X0287884Y0083342D01*
X0288716Y0084941D02*
X0249600Y0084941D01*
X0249600Y0086539D02*
X0332845Y0086539D01*
X0332819Y0086602D02*
X0333425Y0085139D01*
X0334545Y0084019D01*
X0336008Y0083413D01*
X0337592Y0083413D01*
X0339055Y0084019D01*
X0340175Y0085139D01*
X0340781Y0086602D01*
X0340781Y0088186D01*
X0340175Y0089649D01*
X0339055Y0090769D01*
X0337592Y0091375D01*
X0336008Y0091375D01*
X0334545Y0090769D01*
X0333425Y0089649D01*
X0332819Y0088186D01*
X0332819Y0086602D01*
X0332819Y0088138D02*
X0249600Y0088138D01*
X0249600Y0089736D02*
X0333512Y0089736D01*
X0335910Y0091335D02*
X0249600Y0091335D01*
X0249600Y0092933D02*
X0367819Y0092933D01*
X0367819Y0093186D02*
X0367819Y0091602D01*
X0368425Y0090139D01*
X0369545Y0089019D01*
X0371008Y0088413D01*
X0372592Y0088413D01*
X0374055Y0089019D01*
X0375175Y0090139D01*
X0375781Y0091602D01*
X0375781Y0093186D01*
X0375175Y0094649D01*
X0374055Y0095769D01*
X0372592Y0096375D01*
X0371008Y0096375D01*
X0369545Y0095769D01*
X0368425Y0094649D01*
X0367819Y0093186D01*
X0368376Y0094532D02*
X0249600Y0094532D01*
X0249600Y0096130D02*
X0370416Y0096130D01*
X0373184Y0096130D02*
X0390701Y0096130D01*
X0390701Y0094532D02*
X0375224Y0094532D01*
X0375781Y0092933D02*
X0390701Y0092933D01*
X0390701Y0091335D02*
X0375670Y0091335D01*
X0374772Y0089736D02*
X0390701Y0089736D01*
X0390701Y0088138D02*
X0340781Y0088138D01*
X0340755Y0086539D02*
X0390701Y0086539D01*
X0390701Y0084941D02*
X0339977Y0084941D01*
X0340088Y0089736D02*
X0368828Y0089736D01*
X0367930Y0091335D02*
X0337690Y0091335D01*
X0333623Y0084941D02*
X0309884Y0084941D01*
X0310175Y0084649D02*
X0309055Y0085769D01*
X0307592Y0086375D01*
X0306008Y0086375D01*
X0304545Y0085769D01*
X0303425Y0084649D01*
X0302819Y0083186D01*
X0302819Y0081602D01*
X0303425Y0080139D01*
X0304545Y0079019D01*
X0306008Y0078413D01*
X0307592Y0078413D01*
X0309055Y0079019D01*
X0310175Y0080139D01*
X0310781Y0081602D01*
X0310781Y0083186D01*
X0310175Y0084649D01*
X0310716Y0083342D02*
X0390701Y0083342D01*
X0390701Y0081744D02*
X0310781Y0081744D01*
X0310177Y0080145D02*
X0390701Y0080145D01*
X0390701Y0078547D02*
X0307914Y0078547D01*
X0305686Y0078547D02*
X0292914Y0078547D01*
X0295177Y0080145D02*
X0303423Y0080145D01*
X0302819Y0081744D02*
X0295781Y0081744D01*
X0295716Y0083342D02*
X0302884Y0083342D01*
X0303716Y0084941D02*
X0294884Y0084941D01*
X0284125Y0075350D02*
X0249600Y0075350D01*
X0249600Y0076948D02*
X0390701Y0076948D01*
X0390701Y0075350D02*
X0314475Y0075350D01*
X0315547Y0073751D02*
X0390701Y0073751D01*
X0390701Y0072153D02*
X0315781Y0072153D01*
X0315347Y0070554D02*
X0390701Y0070554D01*
X0390701Y0068955D02*
X0313901Y0068955D01*
X0304534Y0065758D02*
X0294066Y0065758D01*
X0294055Y0065769D02*
X0292592Y0066375D01*
X0291008Y0066375D01*
X0289545Y0065769D01*
X0288425Y0064649D01*
X0287819Y0063186D01*
X0287819Y0061602D01*
X0288425Y0060139D01*
X0289545Y0059019D01*
X0291008Y0058413D01*
X0292592Y0058413D01*
X0294055Y0059019D01*
X0295175Y0060139D01*
X0295781Y0061602D01*
X0295781Y0063186D01*
X0295175Y0064649D01*
X0294055Y0065769D01*
X0295378Y0064160D02*
X0303222Y0064160D01*
X0302819Y0062561D02*
X0295781Y0062561D01*
X0295516Y0060963D02*
X0303084Y0060963D01*
X0304200Y0059364D02*
X0294400Y0059364D01*
X0289200Y0059364D02*
X0065276Y0059364D01*
X0066400Y0060489D02*
X0063705Y0057794D01*
X0059895Y0057794D01*
X0057200Y0060489D01*
X0057200Y0064300D01*
X0059895Y0066994D01*
X0063705Y0066994D01*
X0066400Y0064300D01*
X0066400Y0060489D01*
X0066400Y0060963D02*
X0288084Y0060963D01*
X0287819Y0062561D02*
X0066400Y0062561D01*
X0066400Y0064160D02*
X0113529Y0064160D01*
X0112200Y0065489D02*
X0114895Y0062794D01*
X0118705Y0062794D01*
X0121400Y0065489D01*
X0121400Y0069300D01*
X0118705Y0071994D01*
X0114895Y0071994D01*
X0112200Y0069300D01*
X0112200Y0065489D01*
X0112200Y0065758D02*
X0064941Y0065758D01*
X0063705Y0067794D02*
X0066400Y0070489D01*
X0066400Y0074300D01*
X0063705Y0076994D01*
X0059895Y0076994D01*
X0057200Y0074300D01*
X0057200Y0070489D01*
X0059895Y0067794D01*
X0063705Y0067794D01*
X0064867Y0068955D02*
X0083448Y0068955D01*
X0083990Y0068413D02*
X0082819Y0069585D01*
X0082819Y0075204D01*
X0083990Y0076375D01*
X0089610Y0076375D01*
X0090781Y0075204D01*
X0090781Y0069585D01*
X0089610Y0068413D01*
X0083990Y0068413D01*
X0082819Y0070554D02*
X0066400Y0070554D01*
X0066400Y0072153D02*
X0082819Y0072153D01*
X0082819Y0073751D02*
X0066400Y0073751D01*
X0065350Y0075350D02*
X0082965Y0075350D01*
X0090635Y0075350D02*
X0169000Y0075350D01*
X0169000Y0076948D02*
X0063752Y0076948D01*
X0063563Y0080145D02*
X0117819Y0080145D01*
X0117819Y0081744D02*
X0066760Y0081744D01*
X0060366Y0078547D02*
X0118857Y0078547D01*
X0121800Y0082394D02*
X0121800Y0152394D01*
X0126400Y0152078D02*
X0157200Y0152078D01*
X0157200Y0150489D02*
X0157200Y0154300D01*
X0159895Y0156994D01*
X0163705Y0156994D01*
X0166400Y0154300D01*
X0166400Y0150489D01*
X0164600Y0148689D01*
X0164600Y0131375D01*
X0164610Y0131375D01*
X0165781Y0130204D01*
X0165781Y0124585D01*
X0164610Y0123413D01*
X0158990Y0123413D01*
X0157819Y0124585D01*
X0157819Y0130204D01*
X0158990Y0131375D01*
X0159000Y0131375D01*
X0159000Y0148689D01*
X0157200Y0150489D01*
X0157209Y0150480D02*
X0126391Y0150480D01*
X0124792Y0148881D02*
X0158808Y0148881D01*
X0159000Y0147283D02*
X0124600Y0147283D01*
X0124600Y0145684D02*
X0159000Y0145684D01*
X0159000Y0144086D02*
X0124600Y0144086D01*
X0124600Y0142487D02*
X0159000Y0142487D01*
X0159000Y0140888D02*
X0124600Y0140888D01*
X0124600Y0139290D02*
X0159000Y0139290D01*
X0159000Y0137691D02*
X0124600Y0137691D01*
X0124600Y0136093D02*
X0159000Y0136093D01*
X0159000Y0134494D02*
X0124600Y0134494D01*
X0124600Y0132896D02*
X0159000Y0132896D01*
X0158913Y0131297D02*
X0124600Y0131297D01*
X0124600Y0129699D02*
X0157819Y0129699D01*
X0157819Y0128100D02*
X0124600Y0128100D01*
X0124600Y0126502D02*
X0157819Y0126502D01*
X0157819Y0124903D02*
X0124600Y0124903D01*
X0124600Y0123305D02*
X0174000Y0123305D01*
X0174000Y0124903D02*
X0165781Y0124903D01*
X0165781Y0126502D02*
X0174000Y0126502D01*
X0174000Y0128100D02*
X0165781Y0128100D01*
X0165781Y0129699D02*
X0174000Y0129699D01*
X0174000Y0131297D02*
X0164687Y0131297D01*
X0164600Y0132896D02*
X0174000Y0132896D01*
X0174000Y0133413D02*
X0174000Y0121375D01*
X0173990Y0121375D01*
X0172819Y0120204D01*
X0172819Y0114585D01*
X0173990Y0113413D01*
X0179610Y0113413D01*
X0180781Y0114585D01*
X0180781Y0120204D01*
X0179610Y0121375D01*
X0179600Y0121375D01*
X0179600Y0133413D01*
X0179610Y0133413D01*
X0180781Y0134585D01*
X0180781Y0140204D01*
X0179610Y0141375D01*
X0173990Y0141375D01*
X0172819Y0140204D01*
X0172819Y0134585D01*
X0173990Y0133413D01*
X0174000Y0133413D01*
X0172909Y0134494D02*
X0164600Y0134494D01*
X0164600Y0136093D02*
X0172819Y0136093D01*
X0172819Y0137691D02*
X0164600Y0137691D01*
X0164600Y0139290D02*
X0172819Y0139290D01*
X0173504Y0140888D02*
X0164600Y0140888D01*
X0164600Y0142487D02*
X0244000Y0142487D01*
X0244000Y0140888D02*
X0232411Y0140888D01*
X0232006Y0141294D02*
X0233300Y0140000D01*
X0234000Y0138309D01*
X0234000Y0136479D01*
X0233300Y0134788D01*
X0232006Y0133495D01*
X0230315Y0132794D01*
X0223285Y0132794D01*
X0221594Y0133495D01*
X0220300Y0134788D01*
X0219600Y0136479D01*
X0219600Y0138309D01*
X0220300Y0140000D01*
X0221594Y0141294D01*
X0223285Y0141994D01*
X0230315Y0141994D01*
X0232006Y0141294D01*
X0232006Y0143495D02*
X0233300Y0144788D01*
X0234000Y0146479D01*
X0234000Y0148309D01*
X0233300Y0150000D01*
X0232006Y0151294D01*
X0230315Y0151994D01*
X0223285Y0151994D01*
X0221594Y0151294D01*
X0220300Y0150000D01*
X0219600Y0148309D01*
X0219600Y0146479D01*
X0220300Y0144788D01*
X0221594Y0143495D01*
X0223285Y0142794D01*
X0230315Y0142794D01*
X0232006Y0143495D01*
X0232597Y0144086D02*
X0244000Y0144086D01*
X0244000Y0145684D02*
X0233671Y0145684D01*
X0234000Y0147283D02*
X0244000Y0147283D01*
X0244000Y0148881D02*
X0233763Y0148881D01*
X0232820Y0150480D02*
X0244000Y0150480D01*
X0244000Y0152078D02*
X0190781Y0152078D01*
X0191594Y0151294D02*
X0190781Y0150481D01*
X0190781Y0154308D01*
X0191594Y0153495D01*
X0193285Y0152794D01*
X0200315Y0152794D01*
X0202006Y0153495D01*
X0203300Y0154788D01*
X0204000Y0156479D01*
X0204000Y0158309D01*
X0203300Y0160000D01*
X0202006Y0161294D01*
X0200315Y0161994D01*
X0193285Y0161994D01*
X0191594Y0161294D01*
X0190300Y0160000D01*
X0189600Y0158309D01*
X0189600Y0156479D01*
X0189667Y0156318D01*
X0189610Y0156375D01*
X0189600Y0156375D01*
X0189600Y0173413D01*
X0189610Y0173413D01*
X0190643Y0174446D01*
X0191594Y0173495D01*
X0193285Y0172794D01*
X0200315Y0172794D01*
X0202006Y0173495D01*
X0203300Y0174788D01*
X0204000Y0176479D01*
X0204000Y0178309D01*
X0203300Y0180000D01*
X0202006Y0181294D01*
X0200315Y0181994D01*
X0193285Y0181994D01*
X0191594Y0181294D01*
X0190643Y0180342D01*
X0189610Y0181375D01*
X0183990Y0181375D01*
X0182819Y0180204D01*
X0182819Y0174585D01*
X0183990Y0173413D01*
X0184000Y0173413D01*
X0184000Y0156375D01*
X0183990Y0156375D01*
X0182819Y0155204D01*
X0182819Y0149585D01*
X0183990Y0148413D01*
X0189610Y0148413D01*
X0189667Y0148470D01*
X0189600Y0148309D01*
X0189600Y0146479D01*
X0190300Y0144788D01*
X0191594Y0143495D01*
X0193285Y0142794D01*
X0200315Y0142794D01*
X0202006Y0143495D01*
X0203300Y0144788D01*
X0204000Y0146479D01*
X0204000Y0148309D01*
X0203300Y0150000D01*
X0202006Y0151294D01*
X0200315Y0151994D01*
X0193285Y0151994D01*
X0191594Y0151294D01*
X0191412Y0153677D02*
X0190781Y0153677D01*
X0189600Y0156874D02*
X0189600Y0156874D01*
X0189600Y0158472D02*
X0189667Y0158472D01*
X0189600Y0160071D02*
X0190371Y0160071D01*
X0189600Y0161669D02*
X0192500Y0161669D01*
X0193285Y0162794D02*
X0191594Y0163495D01*
X0190300Y0164788D01*
X0189600Y0166479D01*
X0189600Y0168309D01*
X0190300Y0170000D01*
X0191594Y0171294D01*
X0193285Y0171994D01*
X0200315Y0171994D01*
X0202006Y0171294D01*
X0203300Y0170000D01*
X0204000Y0168309D01*
X0204000Y0166479D01*
X0203300Y0164788D01*
X0202006Y0163495D01*
X0200315Y0162794D01*
X0193285Y0162794D01*
X0192142Y0163268D02*
X0189600Y0163268D01*
X0189600Y0164866D02*
X0190268Y0164866D01*
X0189606Y0166465D02*
X0189600Y0166465D01*
X0189600Y0168063D02*
X0189600Y0168063D01*
X0189600Y0169662D02*
X0190160Y0169662D01*
X0189600Y0171260D02*
X0191561Y0171260D01*
X0193129Y0172859D02*
X0189600Y0172859D01*
X0186800Y0177394D02*
X0186800Y0152394D01*
X0182819Y0152078D02*
X0177255Y0152078D01*
X0176296Y0153677D02*
X0182819Y0153677D01*
X0182890Y0155275D02*
X0175337Y0155275D01*
X0174378Y0156874D02*
X0184000Y0156874D01*
X0184000Y0158472D02*
X0173419Y0158472D01*
X0172459Y0160071D02*
X0184000Y0160071D01*
X0184000Y0161669D02*
X0171500Y0161669D01*
X0170541Y0163268D02*
X0184000Y0163268D01*
X0184000Y0164866D02*
X0174902Y0164866D01*
X0175724Y0166465D02*
X0184000Y0166465D01*
X0184000Y0168063D02*
X0175781Y0168063D01*
X0175163Y0169662D02*
X0184000Y0169662D01*
X0184000Y0171260D02*
X0174600Y0171260D01*
X0174600Y0172859D02*
X0184000Y0172859D01*
X0182946Y0174457D02*
X0174600Y0174457D01*
X0174600Y0176056D02*
X0182819Y0176056D01*
X0182819Y0177654D02*
X0174600Y0177654D01*
X0174600Y0179253D02*
X0182819Y0179253D01*
X0183466Y0180851D02*
X0174600Y0180851D01*
X0174600Y0182450D02*
X0294000Y0182450D01*
X0294000Y0184048D02*
X0280245Y0184048D01*
X0280781Y0185647D02*
X0294000Y0185647D01*
X0294000Y0187245D02*
X0280781Y0187245D01*
X0280781Y0188844D02*
X0294000Y0188844D01*
X0294000Y0190442D02*
X0280542Y0190442D01*
X0279600Y0192041D02*
X0294000Y0192041D01*
X0294000Y0193413D02*
X0294000Y0141375D01*
X0293990Y0141375D01*
X0292819Y0140204D01*
X0292819Y0134585D01*
X0293990Y0133413D01*
X0299610Y0133413D01*
X0300781Y0134585D01*
X0300781Y0140204D01*
X0299610Y0141375D01*
X0299600Y0141375D01*
X0299600Y0193413D01*
X0299610Y0193413D01*
X0300781Y0194585D01*
X0300781Y0200204D01*
X0299610Y0201375D01*
X0293990Y0201375D01*
X0292819Y0200204D01*
X0292819Y0194585D01*
X0293990Y0193413D01*
X0294000Y0193413D01*
X0293764Y0193639D02*
X0279600Y0193639D01*
X0279600Y0195238D02*
X0292819Y0195238D01*
X0292819Y0196836D02*
X0279600Y0196836D01*
X0279600Y0198435D02*
X0292819Y0198435D01*
X0292819Y0200033D02*
X0279600Y0200033D01*
X0279600Y0201632D02*
X0326010Y0201632D01*
X0326143Y0203230D02*
X0279600Y0203230D01*
X0279600Y0204829D02*
X0326277Y0204829D01*
X0326410Y0206427D02*
X0279600Y0206427D01*
X0279600Y0208026D02*
X0326543Y0208026D01*
X0326676Y0209624D02*
X0279600Y0209624D01*
X0279600Y0211223D02*
X0326809Y0211223D01*
X0332429Y0211223D02*
X0336957Y0211223D01*
X0337157Y0212822D02*
X0332562Y0212822D01*
X0332695Y0214420D02*
X0337356Y0214420D01*
X0337556Y0216019D02*
X0332828Y0216019D01*
X0332962Y0217617D02*
X0337756Y0217617D01*
X0337956Y0219216D02*
X0333095Y0219216D01*
X0333228Y0220814D02*
X0338156Y0220814D01*
X0338356Y0222413D02*
X0333361Y0222413D01*
X0333494Y0224011D02*
X0338392Y0224011D01*
X0338537Y0223866D02*
X0329476Y0151375D01*
X0328990Y0151375D01*
X0327819Y0150204D01*
X0327819Y0144585D01*
X0328990Y0143413D01*
X0334610Y0143413D01*
X0335781Y0144585D01*
X0335781Y0150204D01*
X0335063Y0150922D01*
X0344124Y0223413D01*
X0344610Y0223413D01*
X0345781Y0224585D01*
X0345781Y0230204D01*
X0344610Y0231375D01*
X0338990Y0231375D01*
X0337819Y0230204D01*
X0337819Y0224585D01*
X0338537Y0223866D01*
X0337819Y0225610D02*
X0333628Y0225610D01*
X0333761Y0227208D02*
X0337819Y0227208D01*
X0337819Y0228807D02*
X0333894Y0228807D01*
X0334027Y0230405D02*
X0338020Y0230405D01*
X0334160Y0232004D02*
X0364000Y0232004D01*
X0364000Y0233602D02*
X0334799Y0233602D01*
X0335781Y0235201D02*
X0364000Y0235201D01*
X0364000Y0236799D02*
X0335781Y0236799D01*
X0335781Y0238398D02*
X0364000Y0238398D01*
X0364000Y0239996D02*
X0335781Y0239996D01*
X0331800Y0237394D02*
X0326800Y0177394D01*
X0330781Y0177654D02*
X0332761Y0177654D01*
X0332561Y0176056D02*
X0330781Y0176056D01*
X0330654Y0174457D02*
X0332361Y0174457D01*
X0332161Y0172859D02*
X0299600Y0172859D01*
X0299600Y0174457D02*
X0322946Y0174457D01*
X0322819Y0176056D02*
X0299600Y0176056D01*
X0299600Y0177654D02*
X0322819Y0177654D01*
X0322819Y0179253D02*
X0299600Y0179253D01*
X0299600Y0180851D02*
X0323466Y0180851D01*
X0324412Y0182450D02*
X0299600Y0182450D01*
X0299600Y0184048D02*
X0324545Y0184048D01*
X0324678Y0185647D02*
X0299600Y0185647D01*
X0299600Y0187245D02*
X0324811Y0187245D01*
X0324944Y0188844D02*
X0299600Y0188844D01*
X0299600Y0190442D02*
X0325078Y0190442D01*
X0325211Y0192041D02*
X0299600Y0192041D01*
X0299836Y0193639D02*
X0325344Y0193639D01*
X0325477Y0195238D02*
X0300781Y0195238D01*
X0300781Y0196836D02*
X0325610Y0196836D01*
X0325744Y0198435D02*
X0300781Y0198435D01*
X0300781Y0200033D02*
X0325877Y0200033D01*
X0331496Y0200033D02*
X0335558Y0200033D01*
X0335358Y0198435D02*
X0331363Y0198435D01*
X0331230Y0196836D02*
X0335158Y0196836D01*
X0334959Y0195238D02*
X0331097Y0195238D01*
X0330963Y0193639D02*
X0334759Y0193639D01*
X0334559Y0192041D02*
X0330830Y0192041D01*
X0330697Y0190442D02*
X0334359Y0190442D01*
X0334159Y0188844D02*
X0330564Y0188844D01*
X0330431Y0187245D02*
X0333960Y0187245D01*
X0333760Y0185647D02*
X0330297Y0185647D01*
X0330164Y0184048D02*
X0333560Y0184048D01*
X0333360Y0182450D02*
X0330031Y0182450D01*
X0330134Y0180851D02*
X0333160Y0180851D01*
X0332961Y0179253D02*
X0330781Y0179253D01*
X0338404Y0177654D02*
X0369000Y0177654D01*
X0369000Y0176056D02*
X0338204Y0176056D01*
X0338005Y0174457D02*
X0369000Y0174457D01*
X0369000Y0172859D02*
X0337805Y0172859D01*
X0337605Y0171260D02*
X0369000Y0171260D01*
X0369000Y0169662D02*
X0337405Y0169662D01*
X0337205Y0168063D02*
X0369000Y0168063D01*
X0369000Y0166465D02*
X0337006Y0166465D01*
X0336806Y0164866D02*
X0369000Y0164866D01*
X0369000Y0163268D02*
X0336606Y0163268D01*
X0336406Y0161669D02*
X0369000Y0161669D01*
X0369000Y0160071D02*
X0336206Y0160071D01*
X0336007Y0158472D02*
X0369000Y0158472D01*
X0369000Y0156874D02*
X0359992Y0156874D01*
X0359683Y0157098D02*
X0358911Y0157491D01*
X0358088Y0157759D01*
X0357233Y0157894D01*
X0357000Y0157894D01*
X0357000Y0152594D01*
X0362300Y0152594D01*
X0362300Y0152827D01*
X0362165Y0153682D01*
X0361897Y0154505D01*
X0361504Y0155277D01*
X0360995Y0155977D01*
X0360383Y0156589D01*
X0359683Y0157098D01*
X0361505Y0155275D02*
X0369000Y0155275D01*
X0369000Y0153677D02*
X0362165Y0153677D01*
X0362300Y0152194D02*
X0357000Y0152194D01*
X0357000Y0146894D01*
X0357233Y0146894D01*
X0358088Y0147030D01*
X0358911Y0147297D01*
X0359683Y0147690D01*
X0360383Y0148199D01*
X0360995Y0148811D01*
X0361504Y0149512D01*
X0361897Y0150283D01*
X0362165Y0151106D01*
X0362300Y0151961D01*
X0362300Y0152194D01*
X0362300Y0152078D02*
X0369000Y0152078D01*
X0369000Y0151837D02*
X0369426Y0150808D01*
X0370214Y0150020D01*
X0371243Y0149594D01*
X0371790Y0149594D01*
X0371968Y0149165D01*
X0373571Y0147562D01*
X0375666Y0146694D01*
X0377934Y0146694D01*
X0380029Y0147562D01*
X0381632Y0149165D01*
X0382500Y0151260D01*
X0382500Y0153528D01*
X0381632Y0155623D01*
X0380029Y0157226D01*
X0377934Y0158094D01*
X0375666Y0158094D01*
X0374600Y0157653D01*
X0374600Y0189564D01*
X0375175Y0190139D01*
X0375781Y0191602D01*
X0375781Y0193186D01*
X0375175Y0194649D01*
X0374055Y0195769D01*
X0372592Y0196375D01*
X0371008Y0196375D01*
X0369545Y0195769D01*
X0368425Y0194649D01*
X0367819Y0193186D01*
X0367819Y0191602D01*
X0368425Y0190139D01*
X0369000Y0189564D01*
X0369000Y0151837D01*
X0369755Y0150480D02*
X0361961Y0150480D01*
X0361046Y0148881D02*
X0372252Y0148881D01*
X0374246Y0147283D02*
X0358866Y0147283D01*
X0357000Y0147283D02*
X0356600Y0147283D01*
X0356600Y0146894D02*
X0356600Y0152194D01*
X0357000Y0152194D01*
X0357000Y0152594D01*
X0356600Y0152594D01*
X0356600Y0152194D01*
X0351300Y0152194D01*
X0351300Y0151961D01*
X0351435Y0151106D01*
X0351703Y0150283D01*
X0352096Y0149512D01*
X0352605Y0148811D01*
X0353217Y0148199D01*
X0353917Y0147690D01*
X0354689Y0147297D01*
X0355512Y0147030D01*
X0356367Y0146894D01*
X0356600Y0146894D01*
X0354734Y0147283D02*
X0335781Y0147283D01*
X0335781Y0148881D02*
X0352554Y0148881D01*
X0351639Y0150480D02*
X0335505Y0150480D01*
X0335207Y0152078D02*
X0351300Y0152078D01*
X0351300Y0152594D02*
X0356600Y0152594D01*
X0356600Y0157894D01*
X0356367Y0157894D01*
X0355512Y0157759D01*
X0354689Y0157491D01*
X0353917Y0157098D01*
X0353217Y0156589D01*
X0352605Y0155977D01*
X0352096Y0155277D01*
X0351703Y0154505D01*
X0351435Y0153682D01*
X0351300Y0152827D01*
X0351300Y0152594D01*
X0351435Y0153677D02*
X0335407Y0153677D01*
X0335607Y0155275D02*
X0352095Y0155275D01*
X0353608Y0156874D02*
X0335807Y0156874D01*
X0330163Y0156874D02*
X0299600Y0156874D01*
X0299600Y0158472D02*
X0330363Y0158472D01*
X0330563Y0160071D02*
X0299600Y0160071D01*
X0299600Y0161669D02*
X0330763Y0161669D01*
X0330962Y0163268D02*
X0299600Y0163268D01*
X0299600Y0164866D02*
X0331162Y0164866D01*
X0331362Y0166465D02*
X0299600Y0166465D01*
X0299600Y0168063D02*
X0331562Y0168063D01*
X0331762Y0169662D02*
X0299600Y0169662D01*
X0299600Y0171260D02*
X0331961Y0171260D01*
X0338604Y0179253D02*
X0369000Y0179253D01*
X0369000Y0180851D02*
X0338804Y0180851D01*
X0339004Y0182450D02*
X0369000Y0182450D01*
X0369000Y0184048D02*
X0339204Y0184048D01*
X0339403Y0185647D02*
X0369000Y0185647D01*
X0369000Y0187245D02*
X0339603Y0187245D01*
X0339803Y0188844D02*
X0369000Y0188844D01*
X0368299Y0190442D02*
X0340003Y0190442D01*
X0340203Y0192041D02*
X0367819Y0192041D01*
X0368007Y0193639D02*
X0359836Y0193639D01*
X0360781Y0195238D02*
X0369014Y0195238D01*
X0371800Y0192394D02*
X0371800Y0152394D01*
X0376800Y0152394D01*
X0382177Y0150480D02*
X0390701Y0150480D01*
X0390701Y0152078D02*
X0382500Y0152078D01*
X0382438Y0153677D02*
X0390701Y0153677D01*
X0390701Y0155275D02*
X0381776Y0155275D01*
X0380382Y0156874D02*
X0390701Y0156874D01*
X0390701Y0158472D02*
X0374600Y0158472D01*
X0374600Y0160071D02*
X0390701Y0160071D01*
X0390701Y0161669D02*
X0374600Y0161669D01*
X0374600Y0163268D02*
X0390701Y0163268D01*
X0390701Y0164866D02*
X0374600Y0164866D01*
X0374600Y0166465D02*
X0390701Y0166465D01*
X0390701Y0168063D02*
X0374600Y0168063D01*
X0374600Y0169662D02*
X0390701Y0169662D01*
X0390701Y0171260D02*
X0374600Y0171260D01*
X0374600Y0172859D02*
X0390701Y0172859D01*
X0390701Y0174457D02*
X0374600Y0174457D01*
X0374600Y0176056D02*
X0390701Y0176056D01*
X0390701Y0177654D02*
X0374600Y0177654D01*
X0374600Y0179253D02*
X0390701Y0179253D01*
X0390701Y0180851D02*
X0374600Y0180851D01*
X0374600Y0182450D02*
X0390701Y0182450D01*
X0390701Y0184048D02*
X0374600Y0184048D01*
X0374600Y0185647D02*
X0390701Y0185647D01*
X0390701Y0187245D02*
X0374600Y0187245D01*
X0374600Y0188844D02*
X0390701Y0188844D01*
X0390701Y0190442D02*
X0375301Y0190442D01*
X0375781Y0192041D02*
X0390701Y0192041D01*
X0390701Y0193639D02*
X0375593Y0193639D01*
X0374586Y0195238D02*
X0390701Y0195238D01*
X0390701Y0196836D02*
X0361011Y0196836D01*
X0363409Y0198435D02*
X0390701Y0198435D01*
X0390701Y0200033D02*
X0365807Y0200033D01*
X0368204Y0201632D02*
X0390701Y0201632D01*
X0390701Y0203230D02*
X0370602Y0203230D01*
X0373000Y0204829D02*
X0390701Y0204829D01*
X0390701Y0206427D02*
X0375398Y0206427D01*
X0377795Y0208026D02*
X0390701Y0208026D01*
X0390701Y0209624D02*
X0380193Y0209624D01*
X0382591Y0211223D02*
X0390701Y0211223D01*
X0390701Y0212822D02*
X0390288Y0212822D01*
X0386800Y0217394D02*
X0356800Y0197394D01*
X0352819Y0196836D02*
X0340802Y0196836D01*
X0340602Y0195238D02*
X0352819Y0195238D01*
X0353764Y0193639D02*
X0340402Y0193639D01*
X0341002Y0198435D02*
X0352819Y0198435D01*
X0352819Y0200033D02*
X0341202Y0200033D01*
X0341402Y0201632D02*
X0358109Y0201632D01*
X0360507Y0203230D02*
X0341601Y0203230D01*
X0341801Y0204829D02*
X0362904Y0204829D01*
X0365302Y0206427D02*
X0342001Y0206427D01*
X0342201Y0208026D02*
X0367700Y0208026D01*
X0370098Y0209624D02*
X0342401Y0209624D01*
X0342600Y0211223D02*
X0372495Y0211223D01*
X0374893Y0212822D02*
X0342800Y0212822D01*
X0343000Y0214420D02*
X0364144Y0214420D01*
X0363061Y0216019D02*
X0343200Y0216019D01*
X0343400Y0217617D02*
X0362819Y0217617D01*
X0363245Y0219216D02*
X0343599Y0219216D01*
X0343799Y0220814D02*
X0364000Y0220814D01*
X0364000Y0222413D02*
X0343999Y0222413D01*
X0345208Y0224011D02*
X0364000Y0224011D01*
X0364000Y0225610D02*
X0345781Y0225610D01*
X0345781Y0227208D02*
X0364000Y0227208D01*
X0364000Y0228807D02*
X0345781Y0228807D01*
X0345580Y0230405D02*
X0364000Y0230405D01*
X0369456Y0214420D02*
X0377291Y0214420D01*
X0341800Y0227394D02*
X0331800Y0147394D01*
X0327819Y0147283D02*
X0299600Y0147283D01*
X0299600Y0148881D02*
X0327819Y0148881D01*
X0328095Y0150480D02*
X0299600Y0150480D01*
X0299600Y0152078D02*
X0329564Y0152078D01*
X0329764Y0153677D02*
X0299600Y0153677D01*
X0299600Y0155275D02*
X0329963Y0155275D01*
X0327819Y0145684D02*
X0299600Y0145684D01*
X0299600Y0144086D02*
X0328318Y0144086D01*
X0335282Y0144086D02*
X0390701Y0144086D01*
X0390701Y0145684D02*
X0335781Y0145684D01*
X0334895Y0136994D02*
X0332200Y0134300D01*
X0332200Y0130489D01*
X0334895Y0127794D01*
X0338705Y0127794D01*
X0341400Y0130489D01*
X0341400Y0134300D01*
X0338705Y0136994D01*
X0334895Y0136994D01*
X0333993Y0136093D02*
X0314892Y0136093D01*
X0314610Y0136375D02*
X0308990Y0136375D01*
X0307819Y0135204D01*
X0307819Y0129585D01*
X0308990Y0128413D01*
X0309000Y0128413D01*
X0309000Y0106375D01*
X0308990Y0106375D01*
X0307819Y0105204D01*
X0307819Y0099585D01*
X0308990Y0098413D01*
X0314610Y0098413D01*
X0315781Y0099585D01*
X0315781Y0105204D01*
X0314610Y0106375D01*
X0314600Y0106375D01*
X0314600Y0128413D01*
X0314610Y0128413D01*
X0315781Y0129585D01*
X0315781Y0135204D01*
X0314610Y0136375D01*
X0315781Y0134494D02*
X0332395Y0134494D01*
X0332200Y0132896D02*
X0315781Y0132896D01*
X0315781Y0131297D02*
X0332200Y0131297D01*
X0332990Y0129699D02*
X0315781Y0129699D01*
X0314600Y0128100D02*
X0334588Y0128100D01*
X0339012Y0128100D02*
X0374588Y0128100D01*
X0374895Y0127794D02*
X0372200Y0130489D01*
X0372200Y0134300D01*
X0374895Y0136994D01*
X0378705Y0136994D01*
X0381400Y0134300D01*
X0381400Y0130489D01*
X0378705Y0127794D01*
X0374895Y0127794D01*
X0372990Y0129699D02*
X0340610Y0129699D01*
X0341400Y0131297D02*
X0372200Y0131297D01*
X0372200Y0132896D02*
X0341400Y0132896D01*
X0341205Y0134494D02*
X0372395Y0134494D01*
X0373993Y0136093D02*
X0339607Y0136093D01*
X0356600Y0148881D02*
X0357000Y0148881D01*
X0357000Y0150480D02*
X0356600Y0150480D01*
X0356600Y0152078D02*
X0357000Y0152078D01*
X0357000Y0153677D02*
X0356600Y0153677D01*
X0356600Y0155275D02*
X0357000Y0155275D01*
X0357000Y0156874D02*
X0356600Y0156874D01*
X0379354Y0147283D02*
X0390701Y0147283D01*
X0390701Y0148881D02*
X0381348Y0148881D01*
X0390701Y0142487D02*
X0299600Y0142487D01*
X0300096Y0140888D02*
X0390701Y0140888D01*
X0390701Y0139290D02*
X0300781Y0139290D01*
X0300781Y0137691D02*
X0390701Y0137691D01*
X0390701Y0136093D02*
X0379607Y0136093D01*
X0381205Y0134494D02*
X0390701Y0134494D01*
X0390701Y0132896D02*
X0381400Y0132896D01*
X0381400Y0131297D02*
X0390701Y0131297D01*
X0390701Y0129699D02*
X0380610Y0129699D01*
X0379012Y0128100D02*
X0390701Y0128100D01*
X0390701Y0126502D02*
X0314600Y0126502D01*
X0314600Y0124903D02*
X0390701Y0124903D01*
X0390701Y0123305D02*
X0314600Y0123305D01*
X0314600Y0121706D02*
X0390701Y0121706D01*
X0390701Y0120108D02*
X0314600Y0120108D01*
X0314600Y0118509D02*
X0390701Y0118509D01*
X0390701Y0116911D02*
X0314600Y0116911D01*
X0314600Y0115312D02*
X0390701Y0115312D01*
X0390701Y0113714D02*
X0314600Y0113714D01*
X0314600Y0112115D02*
X0390701Y0112115D01*
X0390701Y0110517D02*
X0359308Y0110517D01*
X0359055Y0110769D02*
X0357592Y0111375D01*
X0356008Y0111375D01*
X0354545Y0110769D01*
X0353425Y0109649D01*
X0352819Y0108186D01*
X0352819Y0106602D01*
X0353425Y0105139D01*
X0354545Y0104019D01*
X0356008Y0103413D01*
X0357592Y0103413D01*
X0359055Y0104019D01*
X0360175Y0105139D01*
X0360781Y0106602D01*
X0360781Y0108186D01*
X0360175Y0109649D01*
X0359055Y0110769D01*
X0360478Y0108918D02*
X0390701Y0108918D01*
X0390701Y0107320D02*
X0360781Y0107320D01*
X0360416Y0105721D02*
X0390701Y0105721D01*
X0390701Y0104123D02*
X0359159Y0104123D01*
X0354441Y0104123D02*
X0315781Y0104123D01*
X0315781Y0102524D02*
X0390701Y0102524D01*
X0390701Y0100926D02*
X0315781Y0100926D01*
X0315524Y0099327D02*
X0390701Y0099327D01*
X0390701Y0097729D02*
X0249600Y0097729D01*
X0249600Y0099327D02*
X0308076Y0099327D01*
X0307819Y0100926D02*
X0249600Y0100926D01*
X0249600Y0102524D02*
X0307819Y0102524D01*
X0307819Y0104123D02*
X0265319Y0104123D01*
X0265781Y0104585D02*
X0265781Y0110204D01*
X0264610Y0111375D01*
X0264600Y0111375D01*
X0264600Y0163413D01*
X0264610Y0163413D01*
X0265781Y0164585D01*
X0265781Y0170204D01*
X0264610Y0171375D01*
X0258990Y0171375D01*
X0257819Y0170204D01*
X0257819Y0164585D01*
X0258990Y0163413D01*
X0259000Y0163413D01*
X0259000Y0111375D01*
X0258990Y0111375D01*
X0257819Y0110204D01*
X0257819Y0104585D01*
X0258990Y0103413D01*
X0264610Y0103413D01*
X0265781Y0104585D01*
X0265781Y0105721D02*
X0308336Y0105721D01*
X0309000Y0107320D02*
X0265781Y0107320D01*
X0265781Y0108918D02*
X0309000Y0108918D01*
X0309000Y0110517D02*
X0265468Y0110517D01*
X0264600Y0112115D02*
X0309000Y0112115D01*
X0309000Y0113714D02*
X0264600Y0113714D01*
X0264600Y0115312D02*
X0309000Y0115312D01*
X0309000Y0116911D02*
X0264600Y0116911D01*
X0264600Y0118509D02*
X0309000Y0118509D01*
X0309000Y0120108D02*
X0264600Y0120108D01*
X0264600Y0121706D02*
X0309000Y0121706D01*
X0309000Y0123305D02*
X0264600Y0123305D01*
X0264600Y0124903D02*
X0309000Y0124903D01*
X0309000Y0126502D02*
X0264600Y0126502D01*
X0264600Y0128100D02*
X0309000Y0128100D01*
X0307819Y0129699D02*
X0264600Y0129699D01*
X0264600Y0131297D02*
X0307819Y0131297D01*
X0307819Y0132896D02*
X0264600Y0132896D01*
X0264600Y0134494D02*
X0292909Y0134494D01*
X0292819Y0136093D02*
X0264600Y0136093D01*
X0264600Y0137691D02*
X0292819Y0137691D01*
X0292819Y0139290D02*
X0264600Y0139290D01*
X0264600Y0140888D02*
X0293504Y0140888D01*
X0294000Y0142487D02*
X0264600Y0142487D01*
X0264600Y0144086D02*
X0294000Y0144086D01*
X0294000Y0145684D02*
X0264600Y0145684D01*
X0264600Y0147283D02*
X0294000Y0147283D01*
X0294000Y0148881D02*
X0264600Y0148881D01*
X0264600Y0150480D02*
X0294000Y0150480D01*
X0294000Y0152078D02*
X0264600Y0152078D01*
X0264600Y0153677D02*
X0294000Y0153677D01*
X0294000Y0155275D02*
X0264600Y0155275D01*
X0264600Y0156874D02*
X0294000Y0156874D01*
X0294000Y0158472D02*
X0264600Y0158472D01*
X0264600Y0160071D02*
X0294000Y0160071D01*
X0294000Y0161669D02*
X0264600Y0161669D01*
X0264600Y0163268D02*
X0294000Y0163268D01*
X0294000Y0164866D02*
X0265781Y0164866D01*
X0265781Y0166465D02*
X0294000Y0166465D01*
X0294000Y0168063D02*
X0265781Y0168063D01*
X0265781Y0169662D02*
X0294000Y0169662D01*
X0294000Y0171260D02*
X0264725Y0171260D01*
X0261800Y0167394D02*
X0261800Y0107394D01*
X0257819Y0107320D02*
X0249600Y0107320D01*
X0249600Y0108918D02*
X0257819Y0108918D01*
X0258132Y0110517D02*
X0249600Y0110517D01*
X0249600Y0112115D02*
X0259000Y0112115D01*
X0259000Y0113714D02*
X0249600Y0113714D01*
X0249600Y0115312D02*
X0259000Y0115312D01*
X0259000Y0116911D02*
X0249600Y0116911D01*
X0249600Y0118509D02*
X0259000Y0118509D01*
X0259000Y0120108D02*
X0249600Y0120108D01*
X0249600Y0121706D02*
X0259000Y0121706D01*
X0259000Y0123305D02*
X0249600Y0123305D01*
X0249600Y0124903D02*
X0259000Y0124903D01*
X0259000Y0126502D02*
X0249600Y0126502D01*
X0249600Y0128100D02*
X0259000Y0128100D01*
X0259000Y0129699D02*
X0249600Y0129699D01*
X0249600Y0131297D02*
X0259000Y0131297D01*
X0259000Y0132896D02*
X0249600Y0132896D01*
X0249600Y0134494D02*
X0259000Y0134494D01*
X0259000Y0136093D02*
X0249600Y0136093D01*
X0249600Y0137691D02*
X0259000Y0137691D01*
X0259000Y0139290D02*
X0249600Y0139290D01*
X0249600Y0140888D02*
X0259000Y0140888D01*
X0259000Y0142487D02*
X0249600Y0142487D01*
X0249600Y0144086D02*
X0259000Y0144086D01*
X0259000Y0145684D02*
X0249600Y0145684D01*
X0249600Y0147283D02*
X0259000Y0147283D01*
X0259000Y0148881D02*
X0249600Y0148881D01*
X0249600Y0150480D02*
X0259000Y0150480D01*
X0259000Y0152078D02*
X0249600Y0152078D01*
X0249600Y0153413D02*
X0249610Y0153413D01*
X0250781Y0154585D01*
X0250781Y0160204D01*
X0249610Y0161375D01*
X0243990Y0161375D01*
X0242819Y0160204D01*
X0242819Y0154585D01*
X0243990Y0153413D01*
X0244000Y0153413D01*
X0244000Y0071375D01*
X0243990Y0071375D01*
X0242819Y0070204D01*
X0242819Y0064585D01*
X0243990Y0063413D01*
X0249610Y0063413D01*
X0250781Y0064585D01*
X0250781Y0070204D01*
X0249610Y0071375D01*
X0249600Y0071375D01*
X0249600Y0153413D01*
X0249873Y0153677D02*
X0259000Y0153677D01*
X0259000Y0155275D02*
X0250781Y0155275D01*
X0250781Y0156874D02*
X0259000Y0156874D01*
X0259000Y0158472D02*
X0250781Y0158472D01*
X0250781Y0160071D02*
X0259000Y0160071D01*
X0259000Y0161669D02*
X0231100Y0161669D01*
X0230315Y0161994D02*
X0223285Y0161994D01*
X0221594Y0161294D01*
X0220300Y0160000D01*
X0219600Y0158309D01*
X0219600Y0156479D01*
X0220300Y0154788D01*
X0221594Y0153495D01*
X0223285Y0152794D01*
X0230315Y0152794D01*
X0232006Y0153495D01*
X0233300Y0154788D01*
X0234000Y0156479D01*
X0234000Y0158309D01*
X0233300Y0160000D01*
X0232006Y0161294D01*
X0230315Y0161994D01*
X0230315Y0162794D02*
X0232006Y0163495D01*
X0233300Y0164788D01*
X0234000Y0166479D01*
X0234000Y0168309D01*
X0233300Y0170000D01*
X0232006Y0171294D01*
X0230315Y0171994D01*
X0223285Y0171994D01*
X0221594Y0171294D01*
X0220300Y0170000D01*
X0219600Y0168309D01*
X0219600Y0166479D01*
X0220300Y0164788D01*
X0221594Y0163495D01*
X0223285Y0162794D01*
X0230315Y0162794D01*
X0231458Y0163268D02*
X0259000Y0163268D01*
X0257819Y0164866D02*
X0233332Y0164866D01*
X0233994Y0166465D02*
X0257819Y0166465D01*
X0257819Y0168063D02*
X0234000Y0168063D01*
X0233440Y0169662D02*
X0257819Y0169662D01*
X0258875Y0171260D02*
X0232039Y0171260D01*
X0232006Y0173495D02*
X0230315Y0172794D01*
X0223285Y0172794D01*
X0221594Y0173495D01*
X0220300Y0174788D01*
X0219600Y0176479D01*
X0219600Y0178309D01*
X0220300Y0180000D01*
X0221594Y0181294D01*
X0223285Y0181994D01*
X0230315Y0181994D01*
X0232006Y0181294D01*
X0233300Y0180000D01*
X0234000Y0178309D01*
X0234000Y0176479D01*
X0233300Y0174788D01*
X0232006Y0173495D01*
X0232968Y0174457D02*
X0294000Y0174457D01*
X0294000Y0172859D02*
X0230471Y0172859D01*
X0233825Y0176056D02*
X0294000Y0176056D01*
X0294000Y0177654D02*
X0234000Y0177654D01*
X0233609Y0179253D02*
X0294000Y0179253D01*
X0294000Y0180851D02*
X0232448Y0180851D01*
X0232006Y0183495D02*
X0230315Y0182794D01*
X0223285Y0182794D01*
X0221594Y0183495D01*
X0220300Y0184788D01*
X0219600Y0186479D01*
X0219600Y0188309D01*
X0220300Y0190000D01*
X0221594Y0191294D01*
X0223285Y0191994D01*
X0230315Y0191994D01*
X0232006Y0191294D01*
X0233300Y0190000D01*
X0234000Y0188309D01*
X0234000Y0186479D01*
X0233300Y0184788D01*
X0232006Y0183495D01*
X0232559Y0184048D02*
X0273355Y0184048D01*
X0272819Y0185647D02*
X0233655Y0185647D01*
X0234000Y0187245D02*
X0272819Y0187245D01*
X0272819Y0188844D02*
X0233779Y0188844D01*
X0232857Y0190442D02*
X0273058Y0190442D01*
X0274000Y0192041D02*
X0110781Y0192041D01*
X0110781Y0193639D02*
X0183764Y0193639D01*
X0182819Y0195238D02*
X0110747Y0195238D01*
X0106800Y0197394D02*
X0106800Y0192394D01*
X0102819Y0192041D02*
X0094600Y0192041D01*
X0094600Y0193639D02*
X0102819Y0193639D01*
X0102853Y0195238D02*
X0094600Y0195238D01*
X0094600Y0196836D02*
X0104000Y0196836D01*
X0103904Y0198435D02*
X0094400Y0198435D01*
X0092745Y0200033D02*
X0103770Y0200033D01*
X0106800Y0197394D02*
X0096800Y0317394D01*
X0100781Y0319922D02*
X0177819Y0319922D01*
X0202696Y0329513D02*
X0065781Y0329513D01*
X0064873Y0331111D02*
X0204295Y0331111D01*
X0229588Y0331111D02*
X0243727Y0331111D01*
X0242819Y0329513D02*
X0230901Y0329513D01*
X0231400Y0327914D02*
X0242819Y0327914D01*
X0242819Y0326316D02*
X0231332Y0326316D01*
X0230628Y0324717D02*
X0242819Y0324717D01*
X0244000Y0323119D02*
X0228499Y0323119D01*
X0246800Y0327394D02*
X0246800Y0247394D01*
X0250781Y0247989D02*
X0274000Y0247989D01*
X0274000Y0249587D02*
X0250781Y0249587D01*
X0249799Y0251186D02*
X0274000Y0251186D01*
X0274000Y0252784D02*
X0249600Y0252784D01*
X0249600Y0254383D02*
X0274000Y0254383D01*
X0274000Y0255981D02*
X0249600Y0255981D01*
X0249600Y0257580D02*
X0274000Y0257580D01*
X0274000Y0259178D02*
X0249600Y0259178D01*
X0249600Y0260777D02*
X0274000Y0260777D01*
X0274000Y0262375D02*
X0249600Y0262375D01*
X0249600Y0263974D02*
X0273430Y0263974D01*
X0272819Y0265572D02*
X0249600Y0265572D01*
X0249600Y0267171D02*
X0272819Y0267171D01*
X0272819Y0268769D02*
X0249600Y0268769D01*
X0249600Y0270368D02*
X0272983Y0270368D01*
X0274000Y0271966D02*
X0249600Y0271966D01*
X0249600Y0273565D02*
X0274000Y0273565D01*
X0274000Y0275163D02*
X0249600Y0275163D01*
X0249600Y0276762D02*
X0274000Y0276762D01*
X0274000Y0278360D02*
X0249600Y0278360D01*
X0249600Y0279959D02*
X0272730Y0279959D01*
X0272200Y0281557D02*
X0249600Y0281557D01*
X0249600Y0283156D02*
X0272200Y0283156D01*
X0272655Y0284755D02*
X0249600Y0284755D01*
X0249600Y0286353D02*
X0274253Y0286353D01*
X0274737Y0287952D02*
X0249600Y0287952D01*
X0249600Y0289550D02*
X0273139Y0289550D01*
X0272200Y0291149D02*
X0249600Y0291149D01*
X0249600Y0292747D02*
X0272200Y0292747D01*
X0272246Y0294346D02*
X0249600Y0294346D01*
X0249600Y0295944D02*
X0273845Y0295944D01*
X0276800Y0282394D02*
X0276800Y0267394D01*
X0276800Y0237394D01*
X0272819Y0236799D02*
X0234000Y0236799D01*
X0234000Y0236479D02*
X0234000Y0238309D01*
X0233300Y0240000D01*
X0232006Y0241294D01*
X0230315Y0241994D01*
X0223285Y0241994D01*
X0221594Y0241294D01*
X0220300Y0240000D01*
X0219600Y0238309D01*
X0219600Y0236479D01*
X0220300Y0234788D01*
X0221594Y0233495D01*
X0223285Y0232794D01*
X0230315Y0232794D01*
X0232006Y0233495D01*
X0233300Y0234788D01*
X0234000Y0236479D01*
X0233470Y0235201D02*
X0272819Y0235201D01*
X0273801Y0233602D02*
X0232113Y0233602D01*
X0232006Y0231294D02*
X0230315Y0231994D01*
X0223285Y0231994D01*
X0221594Y0231294D01*
X0220300Y0230000D01*
X0219600Y0228309D01*
X0219600Y0226479D01*
X0220300Y0224788D01*
X0221594Y0223495D01*
X0223285Y0222794D01*
X0230315Y0222794D01*
X0232006Y0223495D01*
X0233300Y0224788D01*
X0234000Y0226479D01*
X0234000Y0228309D01*
X0233300Y0230000D01*
X0232006Y0231294D01*
X0232894Y0230405D02*
X0308020Y0230405D01*
X0307819Y0228807D02*
X0233794Y0228807D01*
X0234000Y0227208D02*
X0307819Y0227208D01*
X0307819Y0225610D02*
X0233640Y0225610D01*
X0232522Y0224011D02*
X0308392Y0224011D01*
X0311800Y0227394D02*
X0311800Y0257394D01*
X0314600Y0251186D02*
X0318801Y0251186D01*
X0317819Y0249587D02*
X0314600Y0249587D01*
X0314600Y0247989D02*
X0317819Y0247989D01*
X0317819Y0246390D02*
X0314600Y0246390D01*
X0314600Y0244792D02*
X0317819Y0244792D01*
X0319000Y0243193D02*
X0314600Y0243193D01*
X0314600Y0241595D02*
X0319000Y0241595D01*
X0319000Y0239996D02*
X0314600Y0239996D01*
X0314600Y0238398D02*
X0319000Y0238398D01*
X0319000Y0236799D02*
X0314600Y0236799D01*
X0314600Y0235201D02*
X0319000Y0235201D01*
X0319000Y0233602D02*
X0314600Y0233602D01*
X0314600Y0232004D02*
X0319000Y0232004D01*
X0319000Y0230405D02*
X0315580Y0230405D01*
X0315781Y0228807D02*
X0319000Y0228807D01*
X0319000Y0227208D02*
X0315781Y0227208D01*
X0315781Y0225610D02*
X0319000Y0225610D01*
X0319000Y0224011D02*
X0315208Y0224011D01*
X0321800Y0217394D02*
X0321800Y0247394D01*
X0332296Y0209624D02*
X0336757Y0209624D01*
X0336557Y0208026D02*
X0332162Y0208026D01*
X0332029Y0206427D02*
X0336357Y0206427D01*
X0336158Y0204829D02*
X0331896Y0204829D01*
X0331763Y0203230D02*
X0335958Y0203230D01*
X0335758Y0201632D02*
X0331629Y0201632D01*
X0296800Y0197394D02*
X0296800Y0137394D01*
X0300781Y0136093D02*
X0308708Y0136093D01*
X0307819Y0134494D02*
X0300691Y0134494D01*
X0311800Y0132394D02*
X0311800Y0102394D01*
X0315264Y0105721D02*
X0353184Y0105721D01*
X0352819Y0107320D02*
X0314600Y0107320D01*
X0314600Y0108918D02*
X0353122Y0108918D01*
X0354292Y0110517D02*
X0314600Y0110517D01*
X0283053Y0073751D02*
X0249600Y0073751D01*
X0249600Y0072153D02*
X0282819Y0072153D01*
X0283253Y0070554D02*
X0250431Y0070554D01*
X0250781Y0068955D02*
X0284699Y0068955D01*
X0289534Y0065758D02*
X0250781Y0065758D01*
X0250781Y0067357D02*
X0390701Y0067357D01*
X0368392Y0054569D02*
X0339605Y0054569D01*
X0333995Y0054569D02*
X0034600Y0054569D01*
X0034600Y0056167D02*
X0332999Y0056167D01*
X0332819Y0057766D02*
X0034600Y0057766D01*
X0034600Y0059364D02*
X0058324Y0059364D01*
X0057200Y0060963D02*
X0034600Y0060963D01*
X0034600Y0062561D02*
X0057200Y0062561D01*
X0057200Y0064160D02*
X0034600Y0064160D01*
X0034600Y0065758D02*
X0058659Y0065758D01*
X0058733Y0068955D02*
X0045152Y0068955D01*
X0045781Y0070554D02*
X0057200Y0070554D01*
X0057200Y0072153D02*
X0047578Y0072153D01*
X0050775Y0073751D02*
X0057200Y0073751D01*
X0058250Y0075350D02*
X0053972Y0075350D01*
X0057169Y0076948D02*
X0059848Y0076948D01*
X0074038Y0083342D02*
X0117819Y0083342D01*
X0117819Y0084941D02*
X0075763Y0084941D01*
X0076400Y0086539D02*
X0119000Y0086539D01*
X0119000Y0088138D02*
X0076400Y0088138D01*
X0075809Y0089736D02*
X0119000Y0089736D01*
X0119000Y0091335D02*
X0074307Y0091335D01*
X0071800Y0087394D02*
X0041800Y0072394D01*
X0038448Y0068955D02*
X0034184Y0068955D01*
X0034600Y0067357D02*
X0112200Y0067357D01*
X0112200Y0068955D02*
X0090152Y0068955D01*
X0090781Y0070554D02*
X0113454Y0070554D01*
X0120146Y0070554D02*
X0153737Y0070554D01*
X0154977Y0071794D02*
X0152400Y0069217D01*
X0152400Y0067394D01*
X0152400Y0065572D01*
X0154977Y0062994D01*
X0156800Y0062994D01*
X0158623Y0062994D01*
X0161200Y0065572D01*
X0161200Y0067394D01*
X0156800Y0067394D01*
X0156800Y0062994D01*
X0156800Y0067394D01*
X0156800Y0067394D01*
X0156800Y0067394D01*
X0152400Y0067394D01*
X0156800Y0067394D01*
X0156800Y0067394D01*
X0161200Y0067394D01*
X0161200Y0069217D01*
X0158623Y0071794D01*
X0156800Y0071794D01*
X0156800Y0067394D01*
X0156800Y0071794D01*
X0154977Y0071794D01*
X0156800Y0070554D02*
X0156800Y0070554D01*
X0156800Y0068955D02*
X0156800Y0068955D01*
X0156800Y0067394D02*
X0156800Y0067394D01*
X0156800Y0067357D02*
X0156800Y0067357D01*
X0156800Y0065758D02*
X0156800Y0065758D01*
X0156800Y0064160D02*
X0156800Y0064160D01*
X0159788Y0064160D02*
X0168244Y0064160D01*
X0167819Y0064585D02*
X0168990Y0063413D01*
X0174610Y0063413D01*
X0175781Y0064585D01*
X0175781Y0070204D01*
X0174610Y0071375D01*
X0174600Y0071375D01*
X0174600Y0088413D01*
X0174610Y0088413D01*
X0175781Y0089585D01*
X0175781Y0095204D01*
X0174610Y0096375D01*
X0168990Y0096375D01*
X0167819Y0095204D01*
X0167819Y0089585D01*
X0168990Y0088413D01*
X0169000Y0088413D01*
X0169000Y0071375D01*
X0168990Y0071375D01*
X0167819Y0070204D01*
X0167819Y0064585D01*
X0167819Y0065758D02*
X0161200Y0065758D01*
X0161200Y0067357D02*
X0167819Y0067357D01*
X0167819Y0068955D02*
X0161200Y0068955D01*
X0159863Y0070554D02*
X0168169Y0070554D01*
X0169000Y0072153D02*
X0090781Y0072153D01*
X0090781Y0073751D02*
X0169000Y0073751D01*
X0169000Y0078547D02*
X0124743Y0078547D01*
X0125781Y0080145D02*
X0169000Y0080145D01*
X0169000Y0081744D02*
X0125781Y0081744D01*
X0125781Y0083342D02*
X0169000Y0083342D01*
X0169000Y0084941D02*
X0125781Y0084941D01*
X0124600Y0086539D02*
X0169000Y0086539D01*
X0169000Y0088138D02*
X0124600Y0088138D01*
X0124600Y0089736D02*
X0167819Y0089736D01*
X0167819Y0091335D02*
X0124600Y0091335D01*
X0124600Y0092933D02*
X0155549Y0092933D01*
X0155885Y0092794D02*
X0157715Y0092794D01*
X0159406Y0093495D01*
X0160700Y0094788D01*
X0161400Y0096479D01*
X0161400Y0098309D01*
X0160700Y0100000D01*
X0159406Y0101294D01*
X0157715Y0101994D01*
X0155885Y0101994D01*
X0154194Y0101294D01*
X0152900Y0100000D01*
X0152200Y0098309D01*
X0152200Y0096479D01*
X0152900Y0094788D01*
X0154194Y0093495D01*
X0155885Y0092794D01*
X0158050Y0092933D02*
X0167819Y0092933D01*
X0167819Y0094532D02*
X0160443Y0094532D01*
X0161255Y0096130D02*
X0168745Y0096130D01*
X0171800Y0092394D02*
X0171800Y0067394D01*
X0175781Y0067357D02*
X0242819Y0067357D01*
X0242819Y0068955D02*
X0175781Y0068955D01*
X0175431Y0070554D02*
X0243169Y0070554D01*
X0244000Y0072153D02*
X0174600Y0072153D01*
X0174600Y0073751D02*
X0244000Y0073751D01*
X0244000Y0075350D02*
X0174600Y0075350D01*
X0174600Y0076948D02*
X0244000Y0076948D01*
X0244000Y0078547D02*
X0229743Y0078547D01*
X0229610Y0078413D02*
X0230781Y0079585D01*
X0230781Y0085204D01*
X0229610Y0086375D01*
X0229600Y0086375D01*
X0229600Y0122794D01*
X0230315Y0122794D01*
X0232006Y0123495D01*
X0233300Y0124788D01*
X0234000Y0126479D01*
X0234000Y0128309D01*
X0233300Y0130000D01*
X0232006Y0131294D01*
X0230315Y0131994D01*
X0223285Y0131994D01*
X0221594Y0131294D01*
X0220300Y0130000D01*
X0219600Y0128309D01*
X0219600Y0126479D01*
X0220300Y0124788D01*
X0221594Y0123495D01*
X0223285Y0122794D01*
X0224000Y0122794D01*
X0224000Y0086375D01*
X0223990Y0086375D01*
X0222819Y0085204D01*
X0222819Y0079585D01*
X0223990Y0078413D01*
X0229610Y0078413D01*
X0230781Y0080145D02*
X0244000Y0080145D01*
X0244000Y0081744D02*
X0230781Y0081744D01*
X0230781Y0083342D02*
X0244000Y0083342D01*
X0244000Y0084941D02*
X0230781Y0084941D01*
X0229600Y0086539D02*
X0244000Y0086539D01*
X0244000Y0088138D02*
X0229600Y0088138D01*
X0229600Y0089736D02*
X0244000Y0089736D01*
X0244000Y0091335D02*
X0229600Y0091335D01*
X0229600Y0092933D02*
X0244000Y0092933D01*
X0244000Y0094532D02*
X0229600Y0094532D01*
X0229600Y0096130D02*
X0244000Y0096130D01*
X0244000Y0097729D02*
X0229600Y0097729D01*
X0229600Y0099327D02*
X0244000Y0099327D01*
X0244000Y0100926D02*
X0229600Y0100926D01*
X0229600Y0102524D02*
X0244000Y0102524D01*
X0244000Y0104123D02*
X0229600Y0104123D01*
X0229600Y0105721D02*
X0244000Y0105721D01*
X0244000Y0107320D02*
X0229600Y0107320D01*
X0229600Y0108918D02*
X0244000Y0108918D01*
X0244000Y0110517D02*
X0229600Y0110517D01*
X0229600Y0112115D02*
X0244000Y0112115D01*
X0244000Y0113714D02*
X0229600Y0113714D01*
X0229600Y0115312D02*
X0244000Y0115312D01*
X0244000Y0116911D02*
X0229600Y0116911D01*
X0229600Y0118509D02*
X0244000Y0118509D01*
X0244000Y0120108D02*
X0229600Y0120108D01*
X0229600Y0121706D02*
X0244000Y0121706D01*
X0244000Y0123305D02*
X0231548Y0123305D01*
X0233347Y0124903D02*
X0244000Y0124903D01*
X0244000Y0126502D02*
X0234000Y0126502D01*
X0234000Y0128100D02*
X0244000Y0128100D01*
X0244000Y0129699D02*
X0233424Y0129699D01*
X0231997Y0131297D02*
X0244000Y0131297D01*
X0244000Y0132896D02*
X0230561Y0132896D01*
X0233006Y0134494D02*
X0244000Y0134494D01*
X0244000Y0136093D02*
X0233840Y0136093D01*
X0234000Y0137691D02*
X0244000Y0137691D01*
X0244000Y0139290D02*
X0233594Y0139290D01*
X0223039Y0132896D02*
X0200561Y0132896D01*
X0200315Y0132794D02*
X0202006Y0133495D01*
X0203300Y0134788D01*
X0204000Y0136479D01*
X0204000Y0138309D01*
X0203300Y0140000D01*
X0202006Y0141294D01*
X0200315Y0141994D01*
X0193285Y0141994D01*
X0191594Y0141294D01*
X0190300Y0140000D01*
X0189600Y0138309D01*
X0189600Y0136479D01*
X0190300Y0134788D01*
X0191594Y0133495D01*
X0193285Y0132794D01*
X0200315Y0132794D01*
X0200315Y0131994D02*
X0193285Y0131994D01*
X0191594Y0131294D01*
X0190643Y0130342D01*
X0189610Y0131375D01*
X0183990Y0131375D01*
X0182819Y0130204D01*
X0182819Y0124585D01*
X0183990Y0123413D01*
X0184000Y0123413D01*
X0184000Y0106375D01*
X0183990Y0106375D01*
X0182819Y0105204D01*
X0182819Y0099585D01*
X0183990Y0098413D01*
X0189610Y0098413D01*
X0190781Y0099585D01*
X0190781Y0105204D01*
X0189610Y0106375D01*
X0189600Y0106375D01*
X0189600Y0123413D01*
X0189610Y0123413D01*
X0190643Y0124446D01*
X0191594Y0123495D01*
X0193285Y0122794D01*
X0194000Y0122794D01*
X0194000Y0101375D01*
X0193990Y0101375D01*
X0192819Y0100204D01*
X0192819Y0094585D01*
X0193990Y0093413D01*
X0199610Y0093413D01*
X0200781Y0094585D01*
X0200781Y0100204D01*
X0199610Y0101375D01*
X0199600Y0101375D01*
X0199600Y0122794D01*
X0200315Y0122794D01*
X0202006Y0123495D01*
X0203300Y0124788D01*
X0204000Y0126479D01*
X0204000Y0128309D01*
X0203300Y0130000D01*
X0202006Y0131294D01*
X0200315Y0131994D01*
X0201997Y0131297D02*
X0221603Y0131297D01*
X0220176Y0129699D02*
X0203424Y0129699D01*
X0204000Y0128100D02*
X0219600Y0128100D01*
X0219600Y0126502D02*
X0204000Y0126502D01*
X0203347Y0124903D02*
X0220253Y0124903D01*
X0222052Y0123305D02*
X0201548Y0123305D01*
X0199600Y0121706D02*
X0224000Y0121706D01*
X0224000Y0120108D02*
X0199600Y0120108D01*
X0199600Y0118509D02*
X0224000Y0118509D01*
X0224000Y0116911D02*
X0199600Y0116911D01*
X0199600Y0115312D02*
X0224000Y0115312D01*
X0224000Y0113714D02*
X0199600Y0113714D01*
X0199600Y0112115D02*
X0224000Y0112115D01*
X0224000Y0110517D02*
X0199600Y0110517D01*
X0199600Y0108918D02*
X0224000Y0108918D01*
X0224000Y0107320D02*
X0199600Y0107320D01*
X0199600Y0105721D02*
X0224000Y0105721D01*
X0224000Y0104123D02*
X0199600Y0104123D01*
X0199600Y0102524D02*
X0224000Y0102524D01*
X0224000Y0100926D02*
X0200059Y0100926D01*
X0200781Y0099327D02*
X0224000Y0099327D01*
X0224000Y0097729D02*
X0200781Y0097729D01*
X0200781Y0096130D02*
X0224000Y0096130D01*
X0224000Y0094532D02*
X0200728Y0094532D01*
X0196800Y0097394D02*
X0196800Y0127394D01*
X0191603Y0131297D02*
X0189687Y0131297D01*
X0190594Y0134494D02*
X0180691Y0134494D01*
X0180781Y0136093D02*
X0189760Y0136093D01*
X0189600Y0137691D02*
X0180781Y0137691D01*
X0180781Y0139290D02*
X0190006Y0139290D01*
X0191189Y0140888D02*
X0180096Y0140888D01*
X0180282Y0144086D02*
X0191003Y0144086D01*
X0189929Y0145684D02*
X0180781Y0145684D01*
X0180781Y0147283D02*
X0189600Y0147283D01*
X0183523Y0148881D02*
X0180781Y0148881D01*
X0180505Y0150480D02*
X0182819Y0150480D01*
X0176800Y0147394D02*
X0161800Y0172394D01*
X0165781Y0172859D02*
X0169000Y0172859D01*
X0169000Y0174457D02*
X0165781Y0174457D01*
X0164929Y0176056D02*
X0169000Y0176056D01*
X0169000Y0177654D02*
X0089600Y0177654D01*
X0089600Y0176056D02*
X0158671Y0176056D01*
X0157819Y0174457D02*
X0089600Y0174457D01*
X0089600Y0172859D02*
X0157819Y0172859D01*
X0157819Y0171260D02*
X0089600Y0171260D01*
X0089600Y0169662D02*
X0157819Y0169662D01*
X0161133Y0168063D02*
X0089600Y0168063D01*
X0089600Y0166465D02*
X0162092Y0166465D01*
X0163051Y0164866D02*
X0089600Y0164866D01*
X0089600Y0163268D02*
X0164011Y0163268D01*
X0164970Y0161669D02*
X0089600Y0161669D01*
X0090781Y0160071D02*
X0165929Y0160071D01*
X0166888Y0158472D02*
X0090781Y0158472D01*
X0090781Y0156874D02*
X0119774Y0156874D01*
X0118176Y0155275D02*
X0090781Y0155275D01*
X0089873Y0153677D02*
X0117200Y0153677D01*
X0123826Y0156874D02*
X0159774Y0156874D01*
X0158176Y0155275D02*
X0125424Y0155275D01*
X0126400Y0153677D02*
X0157200Y0153677D01*
X0161800Y0152394D02*
X0161800Y0127394D01*
X0158705Y0121994D02*
X0154895Y0121994D01*
X0152200Y0119300D01*
X0152200Y0115489D01*
X0154895Y0112794D01*
X0158705Y0112794D01*
X0161400Y0115489D01*
X0161400Y0119300D01*
X0158705Y0121994D01*
X0158993Y0121706D02*
X0174000Y0121706D01*
X0172819Y0120108D02*
X0160592Y0120108D01*
X0161400Y0118509D02*
X0172819Y0118509D01*
X0172819Y0116911D02*
X0161400Y0116911D01*
X0161223Y0115312D02*
X0172819Y0115312D01*
X0173690Y0113714D02*
X0159625Y0113714D01*
X0153975Y0113714D02*
X0124600Y0113714D01*
X0124600Y0115312D02*
X0152376Y0115312D01*
X0152200Y0116911D02*
X0124600Y0116911D01*
X0124600Y0118509D02*
X0152200Y0118509D01*
X0153008Y0120108D02*
X0124600Y0120108D01*
X0124600Y0121706D02*
X0154607Y0121706D01*
X0167819Y0110194D02*
X0140781Y0110194D01*
X0140781Y0110204D01*
X0139610Y0111375D01*
X0133990Y0111375D01*
X0132819Y0110204D01*
X0132819Y0104585D01*
X0133990Y0103413D01*
X0139610Y0103413D01*
X0140781Y0104585D01*
X0140781Y0104594D01*
X0167819Y0104594D01*
X0167819Y0104585D01*
X0168990Y0103413D01*
X0174610Y0103413D01*
X0175781Y0104585D01*
X0175781Y0110204D01*
X0174610Y0111375D01*
X0168990Y0111375D01*
X0167819Y0110204D01*
X0167819Y0110194D01*
X0168132Y0110517D02*
X0140468Y0110517D01*
X0136800Y0107394D02*
X0171800Y0107394D01*
X0175781Y0107320D02*
X0184000Y0107320D01*
X0184000Y0108918D02*
X0175781Y0108918D01*
X0175468Y0110517D02*
X0184000Y0110517D01*
X0184000Y0112115D02*
X0124600Y0112115D01*
X0124600Y0110517D02*
X0133132Y0110517D01*
X0132819Y0108918D02*
X0124600Y0108918D01*
X0124600Y0107320D02*
X0132819Y0107320D01*
X0132819Y0105721D02*
X0124600Y0105721D01*
X0124600Y0104123D02*
X0133281Y0104123D01*
X0140319Y0104123D02*
X0168281Y0104123D01*
X0175319Y0104123D02*
X0182819Y0104123D01*
X0182819Y0102524D02*
X0124600Y0102524D01*
X0124600Y0100926D02*
X0153826Y0100926D01*
X0152622Y0099327D02*
X0124600Y0099327D01*
X0124600Y0097729D02*
X0152200Y0097729D01*
X0152345Y0096130D02*
X0124600Y0096130D01*
X0124600Y0094532D02*
X0153157Y0094532D01*
X0161400Y0097729D02*
X0192819Y0097729D01*
X0192819Y0099327D02*
X0190524Y0099327D01*
X0190781Y0100926D02*
X0193541Y0100926D01*
X0194000Y0102524D02*
X0190781Y0102524D01*
X0190781Y0104123D02*
X0194000Y0104123D01*
X0194000Y0105721D02*
X0190264Y0105721D01*
X0189600Y0107320D02*
X0194000Y0107320D01*
X0194000Y0108918D02*
X0189600Y0108918D01*
X0189600Y0110517D02*
X0194000Y0110517D01*
X0194000Y0112115D02*
X0189600Y0112115D01*
X0189600Y0113714D02*
X0194000Y0113714D01*
X0194000Y0115312D02*
X0189600Y0115312D01*
X0189600Y0116911D02*
X0194000Y0116911D01*
X0194000Y0118509D02*
X0189600Y0118509D01*
X0189600Y0120108D02*
X0194000Y0120108D01*
X0194000Y0121706D02*
X0189600Y0121706D01*
X0189600Y0123305D02*
X0192052Y0123305D01*
X0186800Y0127394D02*
X0186800Y0102394D01*
X0182819Y0100926D02*
X0159774Y0100926D01*
X0160978Y0099327D02*
X0183076Y0099327D01*
X0175781Y0094532D02*
X0192872Y0094532D01*
X0192819Y0096130D02*
X0174855Y0096130D01*
X0175781Y0092933D02*
X0224000Y0092933D01*
X0224000Y0091335D02*
X0175781Y0091335D01*
X0175781Y0089736D02*
X0224000Y0089736D01*
X0224000Y0088138D02*
X0174600Y0088138D01*
X0174600Y0086539D02*
X0224000Y0086539D01*
X0222819Y0084941D02*
X0174600Y0084941D01*
X0174600Y0083342D02*
X0222819Y0083342D01*
X0222819Y0081744D02*
X0174600Y0081744D01*
X0174600Y0080145D02*
X0222819Y0080145D01*
X0223857Y0078547D02*
X0174600Y0078547D01*
X0175781Y0065758D02*
X0242819Y0065758D01*
X0243244Y0064160D02*
X0175356Y0064160D01*
X0153812Y0064160D02*
X0120071Y0064160D01*
X0121400Y0065758D02*
X0152400Y0065758D01*
X0152400Y0067357D02*
X0121400Y0067357D01*
X0121400Y0068955D02*
X0152400Y0068955D01*
X0141800Y0051794D02*
X0139977Y0051794D01*
X0137400Y0049217D01*
X0137400Y0047394D01*
X0141800Y0047394D01*
X0141800Y0051794D01*
X0141800Y0051372D02*
X0141800Y0051372D01*
X0141800Y0049773D02*
X0141800Y0049773D01*
X0141800Y0048175D02*
X0141800Y0048175D01*
X0141800Y0047394D02*
X0141800Y0047394D01*
X0141800Y0046576D02*
X0141800Y0046576D01*
X0141800Y0044978D02*
X0141800Y0044978D01*
X0141800Y0043379D02*
X0141800Y0043379D01*
X0144008Y0043379D02*
X0297899Y0043379D01*
X0298754Y0044978D02*
X0145606Y0044978D01*
X0145643Y0049773D02*
X0368791Y0049773D01*
X0367914Y0051372D02*
X0144045Y0051372D01*
X0139555Y0051372D02*
X0124217Y0051372D01*
X0124406Y0051294D02*
X0122715Y0051994D01*
X0120885Y0051994D01*
X0119194Y0051294D01*
X0117900Y0050000D01*
X0117200Y0048309D01*
X0117200Y0046479D01*
X0117900Y0044788D01*
X0119194Y0043495D01*
X0120885Y0042794D01*
X0122715Y0042794D01*
X0124406Y0043495D01*
X0125700Y0044788D01*
X0126400Y0046479D01*
X0126400Y0048309D01*
X0125700Y0050000D01*
X0124406Y0051294D01*
X0125794Y0049773D02*
X0137957Y0049773D01*
X0137400Y0048175D02*
X0126400Y0048175D01*
X0126400Y0046576D02*
X0137400Y0046576D01*
X0137994Y0044978D02*
X0125778Y0044978D01*
X0124128Y0043379D02*
X0139592Y0043379D01*
X0119472Y0043379D02*
X0031790Y0043379D01*
X0033389Y0044978D02*
X0117822Y0044978D01*
X0117200Y0046576D02*
X0034492Y0046576D01*
X0034600Y0048175D02*
X0117200Y0048175D01*
X0117806Y0049773D02*
X0034600Y0049773D01*
X0034600Y0051372D02*
X0119383Y0051372D01*
X0068849Y0104123D02*
X0039600Y0104123D01*
X0039600Y0105721D02*
X0067400Y0105721D01*
X0067400Y0107320D02*
X0039600Y0107320D01*
X0039600Y0108918D02*
X0067400Y0108918D01*
X0057000Y0128100D02*
X0056600Y0128100D01*
X0056600Y0129699D02*
X0057000Y0129699D01*
X0057000Y0131297D02*
X0056600Y0131297D01*
X0056600Y0132896D02*
X0057000Y0132896D01*
X0057000Y0134494D02*
X0056600Y0134494D01*
X0056600Y0136093D02*
X0057000Y0136093D01*
X0060879Y0136093D02*
X0101305Y0136093D01*
X0101944Y0134494D02*
X0061901Y0134494D01*
X0039600Y0124903D02*
X0093068Y0124903D01*
X0094667Y0123305D02*
X0039600Y0123305D01*
X0086800Y0157394D02*
X0086800Y0177394D01*
X0076800Y0177394D01*
X0076800Y0187394D01*
X0080781Y0187245D02*
X0089000Y0187245D01*
X0089000Y0185647D02*
X0080781Y0185647D01*
X0080245Y0184048D02*
X0089000Y0184048D01*
X0089000Y0182450D02*
X0079600Y0182450D01*
X0079600Y0180851D02*
X0089408Y0180851D01*
X0088901Y0179253D02*
X0169000Y0179253D01*
X0171800Y0182394D02*
X0091800Y0182394D01*
X0091800Y0197394D01*
X0031800Y0197394D01*
X0080542Y0190442D02*
X0089000Y0190442D01*
X0089000Y0188844D02*
X0080781Y0188844D01*
X0094600Y0188844D02*
X0103560Y0188844D01*
X0102819Y0190442D02*
X0094600Y0190442D01*
X0094600Y0187245D02*
X0189600Y0187245D01*
X0189600Y0186479D02*
X0190300Y0184788D01*
X0191594Y0183495D01*
X0193285Y0182794D01*
X0200315Y0182794D01*
X0202006Y0183495D01*
X0203300Y0184788D01*
X0204000Y0186479D01*
X0204000Y0188309D01*
X0203300Y0190000D01*
X0202006Y0191294D01*
X0200315Y0191994D01*
X0193285Y0191994D01*
X0191594Y0191294D01*
X0190300Y0190000D01*
X0189600Y0188309D01*
X0189600Y0186479D01*
X0189945Y0185647D02*
X0094600Y0185647D01*
X0110040Y0188844D02*
X0189821Y0188844D01*
X0190743Y0190442D02*
X0110781Y0190442D01*
X0084000Y0171260D02*
X0079725Y0171260D01*
X0080781Y0169662D02*
X0084000Y0169662D01*
X0096800Y0131297D02*
X0096800Y0131297D01*
X0096800Y0129699D02*
X0096800Y0129699D01*
X0096800Y0128100D02*
X0096800Y0128100D01*
X0096800Y0127394D02*
X0096800Y0127394D01*
X0096800Y0126502D02*
X0096800Y0126502D01*
X0096800Y0124903D02*
X0096800Y0124903D01*
X0096800Y0123305D02*
X0096800Y0123305D01*
X0164600Y0144086D02*
X0173318Y0144086D01*
X0172819Y0145684D02*
X0164600Y0145684D01*
X0164600Y0147283D02*
X0172819Y0147283D01*
X0172643Y0148881D02*
X0164792Y0148881D01*
X0166391Y0150480D02*
X0171683Y0150480D01*
X0170724Y0152078D02*
X0166400Y0152078D01*
X0166400Y0153677D02*
X0169765Y0153677D01*
X0168806Y0155275D02*
X0165424Y0155275D01*
X0163826Y0156874D02*
X0167847Y0156874D01*
X0167819Y0168063D02*
X0167664Y0168063D01*
X0168437Y0169662D02*
X0166705Y0169662D01*
X0165781Y0171260D02*
X0169000Y0171260D01*
X0171800Y0167394D02*
X0171800Y0182394D01*
X0174106Y0184048D02*
X0191041Y0184048D01*
X0191152Y0180851D02*
X0190134Y0180851D01*
X0202448Y0180851D02*
X0221152Y0180851D01*
X0219991Y0179253D02*
X0203609Y0179253D01*
X0204000Y0177654D02*
X0219600Y0177654D01*
X0219775Y0176056D02*
X0203825Y0176056D01*
X0202968Y0174457D02*
X0220632Y0174457D01*
X0223129Y0172859D02*
X0200471Y0172859D01*
X0202039Y0171260D02*
X0221561Y0171260D01*
X0220160Y0169662D02*
X0203440Y0169662D01*
X0204000Y0168063D02*
X0219600Y0168063D01*
X0219606Y0166465D02*
X0203994Y0166465D01*
X0203332Y0164866D02*
X0220268Y0164866D01*
X0222142Y0163268D02*
X0201458Y0163268D01*
X0201100Y0161669D02*
X0222500Y0161669D01*
X0220371Y0160071D02*
X0203229Y0160071D01*
X0203933Y0158472D02*
X0219667Y0158472D01*
X0219600Y0156874D02*
X0204000Y0156874D01*
X0203501Y0155275D02*
X0220099Y0155275D01*
X0221412Y0153677D02*
X0202188Y0153677D01*
X0202820Y0150480D02*
X0220780Y0150480D01*
X0219837Y0148881D02*
X0203763Y0148881D01*
X0204000Y0147283D02*
X0219600Y0147283D01*
X0219929Y0145684D02*
X0203671Y0145684D01*
X0202597Y0144086D02*
X0221003Y0144086D01*
X0221189Y0140888D02*
X0202411Y0140888D01*
X0203594Y0139290D02*
X0220006Y0139290D01*
X0219600Y0137691D02*
X0204000Y0137691D01*
X0203840Y0136093D02*
X0219760Y0136093D01*
X0220594Y0134494D02*
X0203006Y0134494D01*
X0193039Y0132896D02*
X0179600Y0132896D01*
X0179600Y0131297D02*
X0183913Y0131297D01*
X0182819Y0129699D02*
X0179600Y0129699D01*
X0179600Y0128100D02*
X0182819Y0128100D01*
X0182819Y0126502D02*
X0179600Y0126502D01*
X0179600Y0124903D02*
X0182819Y0124903D01*
X0184000Y0123305D02*
X0179600Y0123305D01*
X0179600Y0121706D02*
X0184000Y0121706D01*
X0184000Y0120108D02*
X0180781Y0120108D01*
X0180781Y0118509D02*
X0184000Y0118509D01*
X0184000Y0116911D02*
X0180781Y0116911D01*
X0180781Y0115312D02*
X0184000Y0115312D01*
X0184000Y0113714D02*
X0179910Y0113714D01*
X0176800Y0117394D02*
X0176800Y0137394D01*
X0175781Y0105721D02*
X0183336Y0105721D01*
X0226800Y0127394D02*
X0226800Y0082394D01*
X0246800Y0067394D02*
X0246800Y0157394D01*
X0242819Y0156874D02*
X0234000Y0156874D01*
X0233933Y0158472D02*
X0242819Y0158472D01*
X0242819Y0160071D02*
X0233229Y0160071D01*
X0233501Y0155275D02*
X0242819Y0155275D01*
X0243727Y0153677D02*
X0232188Y0153677D01*
X0221041Y0184048D02*
X0202559Y0184048D01*
X0203655Y0185647D02*
X0219945Y0185647D01*
X0219600Y0187245D02*
X0204000Y0187245D01*
X0203779Y0188844D02*
X0219821Y0188844D01*
X0220743Y0190442D02*
X0202857Y0190442D01*
X0202151Y0193639D02*
X0221882Y0193639D01*
X0221894Y0193631D02*
X0222511Y0193317D01*
X0223170Y0193103D01*
X0223854Y0192994D01*
X0226800Y0192994D01*
X0229746Y0192994D01*
X0230430Y0193103D01*
X0231089Y0193317D01*
X0231706Y0193631D01*
X0232266Y0194038D01*
X0232756Y0194528D01*
X0233163Y0195088D01*
X0233478Y0195705D01*
X0233692Y0196364D01*
X0233800Y0197048D01*
X0233800Y0197394D01*
X0226800Y0197394D01*
X0226800Y0192994D01*
X0226800Y0197394D01*
X0226800Y0197394D01*
X0226800Y0197394D01*
X0219800Y0197394D01*
X0219800Y0197048D01*
X0219908Y0196364D01*
X0220122Y0195705D01*
X0220437Y0195088D01*
X0220844Y0194528D01*
X0221334Y0194038D01*
X0221894Y0193631D01*
X0220360Y0195238D02*
X0203486Y0195238D01*
X0204000Y0196836D02*
X0219833Y0196836D01*
X0219800Y0197394D02*
X0226800Y0197394D01*
X0226800Y0197394D01*
X0233800Y0197394D01*
X0233800Y0197740D01*
X0233692Y0198425D01*
X0233478Y0199083D01*
X0233163Y0199700D01*
X0232756Y0200261D01*
X0232266Y0200750D01*
X0231706Y0201157D01*
X0231089Y0201472D01*
X0230430Y0201686D01*
X0229746Y0201794D01*
X0226800Y0201794D01*
X0226800Y0197394D01*
X0226800Y0201794D01*
X0223854Y0201794D01*
X0223170Y0201686D01*
X0222511Y0201472D01*
X0221894Y0201157D01*
X0221334Y0200750D01*
X0220844Y0200261D01*
X0220437Y0199700D01*
X0220122Y0199083D01*
X0219908Y0198425D01*
X0219800Y0197740D01*
X0219800Y0197394D01*
X0219912Y0198435D02*
X0203948Y0198435D01*
X0203266Y0200033D02*
X0220679Y0200033D01*
X0223004Y0201632D02*
X0201190Y0201632D01*
X0200315Y0202794D02*
X0202006Y0203495D01*
X0203300Y0204788D01*
X0204000Y0206479D01*
X0204000Y0208309D01*
X0203300Y0210000D01*
X0202006Y0211294D01*
X0200315Y0211994D01*
X0193285Y0211994D01*
X0191594Y0211294D01*
X0190300Y0210000D01*
X0189600Y0208309D01*
X0189600Y0206479D01*
X0190300Y0204788D01*
X0191594Y0203495D01*
X0193285Y0202794D01*
X0200315Y0202794D01*
X0201368Y0203230D02*
X0222232Y0203230D01*
X0221594Y0203495D02*
X0223285Y0202794D01*
X0230315Y0202794D01*
X0232006Y0203495D01*
X0233300Y0204788D01*
X0234000Y0206479D01*
X0234000Y0208309D01*
X0233300Y0210000D01*
X0232006Y0211294D01*
X0230315Y0211994D01*
X0223285Y0211994D01*
X0221594Y0211294D01*
X0220300Y0210000D01*
X0219600Y0208309D01*
X0219600Y0206479D01*
X0220300Y0204788D01*
X0221594Y0203495D01*
X0220284Y0204829D02*
X0203316Y0204829D01*
X0203979Y0206427D02*
X0219621Y0206427D01*
X0219600Y0208026D02*
X0204000Y0208026D01*
X0203455Y0209624D02*
X0220145Y0209624D01*
X0221523Y0211223D02*
X0202077Y0211223D01*
X0201089Y0213317D02*
X0201706Y0213631D01*
X0202266Y0214038D01*
X0202756Y0214528D01*
X0203163Y0215088D01*
X0203478Y0215705D01*
X0203692Y0216364D01*
X0203800Y0217048D01*
X0203800Y0217394D01*
X0196800Y0217394D01*
X0196800Y0212994D01*
X0199746Y0212994D01*
X0200430Y0213103D01*
X0201089Y0213317D01*
X0202648Y0214420D02*
X0220669Y0214420D01*
X0220300Y0214788D02*
X0221594Y0213495D01*
X0223285Y0212794D01*
X0230315Y0212794D01*
X0232006Y0213495D01*
X0233300Y0214788D01*
X0234000Y0216479D01*
X0234000Y0218309D01*
X0233300Y0220000D01*
X0232006Y0221294D01*
X0230315Y0221994D01*
X0223285Y0221994D01*
X0221594Y0221294D01*
X0220300Y0220000D01*
X0219600Y0218309D01*
X0219600Y0216479D01*
X0220300Y0214788D01*
X0219791Y0216019D02*
X0203579Y0216019D01*
X0203800Y0217394D02*
X0203800Y0217740D01*
X0203692Y0218425D01*
X0203478Y0219083D01*
X0203163Y0219700D01*
X0202756Y0220261D01*
X0202266Y0220750D01*
X0201706Y0221157D01*
X0201089Y0221472D01*
X0200430Y0221686D01*
X0199746Y0221794D01*
X0196800Y0221794D01*
X0196800Y0217394D01*
X0196800Y0217394D01*
X0196800Y0212994D01*
X0193854Y0212994D01*
X0193170Y0213103D01*
X0192511Y0213317D01*
X0191894Y0213631D01*
X0191334Y0214038D01*
X0190844Y0214528D01*
X0190437Y0215088D01*
X0190122Y0215705D01*
X0189908Y0216364D01*
X0189800Y0217048D01*
X0189800Y0217394D01*
X0196800Y0217394D01*
X0196800Y0217394D01*
X0196800Y0217394D01*
X0203800Y0217394D01*
X0203800Y0217617D02*
X0219600Y0217617D01*
X0219975Y0219216D02*
X0203410Y0219216D01*
X0202179Y0220814D02*
X0221114Y0220814D01*
X0221078Y0224011D02*
X0202522Y0224011D01*
X0203640Y0225610D02*
X0219960Y0225610D01*
X0219600Y0227208D02*
X0204000Y0227208D01*
X0203794Y0228807D02*
X0219806Y0228807D01*
X0220706Y0230405D02*
X0202894Y0230405D01*
X0202113Y0233602D02*
X0221487Y0233602D01*
X0220130Y0235201D02*
X0203470Y0235201D01*
X0204000Y0236799D02*
X0219600Y0236799D01*
X0219637Y0238398D02*
X0203963Y0238398D01*
X0203301Y0239996D02*
X0220299Y0239996D01*
X0222321Y0241595D02*
X0201279Y0241595D01*
X0201278Y0243193D02*
X0222322Y0243193D01*
X0221594Y0243495D02*
X0223285Y0242794D01*
X0230315Y0242794D01*
X0232006Y0243495D01*
X0233300Y0244788D01*
X0234000Y0246479D01*
X0234000Y0248309D01*
X0233300Y0250000D01*
X0232006Y0251294D01*
X0230315Y0251994D01*
X0223285Y0251994D01*
X0221594Y0251294D01*
X0220300Y0250000D01*
X0219600Y0248309D01*
X0219600Y0246479D01*
X0220300Y0244788D01*
X0221594Y0243495D01*
X0220299Y0244792D02*
X0203301Y0244792D01*
X0203963Y0246390D02*
X0219637Y0246390D01*
X0219600Y0247989D02*
X0204000Y0247989D01*
X0203471Y0249587D02*
X0220129Y0249587D01*
X0221486Y0251186D02*
X0202114Y0251186D01*
X0202894Y0254383D02*
X0220706Y0254383D01*
X0219806Y0255981D02*
X0203794Y0255981D01*
X0204000Y0257580D02*
X0219600Y0257580D01*
X0219960Y0259178D02*
X0203640Y0259178D01*
X0202523Y0260777D02*
X0221077Y0260777D01*
X0226800Y0257394D02*
X0226800Y0292394D01*
X0230781Y0292747D02*
X0244000Y0292747D01*
X0244000Y0291149D02*
X0230781Y0291149D01*
X0230746Y0289550D02*
X0244000Y0289550D01*
X0244000Y0287952D02*
X0229600Y0287952D01*
X0229600Y0286353D02*
X0244000Y0286353D01*
X0244000Y0284755D02*
X0229600Y0284755D01*
X0229600Y0283156D02*
X0244000Y0283156D01*
X0244000Y0281557D02*
X0229600Y0281557D01*
X0229600Y0279959D02*
X0244000Y0279959D01*
X0244000Y0278360D02*
X0229600Y0278360D01*
X0229600Y0276762D02*
X0244000Y0276762D01*
X0244000Y0275163D02*
X0229600Y0275163D01*
X0229600Y0273565D02*
X0244000Y0273565D01*
X0244000Y0271966D02*
X0229600Y0271966D01*
X0229600Y0270368D02*
X0244000Y0270368D01*
X0244000Y0268769D02*
X0229600Y0268769D01*
X0229600Y0267171D02*
X0244000Y0267171D01*
X0244000Y0265572D02*
X0229600Y0265572D01*
X0229600Y0263974D02*
X0244000Y0263974D01*
X0244000Y0262375D02*
X0229600Y0262375D01*
X0232523Y0260777D02*
X0244000Y0260777D01*
X0244000Y0259178D02*
X0233640Y0259178D01*
X0234000Y0257580D02*
X0244000Y0257580D01*
X0244000Y0255981D02*
X0233794Y0255981D01*
X0232894Y0254383D02*
X0244000Y0254383D01*
X0244000Y0252784D02*
X0189600Y0252784D01*
X0193854Y0221794D02*
X0193170Y0221686D01*
X0192511Y0221472D01*
X0191894Y0221157D01*
X0191334Y0220750D01*
X0190844Y0220261D01*
X0190437Y0219700D01*
X0190122Y0219083D01*
X0189908Y0218425D01*
X0189800Y0217740D01*
X0189800Y0217394D01*
X0196800Y0217394D01*
X0196800Y0221794D01*
X0193854Y0221794D01*
X0191421Y0220814D02*
X0189600Y0220814D01*
X0189600Y0219216D02*
X0190190Y0219216D01*
X0189800Y0217617D02*
X0189600Y0217617D01*
X0189600Y0216019D02*
X0190021Y0216019D01*
X0189600Y0214420D02*
X0190952Y0214420D01*
X0189600Y0212822D02*
X0223219Y0212822D01*
X0230381Y0212822D02*
X0240008Y0212822D01*
X0240666Y0213094D02*
X0238571Y0212226D01*
X0236968Y0210623D01*
X0236100Y0208528D01*
X0236100Y0206260D01*
X0236968Y0204165D01*
X0238571Y0202562D01*
X0240666Y0201694D01*
X0242934Y0201694D01*
X0245029Y0202562D01*
X0246632Y0204165D01*
X0246919Y0204858D01*
X0247096Y0204512D01*
X0247605Y0203811D01*
X0248217Y0203199D01*
X0248917Y0202690D01*
X0249689Y0202297D01*
X0250512Y0202030D01*
X0251367Y0201894D01*
X0251600Y0201894D01*
X0251600Y0207194D01*
X0252000Y0207194D01*
X0252000Y0201894D01*
X0252233Y0201894D01*
X0253088Y0202030D01*
X0253911Y0202297D01*
X0254683Y0202690D01*
X0255383Y0203199D01*
X0255995Y0203811D01*
X0256504Y0204512D01*
X0256681Y0204858D01*
X0256968Y0204165D01*
X0258571Y0202562D01*
X0260666Y0201694D01*
X0262934Y0201694D01*
X0265029Y0202562D01*
X0266632Y0204165D01*
X0267500Y0206260D01*
X0267500Y0208528D01*
X0266632Y0210623D01*
X0265029Y0212226D01*
X0264600Y0212404D01*
X0264600Y0213413D01*
X0264610Y0213413D01*
X0265781Y0214585D01*
X0265781Y0220204D01*
X0264610Y0221375D01*
X0258990Y0221375D01*
X0257819Y0220204D01*
X0257819Y0214585D01*
X0258990Y0213413D01*
X0259000Y0213413D01*
X0259000Y0212404D01*
X0258571Y0212226D01*
X0256968Y0210623D01*
X0256681Y0209930D01*
X0256504Y0210277D01*
X0255995Y0210977D01*
X0255383Y0211589D01*
X0254683Y0212098D01*
X0253911Y0212491D01*
X0253088Y0212759D01*
X0252233Y0212894D01*
X0252000Y0212894D01*
X0252000Y0207594D01*
X0251600Y0207594D01*
X0251600Y0212894D01*
X0251367Y0212894D01*
X0250512Y0212759D01*
X0249689Y0212491D01*
X0248917Y0212098D01*
X0248217Y0211589D01*
X0247605Y0210977D01*
X0247096Y0210277D01*
X0246919Y0209930D01*
X0246632Y0210623D01*
X0245029Y0212226D01*
X0242934Y0213094D01*
X0240666Y0213094D01*
X0243592Y0212822D02*
X0250908Y0212822D01*
X0251600Y0212822D02*
X0252000Y0212822D01*
X0252692Y0212822D02*
X0259000Y0212822D01*
X0257984Y0214420D02*
X0232931Y0214420D01*
X0233809Y0216019D02*
X0257819Y0216019D01*
X0257819Y0217617D02*
X0234000Y0217617D01*
X0233625Y0219216D02*
X0257819Y0219216D01*
X0258429Y0220814D02*
X0232485Y0220814D01*
X0232077Y0211223D02*
X0237568Y0211223D01*
X0236554Y0209624D02*
X0233455Y0209624D01*
X0234000Y0208026D02*
X0236100Y0208026D01*
X0236100Y0206427D02*
X0233979Y0206427D01*
X0233316Y0204829D02*
X0236693Y0204829D01*
X0237903Y0203230D02*
X0231368Y0203230D01*
X0230596Y0201632D02*
X0274000Y0201632D01*
X0274000Y0203230D02*
X0265697Y0203230D01*
X0266907Y0204829D02*
X0274000Y0204829D01*
X0274000Y0206427D02*
X0267500Y0206427D01*
X0267500Y0208026D02*
X0274000Y0208026D01*
X0274000Y0209624D02*
X0267046Y0209624D01*
X0266032Y0211223D02*
X0274000Y0211223D01*
X0274000Y0212822D02*
X0264600Y0212822D01*
X0265616Y0214420D02*
X0272984Y0214420D01*
X0272819Y0216019D02*
X0265781Y0216019D01*
X0265781Y0217617D02*
X0272819Y0217617D01*
X0272819Y0219216D02*
X0265781Y0219216D01*
X0265171Y0220814D02*
X0273429Y0220814D01*
X0276800Y0217394D02*
X0276800Y0187394D01*
X0274000Y0193639D02*
X0231718Y0193639D01*
X0233240Y0195238D02*
X0274000Y0195238D01*
X0274000Y0196836D02*
X0233766Y0196836D01*
X0233688Y0198435D02*
X0274000Y0198435D01*
X0274000Y0200033D02*
X0232921Y0200033D01*
X0226800Y0200033D02*
X0226800Y0200033D01*
X0226800Y0198435D02*
X0226800Y0198435D01*
X0226800Y0197394D02*
X0226800Y0197394D01*
X0226800Y0196836D02*
X0226800Y0196836D01*
X0226800Y0195238D02*
X0226800Y0195238D01*
X0226800Y0193639D02*
X0226800Y0193639D01*
X0226800Y0201632D02*
X0226800Y0201632D01*
X0245697Y0203230D02*
X0248186Y0203230D01*
X0246934Y0204829D02*
X0246907Y0204829D01*
X0251600Y0204829D02*
X0252000Y0204829D01*
X0252000Y0206427D02*
X0251600Y0206427D01*
X0251600Y0208026D02*
X0252000Y0208026D01*
X0252000Y0209624D02*
X0251600Y0209624D01*
X0251600Y0211223D02*
X0252000Y0211223D01*
X0255749Y0211223D02*
X0257568Y0211223D01*
X0261800Y0207394D02*
X0261800Y0217394D01*
X0247851Y0211223D02*
X0246032Y0211223D01*
X0251600Y0203230D02*
X0252000Y0203230D01*
X0255414Y0203230D02*
X0257903Y0203230D01*
X0256693Y0204829D02*
X0256666Y0204829D01*
X0272819Y0238398D02*
X0233963Y0238398D01*
X0233301Y0239996D02*
X0272819Y0239996D01*
X0274000Y0241595D02*
X0231279Y0241595D01*
X0231278Y0243193D02*
X0274000Y0243193D01*
X0274000Y0244792D02*
X0250781Y0244792D01*
X0250781Y0246390D02*
X0274000Y0246390D01*
X0243801Y0251186D02*
X0232114Y0251186D01*
X0233471Y0249587D02*
X0242819Y0249587D01*
X0242819Y0247989D02*
X0234000Y0247989D01*
X0233963Y0246390D02*
X0242819Y0246390D01*
X0242819Y0244792D02*
X0233301Y0244792D01*
X0196800Y0220814D02*
X0196800Y0220814D01*
X0196800Y0219216D02*
X0196800Y0219216D01*
X0196800Y0217617D02*
X0196800Y0217617D01*
X0196800Y0217394D02*
X0196800Y0217394D01*
X0196800Y0216019D02*
X0196800Y0216019D01*
X0196800Y0214420D02*
X0196800Y0214420D01*
X0191523Y0211223D02*
X0189600Y0211223D01*
X0189600Y0209624D02*
X0190145Y0209624D01*
X0189600Y0208026D02*
X0189600Y0208026D01*
X0189600Y0206427D02*
X0189621Y0206427D01*
X0189600Y0204829D02*
X0190284Y0204829D01*
X0189600Y0203230D02*
X0192232Y0203230D01*
X0192410Y0201632D02*
X0189600Y0201632D01*
X0182819Y0200033D02*
X0145781Y0200033D01*
X0144631Y0198435D02*
X0182819Y0198435D01*
X0189836Y0193639D02*
X0191449Y0193639D01*
X0174832Y0203230D02*
X0158859Y0203230D01*
X0158623Y0202994D02*
X0161200Y0205572D01*
X0161200Y0207394D01*
X0156800Y0207394D01*
X0156800Y0202994D01*
X0158623Y0202994D01*
X0156800Y0202994D02*
X0156800Y0207394D01*
X0156800Y0207394D01*
X0156800Y0207394D01*
X0152400Y0207394D01*
X0152400Y0205572D01*
X0154977Y0202994D01*
X0156800Y0202994D01*
X0156800Y0203230D02*
X0156800Y0203230D01*
X0156800Y0204829D02*
X0156800Y0204829D01*
X0156800Y0206427D02*
X0156800Y0206427D01*
X0156800Y0207394D02*
X0156800Y0207394D01*
X0161200Y0207394D01*
X0161200Y0209217D01*
X0158623Y0211794D01*
X0156800Y0211794D01*
X0156800Y0207394D01*
X0152400Y0207394D01*
X0152400Y0209217D01*
X0154977Y0211794D01*
X0156800Y0211794D01*
X0156800Y0207394D01*
X0156800Y0207394D01*
X0156800Y0208026D02*
X0156800Y0208026D01*
X0156800Y0209624D02*
X0156800Y0209624D01*
X0156800Y0211223D02*
X0156800Y0211223D01*
X0159194Y0211223D02*
X0174123Y0211223D01*
X0172745Y0209624D02*
X0160792Y0209624D01*
X0161200Y0208026D02*
X0172200Y0208026D01*
X0172221Y0206427D02*
X0161200Y0206427D01*
X0160457Y0204829D02*
X0172884Y0204829D01*
X0154741Y0203230D02*
X0145781Y0203230D01*
X0145781Y0204829D02*
X0153143Y0204829D01*
X0152400Y0206427D02*
X0144600Y0206427D01*
X0144600Y0208026D02*
X0152400Y0208026D01*
X0152808Y0209624D02*
X0144600Y0209624D01*
X0144600Y0211223D02*
X0154406Y0211223D01*
X0061800Y0277394D02*
X0061800Y0327394D01*
X0019420Y0329513D02*
X0006600Y0329513D01*
X0006600Y0331111D02*
X0016690Y0331111D01*
X0015242Y0332710D02*
X0006600Y0332710D01*
X0006600Y0334308D02*
X0014580Y0334308D01*
X0014190Y0335907D02*
X0006600Y0335907D01*
X0006600Y0337505D02*
X0014190Y0337505D01*
X0029491Y0255981D02*
X0031043Y0255981D01*
X0037589Y0249587D02*
X0038137Y0249587D01*
X0043119Y0247989D02*
X0048355Y0247989D01*
X0050993Y0247989D02*
X0055200Y0247989D01*
X0054109Y0255981D02*
X0052557Y0255981D01*
X0046011Y0249587D02*
X0045463Y0249587D01*
X0230041Y0295944D02*
X0244000Y0295944D01*
X0244000Y0294346D02*
X0230781Y0294346D01*
X0249600Y0105721D02*
X0257819Y0105721D01*
X0258281Y0104123D02*
X0249600Y0104123D01*
X0250356Y0064160D02*
X0288222Y0064160D01*
X0309400Y0059364D02*
X0333307Y0059364D01*
X0335013Y0060963D02*
X0310516Y0060963D01*
X0304846Y0044978D02*
X0358754Y0044978D01*
X0357899Y0043379D02*
X0305701Y0043379D01*
X0305781Y0041781D02*
X0357819Y0041781D01*
X0358407Y0040182D02*
X0305193Y0040182D01*
X0367819Y0052970D02*
X0034600Y0052970D01*
X0029000Y0052970D02*
X0026200Y0052970D01*
X0026200Y0051372D02*
X0026772Y0051372D01*
X0025848Y0054569D02*
X0029000Y0054569D01*
X0029300Y0047394D02*
X0031800Y0047394D01*
X0031800Y0067394D01*
X0021800Y0067394D01*
X0011800Y0072394D02*
X0011800Y0042394D01*
X0015781Y0041781D02*
X0017200Y0041781D01*
X0017200Y0043379D02*
X0015781Y0043379D01*
X0015781Y0044978D02*
X0017878Y0044978D01*
X0019477Y0046576D02*
X0014600Y0046576D01*
X0014600Y0048175D02*
X0019797Y0048175D01*
X0018198Y0049773D02*
X0014600Y0049773D01*
X0014600Y0051372D02*
X0017400Y0051372D01*
X0017400Y0052970D02*
X0014600Y0052970D01*
X0014600Y0054569D02*
X0017752Y0054569D01*
X0019351Y0056167D02*
X0014600Y0056167D01*
X0009000Y0056167D02*
X0006600Y0056167D01*
X0006600Y0054569D02*
X0009000Y0054569D01*
X0009000Y0052970D02*
X0006600Y0052970D01*
X0006600Y0051372D02*
X0009000Y0051372D01*
X0009000Y0049773D02*
X0006600Y0049773D01*
X0006600Y0048175D02*
X0009000Y0048175D01*
X0009000Y0046576D02*
X0006600Y0046576D01*
X0006600Y0044978D02*
X0007819Y0044978D01*
X0007819Y0043379D02*
X0006600Y0043379D01*
X0006600Y0041781D02*
X0007819Y0041781D01*
X0007819Y0040182D02*
X0006600Y0040182D01*
X0006600Y0038584D02*
X0008820Y0038584D01*
X0006600Y0036985D02*
X0390701Y0036985D01*
X0390701Y0035387D02*
X0006600Y0035387D01*
X0006600Y0033788D02*
X0390701Y0033788D01*
X0019105Y0038584D02*
X0014780Y0038584D01*
X0015781Y0040182D02*
X0017507Y0040182D01*
X0009000Y0057766D02*
X0006600Y0057766D01*
X0006600Y0059364D02*
X0009000Y0059364D01*
X0009000Y0060963D02*
X0006600Y0060963D01*
X0006600Y0062561D02*
X0009000Y0062561D01*
X0009000Y0064160D02*
X0006600Y0064160D01*
X0006600Y0065758D02*
X0009000Y0065758D01*
X0009000Y0067357D02*
X0006600Y0067357D01*
X0006600Y0068955D02*
X0008448Y0068955D01*
X0007819Y0070554D02*
X0006600Y0070554D01*
X0006600Y0072153D02*
X0007819Y0072153D01*
X0007819Y0073751D02*
X0006600Y0073751D01*
X0006600Y0075350D02*
X0007965Y0075350D01*
D19*
X0011800Y0072394D03*
X0041800Y0072394D03*
X0011800Y0042394D03*
X0086800Y0072394D03*
X0111800Y0097394D03*
X0121800Y0082394D03*
X0136800Y0107394D03*
X0111800Y0117394D03*
X0086800Y0157394D03*
X0076800Y0167394D03*
X0076800Y0187394D03*
X0106800Y0192394D03*
X0131800Y0217394D03*
X0121800Y0227394D03*
X0131800Y0237394D03*
X0141800Y0227394D03*
X0121800Y0247394D03*
X0141800Y0202394D03*
X0161800Y0172394D03*
X0186800Y0177394D03*
X0186800Y0197394D03*
X0186800Y0152394D03*
X0176800Y0147394D03*
X0176800Y0137394D03*
X0186800Y0127394D03*
X0176800Y0117394D03*
X0171800Y0107394D03*
X0186800Y0102394D03*
X0196800Y0097394D03*
X0171800Y0092394D03*
X0171800Y0067394D03*
X0226800Y0082394D03*
X0246800Y0067394D03*
X0261800Y0107394D03*
X0296800Y0137394D03*
X0311800Y0132394D03*
X0331800Y0147394D03*
X0326800Y0177394D03*
X0296800Y0197394D03*
X0276800Y0187394D03*
X0261800Y0167394D03*
X0246800Y0157394D03*
X0311800Y0102394D03*
X0356800Y0197394D03*
X0341800Y0227394D03*
X0331800Y0237394D03*
X0321800Y0247394D03*
X0311800Y0257394D03*
X0311800Y0227394D03*
X0321800Y0217394D03*
X0276800Y0217394D03*
X0261800Y0217394D03*
X0276800Y0237394D03*
X0246800Y0247394D03*
X0276800Y0267394D03*
X0226800Y0292394D03*
X0246800Y0327394D03*
X0181800Y0322394D03*
X0096800Y0317394D03*
X0061800Y0327394D03*
X0036800Y0292394D03*
X0041800Y0277394D03*
X0061800Y0277394D03*
X0036800Y0162394D03*
X0161800Y0127394D03*
D20*
X0171800Y0167394D03*
X0286800Y0072394D03*
X0291800Y0082394D03*
X0306800Y0082394D03*
X0311800Y0072394D03*
X0306800Y0062394D03*
X0291800Y0062394D03*
X0301800Y0042394D03*
X0336800Y0057394D03*
X0361800Y0042394D03*
X0371800Y0052394D03*
X0336800Y0087394D03*
X0356800Y0107394D03*
X0371800Y0092394D03*
X0371800Y0192394D03*
X0366800Y0217394D03*
X0366800Y0257394D03*
X0046800Y0152394D03*
X0031800Y0197394D03*
M02*
