%
M48
M72
T01C0.02362
T02C0.03150
T03C0.03200
T04C0.03937
T05C0.04000
T06C0.07480
%
T01
X11800Y42394
X11800Y72394
X41800Y72394
X86800Y72394
X111800Y97394
X121800Y82394
X136800Y107394
X111800Y117394
X86800Y157394
X76800Y167394
X76800Y187394
X106800Y192394
X131800Y217394
X121800Y227394
X131800Y237394
X141800Y227394
X121800Y247394
X141800Y202394
X161800Y172394
X171800Y167394
X186800Y177394
X186800Y197394
X186800Y152394
X176800Y147394
X176800Y137394
X186800Y127394
X176800Y117394
X171800Y107394
X186800Y102394
X196800Y97394
X171800Y92394
X171800Y67394
X226800Y82394
X246800Y67394
X286800Y72394
X291800Y82394
X306800Y82394
X311800Y72394
X306800Y62394
X291800Y62394
X301800Y42394
X336800Y57394
X361800Y42394
X371800Y52394
X336800Y87394
X356800Y107394
X371800Y92394
X311800Y102394
X311800Y132394
X296800Y137394
X331800Y147394
X326800Y177394
X296800Y197394
X276800Y187394
X261800Y167394
X246800Y157394
X261800Y107394
X161800Y127394
X261800Y217394
X276800Y217394
X276800Y237394
X246800Y247394
X276800Y267394
X311800Y257394
X321800Y247394
X331800Y237394
X341800Y227394
X321800Y217394
X311800Y227394
X356800Y197394
X371800Y192394
X366800Y217394
X366800Y257394
X246800Y327394
X226800Y292394
X181800Y322394
X96800Y317394
X61800Y327394
X36800Y292394
X41800Y277394
X61800Y277394
X31800Y197394
X36800Y162394
X46800Y152394
T02
X33926Y252394
X41800Y252394
X49674Y252394
X41879Y316095
X37154Y319245
X41879Y322394
X37154Y325544
X41879Y328693
T03
X156800Y207394
X176800Y207394
X196800Y207394
X196800Y197394
X196800Y187394
X196800Y177394
X196800Y167394
X196800Y157394
X196800Y147394
X196800Y137394
X196800Y127394
X226800Y127394
X226800Y137394
X226800Y147394
X226800Y157394
X226800Y167394
X226800Y177394
X226800Y187394
X226800Y197394
X226800Y207394
X226800Y217394
X226800Y227394
X226800Y237394
X226800Y247394
X226800Y257394
X196800Y257394
X196800Y247394
X196800Y237394
X196800Y227394
X196800Y217394
X161800Y152394
X156800Y117394
X156800Y97394
X156800Y67394
X141800Y47394
X121800Y47394
X116800Y67394
X71800Y87394
X61800Y72394
X61800Y62394
X29300Y47394
X21800Y42394
X21800Y52394
X71800Y107394
X96800Y107394
X96800Y127394
X121800Y152394
X276800Y282394
X276800Y292394
X306800Y312394
X346800Y312394
X226800Y327394
X206800Y327394
X336800Y132394
X376800Y132394
T04
X26052Y252394
X57548Y252394
T05
X11800Y247394
X11800Y237394
X11800Y227394
X11800Y217394
X11800Y207394
X11800Y197394
X11800Y187394
X11800Y177394
X11800Y167394
X11800Y157394
X11800Y147394
X11800Y137394
X11800Y127394
X56800Y132394
X56800Y152394
X241800Y207394
X251800Y207394
X261800Y207394
X356800Y152394
X376800Y152394
X386800Y217394
X386800Y227394
X386800Y237394
X386800Y247394
X386800Y257394
X386800Y267394
X386800Y277394
X386800Y287394
T06
X21800Y336764
X21800Y308024
M30
