G75*
%MOIN*%
%OFA0B0*%
%FSLAX25Y25*%
%IPPOS*%
%LPD*%
%AMOC8*
5,1,8,0,0,1.08239X$1,22.5*
%
%ADD10C,0.00000*%
%ADD11C,0.06000*%
%ADD12OC8,0.06000*%
%ADD13C,0.05950*%
%ADD14C,0.12020*%
%ADD15C,0.08200*%
%ADD16C,0.06000*%
%ADD17C,0.06737*%
%ADD18R,0.04762X0.04762*%
%ADD19C,0.04762*%
D10*
X0001800Y0027394D02*
X0001800Y0342355D01*
X0395501Y0342355D01*
X0395501Y0027394D01*
X0001800Y0027394D01*
D11*
X0071800Y0087394D03*
X0096800Y0107394D03*
X0156800Y0097394D03*
X0121800Y0047394D03*
X0176800Y0207394D03*
X0226800Y0327394D03*
D12*
X0206800Y0327394D03*
X0276800Y0292394D03*
X0276800Y0282394D03*
X0306800Y0312394D03*
X0346800Y0312394D03*
X0161800Y0152394D03*
X0156800Y0117394D03*
X0121800Y0152394D03*
X0096800Y0127394D03*
X0071800Y0107394D03*
X0061800Y0072394D03*
X0061800Y0062394D03*
X0029300Y0047394D03*
X0021800Y0042394D03*
X0021800Y0052394D03*
X0116800Y0067394D03*
X0141800Y0047394D03*
X0156800Y0067394D03*
X0156800Y0207394D03*
X0336800Y0132394D03*
X0376800Y0132394D03*
D13*
X0049674Y0252394D03*
X0041800Y0252394D03*
X0033926Y0252394D03*
X0041879Y0316095D03*
X0037154Y0319245D03*
X0041879Y0322394D03*
X0037154Y0325544D03*
X0041879Y0328693D03*
D14*
X0021800Y0336764D03*
X0021800Y0308024D03*
D15*
X0011800Y0247394D03*
X0011800Y0237394D03*
X0011800Y0227394D03*
X0011800Y0217394D03*
X0011800Y0207394D03*
X0011800Y0197394D03*
X0011800Y0187394D03*
X0011800Y0177394D03*
X0011800Y0167394D03*
X0011800Y0157394D03*
X0011800Y0147394D03*
X0011800Y0137394D03*
X0011800Y0127394D03*
X0056800Y0132394D03*
X0056800Y0152394D03*
X0241800Y0207394D03*
X0251800Y0207394D03*
X0261800Y0207394D03*
X0356800Y0152394D03*
X0376800Y0152394D03*
X0386800Y0217394D03*
X0386800Y0227394D03*
X0386800Y0237394D03*
X0386800Y0247394D03*
X0386800Y0257394D03*
X0386800Y0267394D03*
X0386800Y0277394D03*
X0386800Y0287394D03*
D16*
X0229400Y0257394D02*
X0224200Y0257394D01*
X0224200Y0247394D02*
X0229400Y0247394D01*
X0229400Y0237394D02*
X0224200Y0237394D01*
X0224200Y0227394D02*
X0229400Y0227394D01*
X0229400Y0217394D02*
X0224200Y0217394D01*
X0224200Y0207394D02*
X0229400Y0207394D01*
X0229400Y0197394D02*
X0224200Y0197394D01*
X0224200Y0187394D02*
X0229400Y0187394D01*
X0229400Y0177394D02*
X0224200Y0177394D01*
X0224200Y0167394D02*
X0229400Y0167394D01*
X0229400Y0157394D02*
X0224200Y0157394D01*
X0224200Y0147394D02*
X0229400Y0147394D01*
X0229400Y0137394D02*
X0224200Y0137394D01*
X0224200Y0127394D02*
X0229400Y0127394D01*
X0199400Y0127394D02*
X0194200Y0127394D01*
X0194200Y0137394D02*
X0199400Y0137394D01*
X0199400Y0147394D02*
X0194200Y0147394D01*
X0194200Y0157394D02*
X0199400Y0157394D01*
X0199400Y0167394D02*
X0194200Y0167394D01*
X0194200Y0177394D02*
X0199400Y0177394D01*
X0199400Y0187394D02*
X0194200Y0187394D01*
X0194200Y0197394D02*
X0199400Y0197394D01*
X0199400Y0207394D02*
X0194200Y0207394D01*
X0194200Y0217394D02*
X0199400Y0217394D01*
X0199400Y0227394D02*
X0194200Y0227394D01*
X0194200Y0237394D02*
X0199400Y0237394D01*
X0199400Y0247394D02*
X0194200Y0247394D01*
X0194200Y0257394D02*
X0199400Y0257394D01*
D17*
X0057548Y0252394D03*
X0026052Y0252394D03*
D18*
X0041800Y0277394D03*
X0036800Y0292394D03*
X0061800Y0277394D03*
X0096800Y0317394D03*
X0061800Y0327394D03*
X0121800Y0247394D03*
X0131800Y0237394D03*
X0141800Y0227394D03*
X0131800Y0217394D03*
X0121800Y0227394D03*
X0141800Y0202394D03*
X0161800Y0172394D03*
X0186800Y0177394D03*
X0186800Y0197394D03*
X0186800Y0152394D03*
X0176800Y0147394D03*
X0176800Y0137394D03*
X0186800Y0127394D03*
X0176800Y0117394D03*
X0171800Y0107394D03*
X0186800Y0102394D03*
X0196800Y0097394D03*
X0171800Y0092394D03*
X0171800Y0067394D03*
X0136800Y0107394D03*
X0111800Y0097394D03*
X0121800Y0082394D03*
X0086800Y0072394D03*
X0041800Y0072394D03*
X0011800Y0072394D03*
X0011800Y0042394D03*
X0111800Y0117394D03*
X0086800Y0157394D03*
X0076800Y0167394D03*
X0076800Y0187394D03*
X0106800Y0192394D03*
X0036800Y0162394D03*
X0161800Y0127394D03*
X0226800Y0082394D03*
X0246800Y0067394D03*
X0261800Y0107394D03*
X0296800Y0137394D03*
X0311800Y0132394D03*
X0331800Y0147394D03*
X0326800Y0177394D03*
X0296800Y0197394D03*
X0276800Y0187394D03*
X0261800Y0167394D03*
X0246800Y0157394D03*
X0311800Y0102394D03*
X0356800Y0197394D03*
X0341800Y0227394D03*
X0331800Y0237394D03*
X0321800Y0247394D03*
X0311800Y0257394D03*
X0311800Y0227394D03*
X0321800Y0217394D03*
X0276800Y0217394D03*
X0261800Y0217394D03*
X0276800Y0237394D03*
X0246800Y0247394D03*
X0276800Y0267394D03*
X0226800Y0292394D03*
X0246800Y0327394D03*
X0181800Y0322394D03*
D19*
X0031800Y0197394D03*
X0046800Y0152394D03*
X0171800Y0167394D03*
X0286800Y0072394D03*
X0291800Y0082394D03*
X0306800Y0082394D03*
X0311800Y0072394D03*
X0306800Y0062394D03*
X0291800Y0062394D03*
X0301800Y0042394D03*
X0336800Y0057394D03*
X0361800Y0042394D03*
X0371800Y0052394D03*
X0336800Y0087394D03*
X0356800Y0107394D03*
X0371800Y0092394D03*
X0371800Y0192394D03*
X0366800Y0217394D03*
X0366800Y0257394D03*
M02*
