G75*
%MOIN*%
%OFA0B0*%
%FSLAX25Y25*%
%IPPOS*%
%LPD*%
%AMOC8*
5,1,8,0,0,1.08239X$1,22.5*
%
%ADD10C,0.00000*%
%ADD11C,0.00500*%
%ADD12C,0.00800*%
D10*
X0001800Y0027394D02*
X0001800Y0342355D01*
X0395501Y0342355D01*
X0395501Y0027394D01*
X0001800Y0027394D01*
D11*
X0007036Y0307040D02*
X0042469Y0307040D01*
X0042469Y0337749D01*
X0007036Y0337749D01*
X0007036Y0307040D01*
X0009005Y0310583D02*
X0009005Y0314520D01*
X0026721Y0316489D01*
X0028690Y0319441D02*
X0009005Y0317473D01*
X0009005Y0310583D02*
X0026721Y0308615D01*
X0028690Y0319441D02*
X0028690Y0325347D01*
X0009005Y0327315D01*
X0009005Y0330268D02*
X0024753Y0328300D01*
X0024753Y0336174D02*
X0009005Y0334205D01*
X0009005Y0330268D01*
X0343653Y0159729D02*
X0343653Y0159095D01*
X0343970Y0158778D01*
X0344920Y0158778D01*
X0344286Y0158778D02*
X0343653Y0158144D01*
X0344920Y0158144D02*
X0344920Y0160046D01*
X0343970Y0160046D01*
X0343653Y0159729D01*
X0345862Y0160046D02*
X0347130Y0160046D01*
X0347130Y0158144D01*
X0345862Y0158144D01*
X0346496Y0159095D02*
X0347130Y0159095D01*
X0348072Y0158778D02*
X0348072Y0158461D01*
X0348389Y0158144D01*
X0349023Y0158144D01*
X0349340Y0158461D01*
X0349023Y0159095D02*
X0348389Y0159095D01*
X0348072Y0158778D01*
X0348072Y0159729D02*
X0348389Y0160046D01*
X0349023Y0160046D01*
X0349340Y0159729D01*
X0349340Y0159412D01*
X0349023Y0159095D01*
X0350282Y0158461D02*
X0350282Y0160046D01*
X0351550Y0160046D02*
X0351550Y0158461D01*
X0351233Y0158144D01*
X0350599Y0158144D01*
X0350282Y0158461D01*
X0361800Y0152394D02*
X0366800Y0157394D01*
X0366800Y0152394D02*
X0371800Y0152394D01*
D12*
X0374300Y0142394D02*
X0381800Y0149894D01*
X0381800Y0154894D01*
X0374300Y0162394D01*
X0359300Y0162394D01*
X0351800Y0154894D01*
X0351800Y0149894D01*
X0359300Y0142394D01*
X0374300Y0142394D01*
M02*
